{
.appVersion = "1343";
classes = (
{
automatic = 1;

glyphs = (
{
glyphname = A;
lastChange = "2020-07-01 15:17:51 +0000";
layers = (
{
anchors = (
{
name = bottom;
position = "{465, 0}";
},
{
name = ogonek;
position = "{749, 0}";
},
{
name = top;
position = "{801, 1323}";
}
);
layerId = "82219AB4-7C60-4B3A-9196-329BE868CB10";
paths = (
{
closed = 1;
nodes = (
"87 91 OFFCURVE",
"190 318 OFFCURVE",
"289 525 CURVE",
"329 533 OFFCURVE",
"679 562 OFFCURVE",
"786 562 CURVE",
"766 467 OFFCURVE",
"687 80 OFFCURVE",
"669 -15 CURVE",
"698 -15 OFFCURVE",
"727 -12 OFFCURVE",
"756 -5 CURVE",
"882 621 OFFCURVE",
"962 1089 OFFCURVE",
"973 1323 CURVE",
"943 1327 OFFCURVE",
"901 1329 OFFCURVE",
"866 1329 CURVE SMOOTH",
"750 1329 OFFCURVE",
"618 1311 OFFCURVE",
"588 1304 CURVE",
"426 996 OFFCURVE",
"29 165 OFFCURVE",
"-47 -7 CURVE",
"-31 -12 OFFCURVE",
"6 -15 OFFCURVE",
"43 -15 CURVE"
);
},
{
closed = 1;
nodes = (
"489 944 OFFCURVE",
"607 1173 OFFCURVE",
"639 1231 CURVE",
"682 1237 OFFCURVE",
"838 1250 OFFCURVE",
"897 1250 CURVE",
"885 1096 OFFCURVE",
"822 744 OFFCURVE",
"801 637 CURVE",
"651 631 OFFCURVE",
"429 615 OFFCURVE",
"324 594 CURVE"
);
}
);
width = 991;
},
{
anchors = (
{
name = bottom;
position = "{485, 0}";
},
{
name = ogonek;
position = "{857, 5}";
},
{
name = top;
position = "{893, 1337}";
}
);
layerId = "63DB0068-8B02-4205-807F-6F2453D24B26";
paths = (
{
closed = 1;
nodes = (
"327 57 OFFCURVE",
"380 178 OFFCURVE",
"437 291 CURVE",
"477 299 OFFCURVE",
"583 306 OFFCURVE",
"689 308 CURVE",
"657 191 OFFCURVE",
"628 80 OFFCURVE",
"610 -15 CURVE",
"737 -15 OFFCURVE",
"958 -4 OFFCURVE",
"1041 7 CURVE",
"1188 783 OFFCURVE",
"1212 1089 OFFCURVE",
"1222 1323 CURVE",
"1143 1333 OFFCURVE",
"1065 1338 OFFCURVE",
"983 1338 CURVE SMOOTH",
"855 1338 OFFCURVE",
"716 1327 OFFCURVE",
"540 1306 CURVE",
"337 940 OFFCURVE",
"-2 271 OFFCURVE",
"-122 -2 CURVE",
"-17 -7 OFFCURVE",
"225 -15 OFFCURVE",
"300 -15 CURVE"
);
},
{
closed = 1;
nodes = (
"600 691 OFFCURVE",
"697 911 OFFCURVE",
"736 995 CURVE",
"754 997 OFFCURVE",
"832 1002 OFFCURVE",
"857 1002 CURVE",
"850 976 OFFCURVE",
"782 692 OFFCURVE",
"773 651 CURVE",
"734 651 OFFCURVE",
"608 643 OFFCURVE",
"580 639 CURVE"
);
}
);
width = 1212;
}
);
leftKerningGroup = A;
rightKerningGroup = A;
unicode = 0041;
},
{
glyphname = Aogonek;
lastChange = "2020-07-21 16:03:54 +0000";
layers = (
{
components = (
{
name = A;
}
);
layerId = "82219AB4-7C60-4B3A-9196-329BE868CB10";
paths = (
{
closed = 1;
nodes = (
"797 -403 OFFCURVE",
"748 -423 OFFCURVE",
"654 -423 CURVE SMOOTH",
"564 -423 OFFCURVE",
"507 -392 OFFCURVE",
"507 -290 CURVE SMOOTH",
"507 -177 OFFCURVE",
"637 -43 OFFCURVE",
"749 0 CURVE",
"684 45 LINE",
"545 -14 OFFCURVE",
"421 -154 OFFCURVE",
"421 -297 CURVE SMOOTH",
"421 -426 OFFCURVE",
"501 -503 OFFCURVE",
"638 -503 CURVE SMOOTH",
"742 -503 OFFCURVE",
"814 -481 OFFCURVE",
"870 -457 CURVE",
"870 -370 LINE"
);
}
);
width = 991;
},
{
components = (
{
name = A;
}
);
layerId = "63DB0068-8B02-4205-807F-6F2453D24B26";
paths = (
{
closed = 1;
nodes = (
"936 -275 OFFCURVE",
"891 -284 OFFCURVE",
"848 -284 CURVE SMOOTH",
"795 -284 OFFCURVE",
"741 -260 OFFCURVE",
"741 -188 CURVE SMOOTH",
"741 -108 OFFCURVE",
"816 -24 OFFCURVE",
"861 7 CURVE",
"725 65 LINE",
"660 50 OFFCURVE",
"478 -103 OFFCURVE",
"478 -277 CURVE SMOOTH",
"478 -444 OFFCURVE",
"622 -529 OFFCURVE",
"780 -529 CURVE SMOOTH",
"884 -529 OFFCURVE",
"946 -516 OFFCURVE",
"975 -504 CURVE",
"975 -247 LINE"
);
}
);
width = 1212;
}
);
unicode = 0104;
},
{
glyphname = AE;
lastChange = "2020-07-16 19:49:31 +0000";
layers = (
{
anchors = (
{
name = bottom;
position = "{630, 0}";
},
{
name = top;
position = "{1024, 1291}";
}
);
layerId = "82219AB4-7C60-4B3A-9196-329BE868CB10";
paths = (
{
closed = 1;
nodes = (
"1348 -5 OFFCURVE",
"1362 25 OFFCURVE",
"1372 53 CURVE",
"1297 59 OFFCURVE",
"1113 66 OFFCURVE",
"954 66 CURVE SMOOTH",
"901 66 OFFCURVE",
"814 65 OFFCURVE",
"773 63 CURVE",
"826 257 OFFCURVE",
"884 472 OFFCURVE",
"938 676 CURVE",
"1024 679 OFFCURVE",
"1444 680 OFFCURVE",
"1494 680 CURVE",
"1506 758 LINE",
"1414 758 OFFCURVE",
"1031 746 OFFCURVE",
"957 743 CURVE",
"980 828 OFFCURVE",
"1055 1095 OFFCURVE",
"1083 1183 CURVE",
"1687 1230 LINE",
"1697 1257 OFFCURVE",
"1704 1280 OFFCURVE",
"1711 1304 CURVE",
"1685 1304 OFFCURVE",
"705 1218 OFFCURVE",
"685 1214 CURVE",
"493 927 OFFCURVE",
"15 152 OFFCURVE",
"-78 -9 CURVE",
"-63 -13 OFFCURVE",
"-22 -16 OFFCURVE",
"14 -16 CURVE",
"69 83 OFFCURVE",
"193 295 OFFCURVE",
"312 488 CURVE",
"352 495 OFFCURVE",
"704 522 OFFCURVE",
"810 522 CURVE",
"765 352 OFFCURVE",
"719 167 OFFCURVE",
"677 -12 CURVE",
"880 -12 OFFCURVE",
"1203 -18 OFFCURVE",
"1338 -23 CURVE"
);
},
{
closed = 1;
nodes = (
"548 875 OFFCURVE",
"692 1092 OFFCURVE",
"729 1146 CURVE",
"773 1151 OFFCURVE",
"926 1164 OFFCURVE",
"984 1164 CURVE",
"905 867 OFFCURVE",
"870 738 OFFCURVE",
"825 593 CURVE",
"678 587 OFFCURVE",
"455 569 OFFCURVE",
"349 549 CURVE"
);
}
);
width = 1606;
},
{
anchors = (
{
name = bottom;
position = "{745, 0}";
},
{
name = top;
position = "{1155, 1291}";
}
);
layerId = "63DB0068-8B02-4205-807F-6F2453D24B26";
paths = (
{
closed = 1;
nodes = (
"1512 -10 OFFCURVE",
"1604 235 OFFCURVE",
"1640 368 CURVE",
"1592 372 OFFCURVE",
"1514 378 OFFCURVE",
"1432 378 CURVE SMOOTH",
"1352 378 OFFCURVE",
"1273 378 OFFCURVE",
"1193 378 CURVE",
"1199 400 OFFCURVE",
"1222 478 OFFCURVE",
"1232 505 CURVE",
"1267 505 OFFCURVE",
"1554 491 OFFCURVE",
"1597 488 CURVE",
"1695 828 LINE",
"1608 826 OFFCURVE",
"1405 823 OFFCURVE",
"1326 823 CURVE",
"1331 842 OFFCURVE",
"1354 929 OFFCURVE",
"1362 946 CURVE",
"1793 977 LINE",
"1834 1091 OFFCURVE",
"1869 1194 OFFCURVE",
"1897 1298 CURVE",
"1826 1298 OFFCURVE",
"867 1232 OFFCURVE",
"716 1216 CURVE",
"437 874 OFFCURVE",
"6 251 OFFCURVE",
"-152 -4 CURVE",
"-51 -9 OFFCURVE",
"224 -16 OFFCURVE",
"297 -16 CURVE",
"340 51 OFFCURVE",
"417 164 OFFCURVE",
"489 269 CURVE",
"531 277 OFFCURVE",
"715 283 OFFCURVE",
"820 285 CURVE",
"790 175 OFFCURVE",
"760 73 OFFCURVE",
"730 -16 CURVE",
"916 -16 OFFCURVE",
"1284 -33 OFFCURVE",
"1490 -47 CURVE"
);
},
{
closed = 1;
nodes = (
"717 642 OFFCURVE",
"851 847 OFFCURVE",
"909 926 CURVE",
"926 928 OFFCURVE",
"984 932 OFFCURVE",
"1009 932 CURVE",
"997 908 OFFCURVE",
"913 654 OFFCURVE",
"900 605 CURVE",
"861 605 OFFCURVE",
"716 598 OFFCURVE",
"687 594 CURVE"
);
}
);
width = 1771;
}
);
leftKerningGroup = A;
leftMetricsKey = "=A-30";
rightKerningGroup = E;
rightMetricsKey = E;
unicode = 00C6;
},
{
glyphname = B;
lastChange = "2020-06-10 19:16:00 +0000";
layers = (
{
anchors = (
{
name = bottom;
position = "{444.585, 0}";
},
{
name = top;
position = "{790.507, 1291}";
}
);
layerId = "82219AB4-7C60-4B3A-9196-329BE868CB10";
paths = (
{
closed = 1;
nodes = (
"110 6 OFFCURVE",
"172 4 OFFCURVE",
"226 4 CURVE SMOOTH",
"605 4 OFFCURVE",
"1008 72 OFFCURVE",
"1008 424 CURVE SMOOTH",
"1008 555 OFFCURVE",
"888 665 OFFCURVE",
"745 665 CURVE SMOOTH",
"737 665 OFFCURVE",
"736 665 OFFCURVE",
"732 665 CURVE",
"881 701 OFFCURVE",
"1050 863 OFFCURVE",
"1050 1059 CURVE SMOOTH",
"1050 1243 OFFCURVE",
"932 1306 OFFCURVE",
"764 1306 CURVE SMOOTH",
"604 1306 OFFCURVE",
"492 1294 OFFCURVE",
"416 1285 CURVE",
"404 1243 OFFCURVE",
"114 193 OFFCURVE",
"66 12 CURVE"
);
},
{
closed = 1;
nodes = (
"322 610 LINE",
"367 615 OFFCURVE",
"531 617 OFFCURVE",
"565 617 CURVE SMOOTH",
"799 617 OFFCURVE",
"929 569 OFFCURVE",
"929 411 CURVE SMOOTH",
"929 105 OFFCURVE",
"547 80 OFFCURVE",
"217 80 CURVE SMOOTH",
"196 80 OFFCURVE",
"180 80 OFFCURVE",
"173 80 CURVE"
);
},
{
closed = 1;
nodes = (
"483 1221 LINE",
"530 1228 OFFCURVE",
"632 1241 OFFCURVE",
"729 1241 CURVE SMOOTH",
"876 1241 OFFCURVE",
"966 1203 OFFCURVE",
"966 1048 CURVE SMOOTH",
"966 894 OFFCURVE",
"869 797 OFFCURVE",
"753 737 CURVE SMOOTH",
"667 692 OFFCURVE",
"562 682 OFFCURVE",
"339 680 CURVE"
);
}
);
width = 1174;
},
{
anchors = (
{
name = bottom;
position = "{444.585, 0}";
},
{
name = top;
position = "{790.507, 1291}";
}
);
layerId = "63DB0068-8B02-4205-807F-6F2453D24B26";
paths = (
{
closed = 1;
nodes = (
"13 10 OFFCURVE",
"122 2 OFFCURVE",
"237 2 CURVE SMOOTH",
"694 2 OFFCURVE",
"1102 136 OFFCURVE",
"1102 490 CURVE SMOOTH",
"1102 637 OFFCURVE",
"1018 724 OFFCURVE",
"874 736 CURVE SMOOTH",
"862 737 OFFCURVE",
"855 737 OFFCURVE",
"848 737 CURVE",
"1015 763 OFFCURVE",
"1166 895 OFFCURVE",
"1166 1063 CURVE SMOOTH",
"1166 1229 OFFCURVE",
"1027 1306 OFFCURVE",
"817 1306 CURVE SMOOTH",
"655 1306 OFFCURVE",
"428 1293 OFFCURVE",
"315 1285 CURVE",
"307 1256 OFFCURVE",
"-4 209 OFFCURVE",
"-53 27 CURVE"
);
},
{
closed = 1;
nodes = (
"485 543 LINE",
"532 548 OFFCURVE",
"564 550 OFFCURVE",
"598 550 CURVE SMOOTH",
"707 550 OFFCURVE",
"731 524 OFFCURVE",
"731 493 CURVE SMOOTH",
"731 403 OFFCURVE",
"596 372 OFFCURVE",
"501 372 CURVE SMOOTH",
"480 372 OFFCURVE",
"461 372 OFFCURVE",
"449 373 CURVE"
);
},
{
closed = 1;
nodes = (
"599 1012 LINE",
"641 1017 OFFCURVE",
"696 1023 OFFCURVE",
"729 1023 CURVE SMOOTH",
"776 1023 OFFCURVE",
"809 998 OFFCURVE",
"809 962 CURVE SMOOTH",
"809 886 OFFCURVE",
"702 857 OFFCURVE",
"619 857 CURVE SMOOTH",
"602 857 OFFCURVE",
"584 857 OFFCURVE",
"564 857 CURVE"
);
}
);
width = 1174;
}
);
leftKerningGroup = H;
rightKerningGroup = B;
unicode = 0042;
},
{
glyphname = C;
lastChange = "2020-07-03 19:50:48 +0000";
layers = (
{
anchors = (
{
name = bottom;
position = "{397, 0}";
},
{
name = top;
position = "{743, 1291}";
}
);
layerId = "82219AB4-7C60-4B3A-9196-329BE868CB10";
paths = (
{
closed = 1;
nodes = (
"1009 299 OFFCURVE",
"969 332 OFFCURVE",
"958 338 CURVE",
"875 241 OFFCURVE",
"709 72 OFFCURVE",
"483 72 CURVE SMOOTH",
"299 72 OFFCURVE",
"207 227 OFFCURVE",
"207 485 CURVE SMOOTH",
"207 825 OFFCURVE",
"451 1241 OFFCURVE",
"793 1241 CURVE SMOOTH",
"1070 1241 OFFCURVE",
"1099 1087 OFFCURVE",
"1107 1038 CURVE",
"1127 1049 OFFCURVE",
"1175 1079 OFFCURVE",
"1189 1093 CURVE",
"1155 1230 OFFCURVE",
"997 1326 OFFCURVE",
"813 1326 CURVE SMOOTH",
"419 1326 OFFCURVE",
"112 902 OFFCURVE",
"112 463 CURVE SMOOTH",
"112 221 OFFCURVE",
"220 -7 OFFCURVE",
"475 -7 CURVE SMOOTH",
"702 -7 OFFCURVE",
"880 127 OFFCURVE",
"1015 289 CURVE"
);
}
);
width = 1137;
},
{
anchors = (
{
name = bottom;
position = "{426.585, 0}";
},
{
name = top;
position = "{772.507, 1291}";
}
);
layerId = "63DB0068-8B02-4205-807F-6F2453D24B26";
paths = (
{
closed = 1;
nodes = (
"1009 278 OFFCURVE",
"910 434 OFFCURVE",
"836 499 CURVE",
"745 426 OFFCURVE",
"657 390 OFFCURVE",
"588 390 CURVE SMOOTH",
"504 390 OFFCURVE",
"475 464 OFFCURVE",
"475 563 CURVE SMOOTH",
"475 757 OFFCURVE",
"581 982 OFFCURVE",
"744 982 CURVE SMOOTH",
"849 982 OFFCURVE",
"889 855 OFFCURVE",
"890 834 CURVE",
"985 885 OFFCURVE",
"1152 995 OFFCURVE",
"1241 1070 CURVE",
"1184 1246 OFFCURVE",
"993 1326 OFFCURVE",
"791 1326 CURVE SMOOTH",
"353 1326 OFFCURVE",
"33 930 OFFCURVE",
"33 473 CURVE SMOOTH",
"33 198 OFFCURVE",
"201 -14 OFFCURVE",
"516 -14 CURVE SMOOTH",
"730 -14 OFFCURVE",
"908 73 OFFCURVE",
"1039 185 CURVE"
);
}
);
width = 1137;
}
);
leftKerningGroup = O;
rightKerningGroup = C;
unicode = 0043;
},
{
glyphname = Ccedilla;
lastChange = "2020-07-08 20:03:08 +0000";
layers = (
{
components = (
{
name = C;
}
);
layerId = "82219AB4-7C60-4B3A-9196-329BE868CB10";
paths = (
{
closed = 1;
nodes = (
"605 -462 OFFCURVE",
"758 -400 OFFCURVE",
"758 -227 CURVE SMOOTH",
"758 -134 OFFCURVE",
"693 -87 OFFCURVE",
"597 -87 CURVE SMOOTH",
"549 -87 OFFCURVE",
"484 -106 OFFCURVE",
"465 -119 CURVE",
"506 39 LINE",
"434 43 LINE",
"367 -212 LINE",
"410 -194 OFFCURVE",
"512 -159 OFFCURVE",
"570 -159 CURVE SMOOTH",
"642 -159 OFFCURVE",
"668 -189 OFFCURVE",
"668 -242 CURVE SMOOTH",
"668 -362 OFFCURVE",
"558 -392 OFFCURVE",
"412 -392 CURVE SMOOTH",
"361 -392 OFFCURVE",
"287 -374 OFFCURVE",
"249 -364 CURVE",
"222 -437 LINE",
"241 -444 OFFCURVE",
"304 -462 OFFCURVE",
"408 -462 CURVE SMOOTH"
);
}
);
width = 1137;
},
{
components = (
{
name = C;
}
);
layerId = "63DB0068-8B02-4205-807F-6F2453D24B26";
paths = (
{
closed = 1;
nodes = (
"611 -537 OFFCURVE",
"864 -453 OFFCURVE",
"864 -231 CURVE SMOOTH",
"864 -124 OFFCURVE",
"800 -77 OFFCURVE",
"704 -77 CURVE SMOOTH",
"634 -77 OFFCURVE",
"575 -105 OFFCURVE",
"547 -139 CURVE",
"592 39 LINE",
"372 27 LINE",
"281 -257 LINE",
"318 -244 OFFCURVE",
"402 -229 OFFCURVE",
"479 -229 CURVE SMOOTH",
"544 -229 OFFCURVE",
"595 -239 OFFCURVE",
"595 -272 CURVE SMOOTH",
"595 -315 OFFCURVE",
"526 -337 OFFCURVE",
"404 -337 CURVE SMOOTH",
"371 -337 OFFCURVE",
"289 -325 OFFCURVE",
"261 -312 CURVE",
"172 -515 LINE",
"192 -520 OFFCURVE",
"272 -537 OFFCURVE",
"377 -537 CURVE SMOOTH"
);
}
);
width = 1137;
}
);
unicode = 00C7;
},
{
glyphname = D;
lastChange = "2020-07-16 20:03:24 +0000";
layers = (
{
anchors = (
{
name = bottom;
position = "{456.585, 0}";
},
{
name = center;
position = "{415, 646}";
},
{
name = top;
position = "{716, 1291}";
}
);
layerId = "82219AB4-7C60-4B3A-9196-329BE868CB10";
paths = (
{
closed = 1;
nodes = (
"824 -4 OFFCURVE",
"1069 339 OFFCURVE",
"1069 791 CURVE SMOOTH",
"1069 1085 OFFCURVE",
"954 1325 OFFCURVE",
"644 1325 CURVE SMOOTH",
"570 1325 OFFCURVE",
"420 1308 OFFCURVE",
"381 1299 CURVE",
"374 1268 OFFCURVE",
"186 219 OFFCURVE",
"147 -27 CURVE"
);
},
{
closed = 1;
nodes = (
"299 427 OFFCURVE",
"382 865 OFFCURVE",
"459 1249 CURVE",
"504 1252 OFFCURVE",
"586 1256 OFFCURVE",
"625 1256 CURVE SMOOTH",
"906 1256 OFFCURVE",
"989 1063 OFFCURVE",
"989 783 CURVE SMOOTH",
"989 429 OFFCURVE",
"804 93 OFFCURVE",
"239 53 CURVE"
);
}
);
width = 1198;
},
{
anchors = (
{
name = bottom;
position = "{456.585, 0}";
},
{
name = center;
position = "{354, 646}";
},
{
name = top;
position = "{716, 1291}";
}
);
layerId = "63DB0068-8B02-4205-807F-6F2453D24B26";
paths = (
{
closed = 1;
nodes = (
"809 -34 OFFCURVE",
"1208 157 OFFCURVE",
"1208 836 CURVE SMOOTH",
"1208 1126 OFFCURVE",
"1065 1325 OFFCURVE",
"642 1325 CURVE SMOOTH",
"495 1325 OFFCURVE",
"349 1310 OFFCURVE",
"256 1299 CURVE",
"227 1152 OFFCURVE",
"35 178 OFFCURVE",
"4 -34 CURVE"
);
},
{
closed = 1;
nodes = (
"536 565 OFFCURVE",
"575 773 OFFCURVE",
"612 978 CURVE",
"625 979 OFFCURVE",
"651 979 OFFCURVE",
"671 979 CURVE SMOOTH",
"768 979 OFFCURVE",
"798 903 OFFCURVE",
"798 808 CURVE SMOOTH",
"798 568 OFFCURVE",
"703 381 OFFCURVE",
"490 381 CURVE"
);
}
);
width = 1198;
}
);
leftKerningGroup = H;
rightKerningGroup = O;
unicode = 0044;
},
{
glyphname = Eth;
lastChange = "2020-06-18 20:02:25 +0000";
layers = (
{
components = (
{
name = D;
}
);
layerId = "82219AB4-7C60-4B3A-9196-329BE868CB10";
paths = (
{
closed = 1;
nodes = (
"650 663 OFFCURVE",
"657 698 OFFCURVE",
"658 707 CURVE",
"539 707 OFFCURVE",
"194 670 OFFCURVE",
"134 655 CURVE",
"128 644 OFFCURVE",
"116 610 OFFCURVE",
"112 592 CURVE",
"260 611 OFFCURVE",
"499 632 OFFCURVE",
"641 632 CURVE"
);
}
);
width = 1198;
},
{
components = (
{
name = D;
}
);
layerId = "63DB0068-8B02-4205-807F-6F2453D24B26";
paths = (
{
closed = 1;
nodes = (
"649 644 OFFCURVE",
"668 736 OFFCURVE",
"672 768 CURVE",
"552 768 OFFCURVE",
"204 740 OFFCURVE",
"60 710 CURVE",
"43 648 OFFCURVE",
"33 589 OFFCURVE",
"23 525 CURVE",
"210 543 OFFCURVE",
"521 553 OFFCURVE",
"625 553 CURVE"
);
}
);
width = 1198;
}
);
leftKerningGroup = H;
rightKerningGroup = O;
unicode = 00D0;
},
{
glyphname = E;
lastChange = "2020-06-18 18:46:13 +0000";
layers = (
{
anchors = (
{
name = bottom;
position = "{336.585, 0}";
},
{
name = ogonek;
position = "{581, 0}";
},
{
name = top;
position = "{683, 1311}";
},
{
name = topleft;
position = "{223.507, 1291}";
}
);
layerId = "82219AB4-7C60-4B3A-9196-329BE868CB10";
paths = (
{
closed = 1;
nodes = (
"703 9 OFFCURVE",
"717 39 OFFCURVE",
"727 67 CURVE",
"652 73 OFFCURVE",
"468 80 OFFCURVE",
"309 80 CURVE SMOOTH",
"256 80 OFFCURVE",
"169 79 OFFCURVE",
"128 77 CURVE",
"167 223 OFFCURVE",
"278 636 OFFCURVE",
"293 690 CURVE",
"379 693 OFFCURVE",
"799 694 OFFCURVE",
"849 694 CURVE",
"861 772 LINE",
"769 772 OFFCURVE",
"386 760 OFFCURVE",
"312 757 CURVE",
"335 842 OFFCURVE",
"410 1109 OFFCURVE",
"438 1197 CURVE",
"1042 1244 LINE",
"1052 1271 OFFCURVE",
"1057 1286 OFFCURVE",
"1066 1318 CURVE",
"1011 1318 OFFCURVE",
"719 1299 OFFCURVE",
"367 1251 CURVE",
"342 1179 OFFCURVE",
"275 946 OFFCURVE",
"177 580 CURVE SMOOTH",
"128 398 OFFCURVE",
"77 197 OFFCURVE",
"32 2 CURVE",
"96 4 OFFCURVE",
"178 5 OFFCURVE",
"241 5 CURVE SMOOTH",
"401 5 OFFCURVE",
"539 0 OFFCURVE",
"693 -9 CURVE"
);
}
);
width = 957;
},
{
anchors = (
{
name = bottom;
position = "{337, 0}";
},
{
name = ogonek;
position = "{599, 0}";
},
{
name = top;
position = "{683, 1321}";
},
{
name = topleft;
position = "{224, 1291}";
}
);
layerId = "63DB0068-8B02-4205-807F-6F2453D24B26";
paths = (
{
closed = 1;
nodes = (
"707 22 OFFCURVE",
"799 267 OFFCURVE",
"835 400 CURVE",
"787 404 OFFCURVE",
"709 410 OFFCURVE",
"627 410 CURVE SMOOTH",
"539 410 OFFCURVE",
"448 410 OFFCURVE",
"438 410 CURVE",
"444 432 OFFCURVE",
"467 510 OFFCURVE",
"477 537 CURVE",
"512 537 OFFCURVE",
"749 523 OFFCURVE",
"792 520 CURVE",
"890 860 LINE",
"803 858 OFFCURVE",
"650 855 OFFCURVE",
"571 855 CURVE",
"576 874 OFFCURVE",
"599 961 OFFCURVE",
"607 978 CURVE",
"988 1009 LINE",
"1029 1123 OFFCURVE",
"1064 1226 OFFCURVE",
"1092 1330 CURVE",
"1037 1330 OFFCURVE",
"701 1328 OFFCURVE",
"291 1251 CURVE",
"260 1153 OFFCURVE",
"196 945 OFFCURVE",
"122 670 CURVE SMOOTH",
"72 483 OFFCURVE",
"18 266 OFFCURVE",
"-36 31 CURVE",
"84 23 OFFCURVE",
"205 15 OFFCURVE",
"325 8 CURVE SMOOTH",
"445 1 OFFCURVE",
"565 -7 OFFCURVE",
"685 -15 CURVE"
);
}
);
width = 957;
}
);
leftKerningGroup = H;
rightKerningGroup = E;
unicode = 0045;
},
{
glyphname = Ecedillabreve;
lastChange = "2020-07-08 20:03:04 +0000";
layers = (
{
components = (
{
name = E;
},
{
name = brevecomb.case;
transform = "{1, 0, 0, 1, 37, 20}";
}
);
layerId = "82219AB4-7C60-4B3A-9196-329BE868CB10";
paths = (
{
closed = 1;
nodes = (
"485 -462 OFFCURVE",
"638 -400 OFFCURVE",
"638 -227 CURVE SMOOTH",
"638 -134 OFFCURVE",
"573 -87 OFFCURVE",
"477 -87 CURVE SMOOTH",
"429 -87 OFFCURVE",
"364 -106 OFFCURVE",
"345 -119 CURVE",
"386 39 LINE",
"314 43 LINE",
"247 -212 LINE",
"290 -194 OFFCURVE",
"392 -159 OFFCURVE",
"450 -159 CURVE SMOOTH",
"522 -159 OFFCURVE",
"548 -189 OFFCURVE",
"548 -242 CURVE SMOOTH",
"548 -362 OFFCURVE",
"438 -392 OFFCURVE",
"292 -392 CURVE SMOOTH",
"241 -392 OFFCURVE",
"167 -374 OFFCURVE",
"129 -364 CURVE",
"102 -437 LINE",
"121 -444 OFFCURVE",
"184 -462 OFFCURVE",
"288 -462 CURVE SMOOTH"
);
}
);
width = 957;
},
{
components = (
{
name = E;
},
{
name = brevecomb.case;
transform = "{1, 0, 0, 1, 46, 30}";
}
);
layerId = "63DB0068-8B02-4205-807F-6F2453D24B26";
paths = (
{
closed = 1;
nodes = (
"471 -537 OFFCURVE",
"724 -453 OFFCURVE",
"724 -231 CURVE SMOOTH",
"724 -124 OFFCURVE",
"660 -77 OFFCURVE",
"564 -77 CURVE SMOOTH",
"494 -77 OFFCURVE",
"435 -105 OFFCURVE",
"407 -139 CURVE",
"452 39 LINE",
"232 27 LINE",
"141 -257 LINE",
"178 -244 OFFCURVE",
"262 -229 OFFCURVE",
"339 -229 CURVE SMOOTH",
"404 -229 OFFCURVE",
"455 -239 OFFCURVE",
"455 -272 CURVE SMOOTH",
"455 -315 OFFCURVE",
"386 -337 OFFCURVE",
"264 -337 CURVE SMOOTH",
"231 -337 OFFCURVE",
"149 -325 OFFCURVE",
"121 -312 CURVE",
"32 -515 LINE",
"52 -520 OFFCURVE",
"132 -537 OFFCURVE",
"237 -537 CURVE SMOOTH"
);
}
);
width = 957;
}
);
unicode = 1E1C;
},
{
glyphname = Eogonek;
lastChange = "2020-07-21 16:08:09 +0000";
layers = (
{
components = (
{
name = E;
}
);
layerId = "82219AB4-7C60-4B3A-9196-329BE868CB10";
paths = (
{
closed = 1;
nodes = (
"741 -412 OFFCURVE",
"692 -432 OFFCURVE",
"598 -432 CURVE SMOOTH",
"508 -432 OFFCURVE",
"451 -401 OFFCURVE",
"451 -299 CURVE SMOOTH",
"451 -186 OFFCURVE",
"581 -52 OFFCURVE",
"693 -9 CURVE",
"628 36 LINE",
"489 -23 OFFCURVE",
"365 -163 OFFCURVE",
"365 -306 CURVE SMOOTH",
"365 -435 OFFCURVE",
"445 -512 OFFCURVE",
"582 -512 CURVE SMOOTH",
"686 -512 OFFCURVE",
"758 -490 OFFCURVE",
"814 -466 CURVE",
"814 -379 LINE"
);
}
);
width = 957;
},
{
components = (
{
name = E;
}
);
layerId = "63DB0068-8B02-4205-807F-6F2453D24B26";
paths = (
{
closed = 1;
nodes = (
"630 -277 OFFCURVE",
"585 -286 OFFCURVE",
"542 -286 CURVE SMOOTH",
"489 -286 OFFCURVE",
"435 -262 OFFCURVE",
"435 -190 CURVE SMOOTH",
"435 -110 OFFCURVE",
"510 -26 OFFCURVE",
"555 5 CURVE",
"419 63 LINE",
"354 44 OFFCURVE",
"172 -107 OFFCURVE",
"172 -279 CURVE SMOOTH",
"172 -446 OFFCURVE",
"316 -531 OFFCURVE",
"474 -531 CURVE SMOOTH",
"578 -531 OFFCURVE",
"640 -518 OFFCURVE",
"669 -506 CURVE",
"669 -249 LINE"
);
}
);
width = 957;
}
);
unicode = 0118;
},
{
glyphname = F;
lastChange = "2020-06-10 19:18:57 +0000";
layers = (
{
anchors = (
{
name = bottom;
position = "{332.585, 0}";
},
{
name = top;
position = "{678.507, 1291}";
}
);
layerId = "82219AB4-7C60-4B3A-9196-329BE868CB10";
paths = (
{
closed = 1;
nodes = (
"236 200 OFFCURVE",
"300 482 OFFCURVE",
"336 658 CURVE",
"468 658 OFFCURVE",
"686 648 OFFCURVE",
"814 634 CURVE",
"818 645 OFFCURVE",
"830 679 OFFCURVE",
"836 701 CURVE",
"820 703 OFFCURVE",
"634 725 OFFCURVE",
"353 725 CURVE",
"388 880 OFFCURVE",
"441 1116 OFFCURVE",
"460 1221 CURVE",
"771 1221 OFFCURVE",
"938 1205 OFFCURVE",
"1011 1195 CURVE",
"1016 1215 OFFCURVE",
"1026 1257 OFFCURVE",
"1028 1280 CURVE",
"922 1292 OFFCURVE",
"843 1299 OFFCURVE",
"728 1303 CURVE SMOOTH",
"643 1306 OFFCURVE",
"536 1307 OFFCURVE",
"387 1307 CURVE",
"312 922 OFFCURVE",
"199 411 OFFCURVE",
"87 -12 CURVE",
"175 -26 LINE"
);
}
);
width = 949;
},
{
anchors = (
{
name = bottom;
position = "{313, 0}";
},
{
name = top;
position = "{659, 1291}";
}
);
layerId = "63DB0068-8B02-4205-807F-6F2453D24B26";
paths = (
{
closed = 1;
nodes = (
"449 151 OFFCURVE",
"485 355 OFFCURVE",
"513 517 CURVE",
"615 517 OFFCURVE",
"723 506 OFFCURVE",
"792 498 CURVE",
"834 609 OFFCURVE",
"866 722 OFFCURVE",
"887 819 CURVE",
"826 831 OFFCURVE",
"663 848 OFFCURVE",
"572 848 CURVE",
"579 885 OFFCURVE",
"587 932 OFFCURVE",
"591 962 CURVE",
"749 962 OFFCURVE",
"944 948 OFFCURVE",
"1019 942 CURVE",
"1043 1030 OFFCURVE",
"1072 1162 OFFCURVE",
"1095 1280 CURVE",
"1018 1299 OFFCURVE",
"885 1314 OFFCURVE",
"723 1314 CURVE SMOOTH",
"589 1314 OFFCURVE",
"437 1312 OFFCURVE",
"290 1301 CURVE",
"193 875 OFFCURVE",
"93 448 OFFCURVE",
"-13 17 CURVE",
"409 0 LINE"
);
}
);
width = 949;
}
);
leftKerningGroup = H;
rightKerningGroup = F;
unicode = 0046;
},
{
glyphname = G;
lastChange = "2020-06-10 19:34:16 +0000";
layers = (
{
anchors = (
{
name = bottom;
position = "{495.585, 0}";
},
{
name = top;
position = "{841.507, 1291}";
}
);
layerId = "82219AB4-7C60-4B3A-9196-329BE868CB10";
paths = (
{
closed = 1;
nodes = (
"936 -48 OFFCURVE",
"1101 158 OFFCURVE",
"1187 483 CURVE SMOOTH",
"1202 540 OFFCURVE",
"1214 599 OFFCURVE",
"1224 662 CURVE",
"1050 698 OFFCURVE",
"773 723 OFFCURVE",
"618 733 CURVE",
"611 710 OFFCURVE",
"604 672 OFFCURVE",
"602 654 CURVE",
"736 646 OFFCURVE",
"1045 601 OFFCURVE",
"1115 588 CURVE",
"1109 559 OFFCURVE",
"1100 520 OFFCURVE",
"1092 491 CURVE SMOOTH",
"1027 255 OFFCURVE",
"911 36 OFFCURVE",
"603 36 CURVE SMOOTH",
"319 36 OFFCURVE",
"203 170 OFFCURVE",
"203 420 CURVE SMOOTH",
"203 819 OFFCURVE",
"440 1258 OFFCURVE",
"845 1258 CURVE SMOOTH",
"1008 1258 OFFCURVE",
"1106 1230 OFFCURVE",
"1174 1050 CURVE",
"1194 1062 OFFCURVE",
"1230 1094 OFFCURVE",
"1244 1110 CURVE",
"1223 1194 OFFCURVE",
"1114 1338 OFFCURVE",
"856 1338 CURVE SMOOTH",
"388 1338 OFFCURVE",
"108 890 OFFCURVE",
"108 406 CURVE SMOOTH",
"108 120 OFFCURVE",
"279 -48 OFFCURVE",
"594 -48 CURVE SMOOTH"
);
}
);
width = 1275;
},
{
anchors = (
{
name = bottom;
position = "{495.585, 0}";
},
{
name = top;
position = "{841.507, 1291}";
}
);
layerId = "63DB0068-8B02-4205-807F-6F2453D24B26";
paths = (
{
closed = 1;
nodes = (
"942 -48 OFFCURVE",
"1145 209 OFFCURVE",
"1220 488 CURVE SMOOTH",
"1233 537 OFFCURVE",
"1244 608 OFFCURVE",
"1244 652 CURVE",
"1118 691 OFFCURVE",
"866 726 OFFCURVE",
"731 726 CURVE",
"705 662 OFFCURVE",
"659 514 OFFCURVE",
"641 447 CURVE",
"685 447 OFFCURVE",
"794 434 OFFCURVE",
"828 423 CURVE",
"827 415 OFFCURVE",
"826 407 OFFCURVE",
"823 393 CURVE SMOOTH",
"810 340 OFFCURVE",
"725 299 OFFCURVE",
"659 299 CURVE SMOOTH",
"545 299 OFFCURVE",
"509 379 OFFCURVE",
"509 491 CURVE SMOOTH",
"509 706 OFFCURVE",
"624 954 OFFCURVE",
"800 954 CURVE SMOOTH",
"909 954 OFFCURVE",
"946 884 OFFCURVE",
"960 855 CURVE",
"1098 927 OFFCURVE",
"1277 1063 OFFCURVE",
"1336 1115 CURVE",
"1266 1270 OFFCURVE",
"1047 1338 OFFCURVE",
"865 1338 CURVE SMOOTH",
"408 1338 OFFCURVE",
"112 922 OFFCURVE",
"112 447 CURVE SMOOTH",
"112 135 OFFCURVE",
"284 -48 OFFCURVE",
"601 -48 CURVE SMOOTH"
);
}
);
width = 1275;
}
);
leftKerningGroup = O;
rightKerningGroup = G;
unicode = 0047;
},
{
glyphname = H;
lastChange = "2020-07-21 16:15:08 +0000";
layers = (
{
anchors = (
{
name = bottom;
position = "{465, 0}";
},
{
name = center;
position = "{721, 1063}";
},
{
name = top;
position = "{721, 1291}";
},
{
name = topleft;
position = "{223.507, 1291}";
}
);
layerId = "82219AB4-7C60-4B3A-9196-329BE868CB10";
paths = (
{
closed = 1;
nodes = (
"122 -2 OFFCURVE",
"171 2 OFFCURVE",
"184 4 CURVE",
"187 25 OFFCURVE",
"264 395 OFFCURVE",
"318 641 CURVE",
"391 641 OFFCURVE",
"770 651 OFFCURVE",
"840 653 CURVE",
"794 496 OFFCURVE",
"721 227 OFFCURVE",
"668 -2 CURVE",
"688 -2 OFFCURVE",
"732 -1 OFFCURVE",
"756 2 CURVE",
"766 53 OFFCURVE",
"784 144 OFFCURVE",
"811 242 CURVE SMOOTH",
"904 581 OFFCURVE",
"1064 1116 OFFCURVE",
"1139 1299 CURVE",
"1125 1303 OFFCURVE",
"1089 1305 OFFCURVE",
"1065 1305 CURVE SMOOTH",
"1056 1305 OFFCURVE",
"1049 1305 OFFCURVE",
"1045 1304 CURVE",
"989 1152 OFFCURVE",
"909 888 OFFCURVE",
"867 745 CURVE",
"781 742 OFFCURVE",
"411 726 OFFCURVE",
"335 718 CURVE",
"341 744 OFFCURVE",
"371 870 OFFCURVE",
"410 1013 CURVE SMOOTH",
"436 1109 OFFCURVE",
"465 1211 OFFCURVE",
"492 1289 CURVE",
"467 1289 OFFCURVE",
"420 1285 OFFCURVE",
"395 1282 CURVE",
"379 1239 OFFCURVE",
"360 1171 OFFCURVE",
"338 1088 CURVE SMOOTH",
"248 747 OFFCURVE",
"111 149 OFFCURVE",
"85 -2 CURVE"
);
}
);
width = 1094;
},
{
anchors = (
{
name = bottom;
position = "{404.585, 0}";
},
{
name = center;
position = "{711, 1063}";
},
{
name = top;
position = "{750.507, 1291}";
},
{
name = topleft;
position = "{223.507, 1291}";
}
);
layerId = "63DB0068-8B02-4205-807F-6F2453D24B26";
paths = (
{
closed = 1;
nodes = (
"55 5 OFFCURVE",
"291 12 OFFCURVE",
"373 22 CURVE",
"381 53 OFFCURVE",
"442 311 OFFCURVE",
"478 468 CURVE",
"536 468 OFFCURVE",
"569 468 OFFCURVE",
"638 470 CURVE",
"594 321 OFFCURVE",
"560 195 OFFCURVE",
"512 2 CURVE",
"655 2 OFFCURVE",
"820 7 OFFCURVE",
"874 12 CURVE",
"909 139 OFFCURVE",
"982 386 OFFCURVE",
"1060 640 CURVE SMOOTH",
"1152 939 OFFCURVE",
"1248 1234 OFFCURVE",
"1276 1299 CURVE",
"1230 1304 OFFCURVE",
"1124 1309 OFFCURVE",
"1021 1309 CURVE SMOOTH",
"968 1309 OFFCURVE",
"906 1306 OFFCURVE",
"875 1304 CURVE",
"830 1142 OFFCURVE",
"775 956 OFFCURVE",
"731 812 CURVE",
"679 812 OFFCURVE",
"628 810 OFFCURVE",
"553 802 CURVE",
"565 850 OFFCURVE",
"594 973 OFFCURVE",
"614 1060 CURVE SMOOTH",
"631 1133 OFFCURVE",
"655 1239 OFFCURVE",
"663 1297 CURVE",
"565 1297 OFFCURVE",
"311 1285 OFFCURVE",
"284 1282 CURVE",
"266 1228 OFFCURVE",
"242 1148 OFFCURVE",
"217 1052 CURVE SMOOTH",
"125 699 OFFCURVE",
"-3 147 OFFCURVE",
"-23 5 CURVE"
);
}
);
width = 1094;
}
);
leftKerningGroup = H;
rightKerningGroup = H;
unicode = 0048;
},
{
glyphname = Hbar;
lastChange = "2020-07-16 19:48:58 +0000";
layers = (
{
components = (
{
name = H;
}
);
layerId = "82219AB4-7C60-4B3A-9196-329BE868CB10";
paths = (
{
closed = 1;
nodes = (
"1181 1013 OFFCURVE",
"1190 1051 OFFCURVE",
"1190 1058 CURVE",
"996 1058 OFFCURVE",
"290 1045 OFFCURVE",
"196 1037 CURVE",
"185 1028 OFFCURVE",
"173 1001 OFFCURVE",
"169 987 CURVE",
"403 992 OFFCURVE",
"944 999 OFFCURVE",
"1174 999 CURVE"
);
}
);
width = 1094;
},
{
components = (
{
name = H;
}
);
layerId = "63DB0068-8B02-4205-807F-6F2453D24B26";
paths = (
{
closed = 1;
nodes = (
"1252 1023 OFFCURVE",
"1285 1154 OFFCURVE",
"1293 1188 CURVE",
"1101 1188 OFFCURVE",
"376 1179 OFFCURVE",
"193 1136 CURVE",
"169 1072 OFFCURVE",
"149 994 OFFCURVE",
"132 919 CURVE",
"439 933 OFFCURVE",
"1051 939 OFFCURVE",
"1217 939 CURVE"
);
}
);
width = 1094;
}
);
leftKerningGroup = H;
rightKerningGroup = H;
unicode = 0126;
},
{
glyphname = I;
lastChange = "2020-06-18 18:46:33 +0000";
layers = (
{
anchors = (
{
name = bottom;
position = "{102, 0}";
},
{
name = ogonek;
position = "{138, 0}";
},
{
name = top;
position = "{448, 1291}";
},
{
name = topleft;
position = "{224, 1291}";
}
);
layerId = "82219AB4-7C60-4B3A-9196-329BE868CB10";
paths = (
{
closed = 1;
nodes = (
"150 46 OFFCURVE",
"264 472 OFFCURVE",
"294 583 CURVE SMOOTH",
"340 755 OFFCURVE",
"412 1043 OFFCURVE",
"480 1320 CURVE",
"457 1320 OFFCURVE",
"419 1319 OFFCURVE",
"405 1317 CURVE",
"331 1049 OFFCURVE",
"268 815 OFFCURVE",
"224 649 CURVE SMOOTH",
"175 463 OFFCURVE",
"97 165 OFFCURVE",
"59 4 CURVE",
"71 2 OFFCURVE",
"126 0 OFFCURVE",
"138 0 CURVE"
);
}
);
width = 487;
},
{
anchors = (
{
name = bottom;
position = "{147, 0}";
},
{
name = ogonek;
position = "{322, -24}";
},
{
name = top;
position = "{493, 1291}";
},
{
name = topleft;
position = "{238, 1291}";
}
);
layerId = "63DB0068-8B02-4205-807F-6F2453D24B26";
paths = (
{
closed = 1;
nodes = (
"374 94 OFFCURVE",
"439 312 OFFCURVE",
"502 548 CURVE SMOOTH",
"575 823 OFFCURVE",
"648 1128 OFFCURVE",
"689 1323 CURVE",
"591 1323 OFFCURVE",
"365 1317 OFFCURVE",
"310 1315 CURVE",
"234 1057 OFFCURVE",
"163 808 OFFCURVE",
"102 580 CURVE SMOOTH",
"44 363 OFFCURVE",
"-18 111 OFFCURVE",
"-46 -8 CURVE",
"61 -23 OFFCURVE",
"221 -24 OFFCURVE",
"322 -24 CURVE"
);
}
);
width = 588;
}
);
unicode = 0049;
},
{
glyphname = I.ss01;
lastChange = "2020-07-16 19:55:12 +0000";
layers = (
{
anchors = (
{
name = bottom;
position = "{277.585, 0}";
},
{
name = ogonek;
position = "{588, 0}";
},
{
name = top;
position = "{634, 1301}";
},
{
name = topleft;
position = "{223.507, 1291}";
}
);
layerId = "82219AB4-7C60-4B3A-9196-329BE868CB10";
paths = (
{
closed = 1;
nodes = (
"438 -10 OFFCURVE",
"531 -9 OFFCURVE",
"581 -7 CURVE",
"583 -3 OFFCURVE",
"591 13 OFFCURVE",
"598 29 CURVE SMOOTH",
"605 45 OFFCURVE",
"611 61 OFFCURVE",
"613 67 CURVE",
"512 67 OFFCURVE",
"432 67 OFFCURVE",
"348 67 CURVE",
"364 116 OFFCURVE",
"386 197 OFFCURVE",
"412 296 CURVE SMOOTH",
"468 505 OFFCURVE",
"612 1050 OFFCURVE",
"654 1226 CURVE",
"715 1226 OFFCURVE",
"887 1217 OFFCURVE",
"941 1209 CURVE",
"946 1227 OFFCURVE",
"951 1265 OFFCURVE",
"951 1279 CURVE",
"887 1289 OFFCURVE",
"692 1301 OFFCURVE",
"511 1301 CURVE SMOOTH",
"439 1301 OFFCURVE",
"373 1301 OFFCURVE",
"295 1299 CURVE",
"292 1295 OFFCURVE",
"286 1284 OFFCURVE",
"283 1269 CURVE SMOOTH",
"280 1256 OFFCURVE",
"277 1239 OFFCURVE",
"276 1221 CURVE",
"304 1224 OFFCURVE",
"466 1224 OFFCURVE",
"566 1224 CURVE",
"506 993 OFFCURVE",
"324 282 OFFCURVE",
"271 67 CURVE",
"206 67 OFFCURVE",
"44 71 OFFCURVE",
"-1 74 CURVE",
"-2 68 OFFCURVE",
"-6 55 OFFCURVE",
"-10 42 CURVE SMOOTH",
"-15 27 OFFCURVE",
"-19 10 OFFCURVE",
"-20 5 CURVE",
"154 -9 OFFCURVE",
"240 -10 OFFCURVE",
"335 -10 CURVE SMOOTH"
);
}
);
width = 839;
},
{
anchors = (
{
name = bottom;
position = "{277.585, 0}";
},
{
name = ogonek;
position = "{555, -15}";
},
{
name = top;
position = "{644, 1321}";
},
{
name = topleft;
position = "{223.507, 1291}";
}
);
layerId = "63DB0068-8B02-4205-807F-6F2453D24B26";
paths = (
{
closed = 1;
nodes = (
"428 -17 OFFCURVE",
"555 -15 OFFCURVE",
"605 -14 CURVE",
"637 57 OFFCURVE",
"663 143 OFFCURVE",
"681 207 CURVE SMOOTH",
"695 256 OFFCURVE",
"702 293 OFFCURVE",
"703 303 CURVE",
"661 303 OFFCURVE",
"618 303 OFFCURVE",
"551 301 CURVE",
"573 359 OFFCURVE",
"638 557 OFFCURVE",
"678 706 CURVE SMOOTH",
"702 796 OFFCURVE",
"755 993 OFFCURVE",
"761 1014 CURVE",
"791 1012 OFFCURVE",
"849 1010 OFFCURVE",
"888 1010 CURVE",
"930 1093 OFFCURVE",
"963 1214 OFFCURVE",
"980 1277 CURVE",
"865 1291 OFFCURVE",
"703 1308 OFFCURVE",
"565 1308 CURVE SMOOTH",
"493 1308 OFFCURVE",
"359 1306 OFFCURVE",
"281 1304 CURVE",
"280 1296 OFFCURVE",
"275 1276 OFFCURVE",
"267 1247 CURVE SMOOTH",
"251 1190 OFFCURVE",
"227 1101 OFFCURVE",
"204 1015 CURVE",
"284 1015 OFFCURVE",
"312 1015 OFFCURVE",
"353 1017 CURVE",
"294 798 OFFCURVE",
"214 490 OFFCURVE",
"164 297 CURVE",
"82 299 OFFCURVE",
"82 299 OFFCURVE",
"37 304 CURVE",
"15 243 OFFCURVE",
"-1 191 OFFCURVE",
"-19 123 CURVE SMOOTH",
"-31 78 OFFCURVE",
"-42 36 OFFCURVE",
"-50 2 CURVE",
"133 -14 OFFCURVE",
"229 -17 OFFCURVE",
"325 -17 CURVE SMOOTH"
);
}
);
width = 839;
}
);
leftKerningGroup = H;
rightKerningGroup = H;
},
{
glyphname = Iogonek;
lastChange = "2020-07-21 16:04:24 +0000";
layers = (
{
components = (
{
name = I;
}
);
layerId = "82219AB4-7C60-4B3A-9196-329BE868CB10";
paths = (
{
closed = 1;
nodes = (
"186 -403 OFFCURVE",
"137 -423 OFFCURVE",
"43 -423 CURVE SMOOTH",
"-47 -423 OFFCURVE",
"-104 -392 OFFCURVE",
"-104 -290 CURVE SMOOTH",
"-104 -177 OFFCURVE",
"26 -43 OFFCURVE",
"138 0 CURVE",
"73 45 LINE",
"-66 -14 OFFCURVE",
"-190 -154 OFFCURVE",
"-190 -297 CURVE SMOOTH",
"-190 -426 OFFCURVE",
"-110 -503 OFFCURVE",
"27 -503 CURVE SMOOTH",
"131 -503 OFFCURVE",
"203 -481 OFFCURVE",
"259 -457 CURVE",
"259 -370 LINE"
);
}
);
width = 487;
},
{
components = (
{
name = I;
}
);
layerId = "63DB0068-8B02-4205-807F-6F2453D24B26";
paths = (
{
closed = 1;
nodes = (
"257 -286 OFFCURVE",
"212 -295 OFFCURVE",
"169 -295 CURVE SMOOTH",
"116 -295 OFFCURVE",
"62 -271 OFFCURVE",
"62 -199 CURVE SMOOTH",
"62 -119 OFFCURVE",
"135 -35 OFFCURVE",
"182 -4 CURVE",
"46 54 LINE",
"-19 35 OFFCURVE",
"-201 -116 OFFCURVE",
"-201 -288 CURVE SMOOTH",
"-201 -455 OFFCURVE",
"-57 -540 OFFCURVE",
"101 -540 CURVE SMOOTH",
"205 -540 OFFCURVE",
"267 -527 OFFCURVE",
"296 -515 CURVE",
"296 -258 LINE"
);
}
);
width = 588;
}
);
unicode = 012E;
},
{
glyphname = Iogonek.ss01;
lastChange = "2020-07-21 15:59:31 +0000";
layers = (
{
components = (
{
name = I.ss01;
}
);
layerId = "82219AB4-7C60-4B3A-9196-329BE868CB10";
paths = (
{
closed = 1;
nodes = (
"425 -393 OFFCURVE",
"376 -413 OFFCURVE",
"282 -413 CURVE SMOOTH",
"192 -413 OFFCURVE",
"135 -382 OFFCURVE",
"135 -280 CURVE SMOOTH",
"135 -167 OFFCURVE",
"265 -33 OFFCURVE",
"377 10 CURVE",
"312 55 LINE",
"173 -4 OFFCURVE",
"49 -144 OFFCURVE",
"49 -287 CURVE SMOOTH",
"49 -416 OFFCURVE",
"129 -493 OFFCURVE",
"266 -493 CURVE SMOOTH",
"370 -493 OFFCURVE",
"442 -471 OFFCURVE",
"498 -447 CURVE",
"498 -360 LINE"
);
}
);
width = 839;
},
{
components = (
{
name = I.ss01;
}
);
layerId = "63DB0068-8B02-4205-807F-6F2453D24B26";
paths = (
{
closed = 1;
nodes = (
"502 -272 OFFCURVE",
"457 -281 OFFCURVE",
"414 -281 CURVE SMOOTH",
"361 -281 OFFCURVE",
"307 -257 OFFCURVE",
"307 -185 CURVE SMOOTH",
"307 -105 OFFCURVE",
"382 -21 OFFCURVE",
"427 10 CURVE",
"291 68 LINE",
"226 49 OFFCURVE",
"44 -102 OFFCURVE",
"44 -274 CURVE SMOOTH",
"44 -441 OFFCURVE",
"188 -526 OFFCURVE",
"346 -526 CURVE SMOOTH",
"450 -526 OFFCURVE",
"512 -513 OFFCURVE",
"541 -501 CURVE",
"541 -244 LINE"
);
}
);
width = 839;
}
);
},
{
glyphname = J;
lastChange = "2020-06-10 19:36:08 +0000";
layers = (
{
anchors = (
{
name = bottom;
position = "{446.585, 0}";
},
{
name = top;
position = "{1095, 1291}";
}
);
layerId = "82219AB4-7C60-4B3A-9196-329BE868CB10";
paths = (
{
closed = 1;
nodes = (
"194 -19 OFFCURVE",
"452 -19 CURVE SMOOTH",
"749 -19 OFFCURVE",
"923 247 OFFCURVE",
"1014 585 CURVE SMOOTH",
"1069 790 OFFCURVE",
"1133 1149 OFFCURVE",
"1161 1315 CURVE",
"1153 1316 OFFCURVE",
"1133 1318 OFFCURVE",
"1115 1318 CURVE SMOOTH",
"1096 1318 OFFCURVE",
"1077 1316 OFFCURVE",
"1065 1313 CURVE",
"1063 1291 OFFCURVE",
"969 762 OFFCURVE",
"914 556 CURVE SMOOTH",
"839 277 OFFCURVE",
"691 63 OFFCURVE",
"460 63 CURVE SMOOTH",
"228 63 OFFCURVE",
"170 253 OFFCURVE",
"170 448 CURVE",
"138 436 OFFCURVE",
"98 419 OFFCURVE",
"71 405 CURVE",
"82 176 OFFCURVE"
);
}
);
width = 1178;
},
{
anchors = (
{
name = bottom;
position = "{446.585, 0}";
},
{
name = top;
position = "{1052, 1291}";
}
);
layerId = "63DB0068-8B02-4205-807F-6F2453D24B26";
paths = (
{
closed = 1;
nodes = (
"187 -19 OFFCURVE",
"470 -19 CURVE SMOOTH",
"788 -19 OFFCURVE",
"1007 114 OFFCURVE",
"1131 614 CURVE SMOOTH",
"1172 780 OFFCURVE",
"1246 1100 OFFCURVE",
"1278 1277 CURVE",
"1219 1285 OFFCURVE",
"1165 1287 OFFCURVE",
"1091 1287 CURVE SMOOTH",
"1022 1287 OFFCURVE",
"932 1278 OFFCURVE",
"863 1265 CURVE",
"860 1243 OFFCURVE",
"788 860 OFFCURVE",
"733 653 CURVE SMOOTH",
"677 443 OFFCURVE",
"634 364 OFFCURVE",
"555 364 CURVE SMOOTH",
"488 364 OFFCURVE",
"425 450 OFFCURVE",
"425 581 CURVE",
"327 548 OFFCURVE",
"75 443 OFFCURVE",
"7 400 CURVE",
"7 128 OFFCURVE"
);
}
);
width = 1178;
}
);
leftKerningGroup = J;
rightKerningGroup = J;
unicode = 004A;
},
{
glyphname = K;
lastChange = "2020-06-18 14:23:57 +0000";
layers = (
{
anchors = (
{
name = bottom;
position = "{415.585, 0}";
},
{
name = top;
position = "{761.507, 1291}";
}
);
layerId = "82219AB4-7C60-4B3A-9196-329BE868CB10";
paths = (
{
closed = 1;
nodes = (
"130 -32 OFFCURVE",
"172 -27 OFFCURVE",
"192 -24 CURVE",
"197 -3 OFFCURVE",
"286 381 OFFCURVE",
"337 621 CURVE",
"358 631 OFFCURVE",
"417 663 OFFCURVE",
"443 680 CURVE",
"627 426 OFFCURVE",
"745 19 OFFCURVE",
"749 2 CURVE",
"770 10 OFFCURVE",
"814 30 OFFCURVE",
"837 46 CURVE",
"818 119 OFFCURVE",
"664 537 OFFCURVE",
"516 723 CURVE",
"865 937 OFFCURVE",
"1103 1150 OFFCURVE",
"1179 1224 CURVE",
"1166 1231 OFFCURVE",
"1130 1257 OFFCURVE",
"1118 1272 CURVE",
"912 1047 OFFCURVE",
"555 833 OFFCURVE",
"354 718 CURVE",
"405 962 OFFCURVE",
"461 1239 OFFCURVE",
"470 1297 CURVE",
"463 1299 OFFCURVE",
"449 1300 OFFCURVE",
"435 1300 CURVE SMOOTH",
"418 1300 OFFCURVE",
"400 1299 OFFCURVE",
"391 1296 CURVE",
"350 1092 OFFCURVE",
"172 276 OFFCURVE",
"101 -32 CURVE"
);
}
);
width = 1061;
},
{
anchors = (
{
name = bottom;
position = "{415.585, 0}";
},
{
name = top;
position = "{761.507, 1291}";
}
);
layerId = "63DB0068-8B02-4205-807F-6F2453D24B26";
paths = (
{
closed = 1;
nodes = (
"118 -12 OFFCURVE",
"324 8 OFFCURVE",
"368 10 CURVE",
"381 56 OFFCURVE",
"422 272 OFFCURVE",
"447 409 CURVE",
"469 417 OFFCURVE",
"493 426 OFFCURVE",
"519 443 CURVE",
"551 355 OFFCURVE",
"608 102 OFFCURVE",
"623 -5 CURVE",
"746 31 OFFCURVE",
"946 121 OFFCURVE",
"1019 162 CURVE",
"1010 236 OFFCURVE",
"919 467 OFFCURVE",
"815 654 CURVE",
"962 767 OFFCURVE",
"1189 1043 OFFCURVE",
"1234 1118 CURVE",
"1188 1146 OFFCURVE",
"1056 1235 OFFCURVE",
"950 1326 CURVE",
"780 1097 OFFCURVE",
"624 892 OFFCURVE",
"529 809 CURVE",
"562 962 OFFCURVE",
"628 1226 OFFCURVE",
"646 1297 CURVE",
"609 1304 OFFCURVE",
"537 1311 OFFCURVE",
"457 1311 CURVE SMOOTH",
"393 1311 OFFCURVE",
"309 1306 OFFCURVE",
"248 1296 CURVE",
"172 937 OFFCURVE",
"15 240 OFFCURVE",
"-58 -32 CURVE"
);
}
);
width = 1115;
}
);
leftKerningGroup = H;
rightKerningGroup = K;
unicode = 004B;
},
{
glyphname = L;
lastChange = "2020-07-21 16:20:05 +0000";
layers = (
{
anchors = (
{
name = bottom;
position = "{338.585, 0}";
},
{
name = center;
position = "{511.68, 646}";
},
{
name = top;
position = "{458, 1296}";
},
{
name = topright;
position = "{585, 907}";
}
);
layerId = "82219AB4-7C60-4B3A-9196-329BE868CB10";
paths = (
{
closed = 1;
nodes = (
"175 2 OFFCURVE",
"271 4 OFFCURVE",
"378 9 CURVE SMOOTH",
"477 14 OFFCURVE",
"585 20 OFFCURVE",
"727 31 CURVE",
"737 51 OFFCURVE",
"749 80 OFFCURVE",
"757 106 CURVE",
"569 106 OFFCURVE",
"305 92 OFFCURVE",
"183 85 CURVE",
"197 130 OFFCURVE",
"223 225 OFFCURVE",
"256 347 CURVE SMOOTH",
"332 628 OFFCURVE",
"442 1049 OFFCURVE",
"491 1292 CURVE",
"485 1293 OFFCURVE",
"458 1296 OFFCURVE",
"438 1296 CURVE SMOOTH",
"430 1296 OFFCURVE",
"418 1295 OFFCURVE",
"411 1294 CURVE",
"378 1152 OFFCURVE",
"308 884 OFFCURVE",
"238 624 CURVE SMOOTH",
"168 364 OFFCURVE",
"97 112 OFFCURVE",
"63 2 CURVE"
);
}
);
width = 961;
},
{
anchors = (
{
name = bottom;
position = "{338.585, 0}";
},
{
name = center;
position = "{511.68, 646}";
},
{
name = top;
position = "{518, 1300}";
},
{
name = topright;
position = "{701, 911}";
}
);
layerId = "63DB0068-8B02-4205-807F-6F2453D24B26";
paths = (
{
closed = 1;
nodes = (
"24 20 OFFCURVE",
"154 13 OFFCURVE",
"281 13 CURVE SMOOTH",
"444 13 OFFCURVE",
"635 24 OFFCURVE",
"808 48 CURVE",
"840 166 OFFCURVE",
"888 379 OFFCURVE",
"892 439 CURVE",
"745 439 OFFCURVE",
"632 436 OFFCURVE",
"460 426 CURVE",
"483 488 OFFCURVE",
"506 553 OFFCURVE",
"527 617 CURVE SMOOTH",
"627 921 OFFCURVE",
"709 1189 OFFCURVE",
"736 1292 CURVE",
"712 1297 OFFCURVE",
"628 1300 OFFCURVE",
"577 1300 CURVE SMOOTH",
"461 1300 OFFCURVE",
"338 1289 OFFCURVE",
"288 1282 CURVE",
"257 1150 OFFCURVE",
"188 882 OFFCURVE",
"122 633 CURVE SMOOTH",
"56 383 OFFCURVE",
"-19 141 OFFCURVE",
"-56 31 CURVE"
);
}
);
width = 961;
}
);
leftKerningGroup = H;
rightKerningGroup = L;
unicode = 004C;
},
{
glyphname = Lslash;
lastChange = "2020-07-16 19:53:11 +0000";
layers = (
{
components = (
{
alignment = -1;
name = L;
transform = "{1, 0, 0, 1, 161, 0}";
}
);
layerId = "82219AB4-7C60-4B3A-9196-329BE868CB10";
paths = (
{
closed = 1;
nodes = (
"366 513 OFFCURVE",
"554 644 OFFCURVE",
"796 821 CURVE",
"796 838 OFFCURVE",
"771 876 OFFCURVE",
"759 892 CURVE",
"576 742 OFFCURVE",
"391 611 OFFCURVE",
"113 465 CURVE",
"115 454 OFFCURVE",
"141 414 OFFCURVE",
"149 402 CURVE"
);
}
);
width = 1121;
},
{
components = (
{
alignment = -1;
name = L;
transform = "{1, 0, 0, 1, 161, 0}";
}
);
layerId = "63DB0068-8B02-4205-807F-6F2453D24B26";
paths = (
{
closed = 1;
nodes = (
"295 460 OFFCURVE",
"597 568 OFFCURVE",
"1061 828 CURVE",
"1061 875 OFFCURVE",
"1055 1044 OFFCURVE",
"1044 1116 CURVE",
"840 1023 OFFCURVE",
"311 782 OFFCURVE",
"73 688 CURVE",
"73 628 OFFCURVE",
"60 456 OFFCURVE",
"56 409 CURVE"
);
}
);
width = 1121;
}
);
leftKerningGroup = H;
rightKerningGroup = L;
unicode = 0141;
},
{
glyphname = M;
lastChange = "2020-06-18 14:30:13 +0000";
layers = (
{
anchors = (
{
name = bottom;
position = "{531, 0}";
},
{
name = top;
position = "{877, 1291}";
}
);
layerId = "82219AB4-7C60-4B3A-9196-329BE868CB10";
paths = (
{
closed = 1;
nodes = (
"51 -22 OFFCURVE",
"94 -19 OFFCURVE",
"116 -17 CURVE",
"144 87 OFFCURVE",
"339 807 OFFCURVE",
"435 1156 CURVE",
"449 954 OFFCURVE",
"484 5 OFFCURVE",
"484 -12 CURVE",
"499 -15 OFFCURVE",
"519 -16 OFFCURVE",
"538 -16 CURVE SMOOTH",
"553 -16 OFFCURVE",
"567 -15 OFFCURVE",
"577 -14 CURVE",
"647 67 OFFCURVE",
"1159 916 OFFCURVE",
"1278 1145 CURVE",
"1255 1049 OFFCURVE",
"1190 786 OFFCURVE",
"1138 593 CURVE SMOOTH",
"1082 384 OFFCURVE",
"1021 174 OFFCURVE",
"956 -5 CURVE",
"981 -8 OFFCURVE",
"1019 -10 OFFCURVE",
"1046 -10 CURVE",
"1087 109 OFFCURVE",
"1165 393 OFFCURVE",
"1231 640 CURVE SMOOTH",
"1297 887 OFFCURVE",
"1355 1129 OFFCURVE",
"1364 1260 CURVE",
"1347 1262 OFFCURVE",
"1283 1267 OFFCURVE",
"1255 1267 CURVE",
"1152 1059 OFFCURVE",
"633 194 OFFCURVE",
"533 33 CURVE",
"544 33 LINE",
"570 169 OFFCURVE",
"507 1244 OFFCURVE",
"505 1262 CURVE",
"491 1262 OFFCURVE",
"426 1261 OFFCURVE",
"388 1256 CURVE",
"347 1121 OFFCURVE",
"125 368 OFFCURVE",
"20 -22 CURVE"
);
}
);
width = 1379;
},
{
anchors = (
{
name = bottom;
position = "{594, 0}";
},
{
name = top;
position = "{940, 1291}";
}
);
layerId = "63DB0068-8B02-4205-807F-6F2453D24B26";
paths = (
{
closed = 1;
nodes = (
"69 7 OFFCURVE",
"239 9 OFFCURVE",
"329 12 CURVE",
"335 32 OFFCURVE",
"430 399 OFFCURVE",
"509 707 CURVE",
"506 552 OFFCURVE",
"478 111 OFFCURVE",
"472 34 CURVE",
"526 28 OFFCURVE",
"566 24 OFFCURVE",
"608 24 CURVE SMOOTH",
"630 24 OFFCURVE",
"688 25 OFFCURVE",
"711 26 CURVE",
"766 106 OFFCURVE",
"994 475 OFFCURVE",
"1066 606 CURVE",
"1049 555 OFFCURVE",
"1013 443 OFFCURVE",
"977 329 CURVE SMOOTH",
"938 206 OFFCURVE",
"898 80 OFFCURVE",
"879 24 CURVE",
"950 19 OFFCURVE",
"1118 9 OFFCURVE",
"1240 9 CURVE",
"1300 178 OFFCURVE",
"1393 466 OFFCURVE",
"1462 725 CURVE SMOOTH",
"1516 926 OFFCURVE",
"1556 1114 OFFCURVE",
"1561 1231 CURVE",
"1453 1250 OFFCURVE",
"1227 1255 OFFCURVE",
"1124 1255 CURVE",
"1065 1131 OFFCURVE",
"785 610 OFFCURVE",
"725 516 CURVE",
"772 522 LINE",
"777 610 OFFCURVE",
"784 1197 OFFCURVE",
"784 1262 CURVE",
"771 1262 OFFCURVE",
"461 1260 OFFCURVE",
"297 1244 CURVE",
"158 811 OFFCURVE",
"-3 222 OFFCURVE",
"-60 7 CURVE"
);
}
);
width = 1492;
}
);
leftKerningGroup = M;
rightKerningGroup = M;
unicode = 004D;
},
{
glyphname = N;
lastChange = "2020-06-10 19:41:00 +0000";
layers = (
{
anchors = (
{
name = bottom;
position = "{498.585, 0}";
},
{
name = top;
position = "{844.507, 1291}";
}
);
layerId = "82219AB4-7C60-4B3A-9196-329BE868CB10";
paths = (
{
closed = 1;
nodes = (
"254 132 OFFCURVE",
"480 1029 OFFCURVE",
"509 1159 CURVE",
"563 1000 OFFCURVE",
"827 132 OFFCURVE",
"866 -2 CURVE",
"877 -3 OFFCURVE",
"887 -3 OFFCURVE",
"899 -3 CURVE SMOOTH",
"911 -3 OFFCURVE",
"925 -3 OFFCURVE",
"945 -2 CURVE",
"954 20 OFFCURVE",
"973 86 OFFCURVE",
"997 178 CURVE SMOOTH",
"1072 466 OFFCURVE",
"1208 1010 OFFCURVE",
"1263 1246 CURVE",
"1241 1256 OFFCURVE",
"1210 1265 OFFCURVE",
"1167 1265 CURVE",
"910 145 LINE",
"835 412 OFFCURVE",
"691 916 OFFCURVE",
"555 1265 CURVE",
"541 1269 OFFCURVE",
"488 1274 OFFCURVE",
"459 1274 CURVE",
"450 1246 OFFCURVE",
"432 1179 OFFCURVE",
"409 1091 CURVE SMOOTH",
"319 747 OFFCURVE",
"143 74 OFFCURVE",
"124 -9 CURVE",
"149 -9 OFFCURVE",
"200 -7 OFFCURVE",
"217 -5 CURVE"
);
}
);
width = 1282;
},
{
anchors = (
{
name = bottom;
position = "{498.585, 0}";
},
{
name = top;
position = "{844.507, 1291}";
}
);
layerId = "63DB0068-8B02-4205-807F-6F2453D24B26";
paths = (
{
closed = 1;
nodes = (
"420 121 OFFCURVE",
"514 533 OFFCURVE",
"528 637 CURVE",
"615 360 OFFCURVE",
"666 103 OFFCURVE",
"683 14 CURVE",
"731 5 OFFCURVE",
"811 2 OFFCURVE",
"891 2 CURVE SMOOTH",
"944 2 OFFCURVE",
"996 3 OFFCURVE",
"1040 5 CURVE",
"1075 63 OFFCURVE",
"1190 418 OFFCURVE",
"1277 746 CURVE SMOOTH",
"1325 926 OFFCURVE",
"1366 1097 OFFCURVE",
"1381 1207 CURVE",
"1322 1226 OFFCURVE",
"1094 1243 OFFCURVE",
"1003 1243 CURVE",
"851 532 LINE",
"818 752 OFFCURVE",
"765 1016 OFFCURVE",
"677 1236 CURVE",
"570 1253 OFFCURVE",
"355 1264 OFFCURVE",
"293 1264 CURVE",
"263 1111 OFFCURVE",
"190 825 OFFCURVE",
"120 566 CURVE SMOOTH",
"45 287 OFFCURVE",
"-24 39 OFFCURVE",
"-31 21 CURVE",
"42 11 OFFCURVE",
"230 -7 OFFCURVE",
"386 -7 CURVE"
);
}
);
width = 1282;
}
);
leftKerningGroup = H;
rightKerningGroup = H;
unicode = 004E;
},
{
glyphname = Eng;
lastChange = "2020-06-18 19:01:55 +0000";
layers = (
{
components = (
{
alignment = -1;
name = N;
}
);
layerId = "82219AB4-7C60-4B3A-9196-329BE868CB10";
paths = (
{
closed = 1;
nodes = (
"718 -349 OFFCURVE",
"889 -214 OFFCURVE",
"951 15 CURVE",
"846 75 LINE",
"850 64 OFFCURVE",
"852 40 OFFCURVE",
"852 26 CURVE SMOOTH",
"852 -114 OFFCURVE",
"728 -279 OFFCURVE",
"575 -279 CURVE SMOOTH",
"459 -279 OFFCURVE",
"408 -212 OFFCURVE",
"390 -152 CURVE",
"367 -162 OFFCURVE",
"340 -179 OFFCURVE",
"324 -190 CURVE",
"354 -320 OFFCURVE",
"472 -349 OFFCURVE",
"576 -349 CURVE SMOOTH"
);
}
);
width = 1282;
},
{
components = (
{
alignment = -1;
name = N;
}
);
layerId = "63DB0068-8B02-4205-807F-6F2453D24B26";
paths = (
{
closed = 1;
nodes = (
"829 -419 OFFCURVE",
"977 -210 OFFCURVE",
"1074 91 CURVE",
"672 79 LINE",
"678 52 OFFCURVE",
"683 16 OFFCURVE",
"683 -15 CURVE SMOOTH",
"683 -58 OFFCURVE",
"646 -83 OFFCURVE",
"598 -83 CURVE SMOOTH",
"561 -83 OFFCURVE",
"523 -51 OFFCURVE",
"505 0 CURVE",
"352 -74 OFFCURVE",
"146 -178 OFFCURVE",
"129 -188 CURVE",
"171 -338 OFFCURVE",
"286 -419 OFFCURVE",
"511 -419 CURVE SMOOTH"
);
}
);
width = 1282;
}
);
leftKerningGroup = Eng;
rightKerningGroup = Eng;
unicode = 014A;
},
{
glyphname = O;
lastChange = "2020-06-18 18:46:52 +0000";
layers = (
{
anchors = (
{
name = bottom;
position = "{534.585, 0}";
},
{
name = center;
position = "{652, 646}";
},
{
name = ogonek;
position = "{764, 0}";
},
{
name = top;
position = "{880.507, 1291}";
},
{
name = topleft;
position = "{223.507, 1291}";
},
{
name = topright;
position = "{1165, 1173}";
}
);
layerId = "82219AB4-7C60-4B3A-9196-329BE868CB10";
paths = (
{
closed = 1;
nodes = (
"961 -51 OFFCURVE",
"1227 377 OFFCURVE",
"1227 852 CURVE SMOOTH",
"1227 1095 OFFCURVE",
"1141 1320 OFFCURVE",
"864 1320 CURVE SMOOTH",
"409 1320 OFFCURVE",
"144 876 OFFCURVE",
"144 388 CURVE SMOOTH",
"144 132 OFFCURVE",
"253 -51 OFFCURVE",
"529 -51 CURVE SMOOTH"
);
},
{
closed = 1;
nodes = (
"315 27 OFFCURVE",
"231 183 OFFCURVE",
"231 394 CURVE SMOOTH",
"231 834 OFFCURVE",
"452 1239 OFFCURVE",
"856 1239 CURVE SMOOTH",
"1078 1239 OFFCURVE",
"1146 1048 OFFCURVE",
"1146 847 CURVE SMOOTH",
"1146 416 OFFCURVE",
"916 27 OFFCURVE",
"525 27 CURVE SMOOTH"
);
}
);
width = 1354;
},
{
anchors = (
{
name = bottom;
position = "{534.585, 0}";
},
{
name = center;
position = "{661, 646}";
},
{
name = ogonek;
position = "{895, 0}";
},
{
name = top;
position = "{880.507, 1291}";
},
{
name = topleft;
position = "{223.507, 1291}";
},
{
name = topright;
position = "{1198, 1190}";
}
);
layerId = "63DB0068-8B02-4205-807F-6F2453D24B26";
paths = (
{
closed = 1;
nodes = (
"1122 -51 OFFCURVE",
"1352 266 OFFCURVE",
"1352 797 CURVE SMOOTH",
"1352 1107 OFFCURVE",
"1212 1320 OFFCURVE",
"822 1320 CURVE SMOOTH",
"341 1320 OFFCURVE",
"64 991 OFFCURVE",
"64 459 CURVE SMOOTH",
"64 165 OFFCURVE",
"234 -51 OFFCURVE",
"594 -51 CURVE SMOOTH"
);
},
{
closed = 1;
nodes = (
"518 350 OFFCURVE",
"469 469 OFFCURVE",
"469 578 CURVE SMOOTH",
"469 817 OFFCURVE",
"578 995 OFFCURVE",
"799 995 CURVE SMOOTH",
"946 995 OFFCURVE",
"983 874 OFFCURVE",
"983 758 CURVE SMOOTH",
"983 513 OFFCURVE",
"886 350 OFFCURVE",
"659 350 CURVE SMOOTH"
);
}
);
width = 1354;
}
);
leftKerningGroup = O;
rightKerningGroup = O;
unicode = 004F;
},
{
glyphname = Ohorn;
lastChange = "2020-07-16 19:47:21 +0000";
layers = (
{
anchors = (
{
name = bottom;
position = "{535, 0}";
},
{
name = top;
position = "{881, 1291}";
}
);
layerId = "82219AB4-7C60-4B3A-9196-329BE868CB10";
paths = (
{
closed = 1;
nodes = (
"961 -51 OFFCURVE",
"1227 377 OFFCURVE",
"1227 852 CURVE SMOOTH",
"1227 1095 OFFCURVE",
"1141 1320 OFFCURVE",
"864 1320 CURVE SMOOTH",
"409 1320 OFFCURVE",
"144 876 OFFCURVE",
"144 388 CURVE SMOOTH",
"144 132 OFFCURVE",
"253 -51 OFFCURVE",
"529 -51 CURVE SMOOTH"
);
},
{
closed = 1;
nodes = (
"315 27 OFFCURVE",
"231 183 OFFCURVE",
"231 394 CURVE SMOOTH",
"231 834 OFFCURVE",
"452 1239 OFFCURVE",
"856 1239 CURVE SMOOTH",
"1078 1239 OFFCURVE",
"1146 1048 OFFCURVE",
"1146 847 CURVE SMOOTH",
"1146 416 OFFCURVE",
"916 27 OFFCURVE",
"525 27 CURVE SMOOTH"
);
},
{
closed = 1;
nodes = (
"1306 1111 OFFCURVE",
"1456 1210 OFFCURVE",
"1456 1408 CURVE",
"1439 1417 OFFCURVE",
"1393 1424 OFFCURVE",
"1362 1424 CURVE",
"1362 1291 OFFCURVE",
"1276 1173 OFFCURVE",
"1115 1173 CURVE",
"1154 1111 LINE"
);
}
);
width = 1354;
},
{
anchors = (
{
name = bottom;
position = "{535, 0}";
},
{
name = top;
position = "{881, 1291}";
}
);
layerId = "63DB0068-8B02-4205-807F-6F2453D24B26";
paths = (
{
closed = 1;
nodes = (
"1102 -51 OFFCURVE",
"1352 266 OFFCURVE",
"1352 797 CURVE SMOOTH",
"1352 1107 OFFCURVE",
"1242 1320 OFFCURVE",
"852 1320 CURVE SMOOTH",
"371 1320 OFFCURVE",
"64 991 OFFCURVE",
"64 459 CURVE SMOOTH",
"64 165 OFFCURVE",
"214 -51 OFFCURVE",
"574 -51 CURVE SMOOTH"
);
},
{
closed = 1;
nodes = (
"518 350 OFFCURVE",
"469 469 OFFCURVE",
"469 578 CURVE SMOOTH",
"469 817 OFFCURVE",
"578 995 OFFCURVE",
"799 995 CURVE SMOOTH",
"946 995 OFFCURVE",
"983 874 OFFCURVE",
"983 758 CURVE SMOOTH",
"983 513 OFFCURVE",
"886 350 OFFCURVE",
"659 350 CURVE SMOOTH"
);
},
{
closed = 1;
nodes = (
"1427 1043 OFFCURVE",
"1600 1163 OFFCURVE",
"1600 1412 CURVE",
"1575 1440 OFFCURVE",
"1422 1470 OFFCURVE",
"1303 1470 CURVE",
"1303 1312 OFFCURVE",
"1192 1220 OFFCURVE",
"1051 1220 CURVE",
"1245 1043 LINE"
);
}
);
width = 1354;
}
);
leftKerningGroup = O;
rightKerningGroup = O;
unicode = 01A0;
},
{
glyphname = Oogonek;
lastChange = "2020-07-21 16:07:51 +0000";
layers = (
{
components = (
{
name = O;
}
);
layerId = "82219AB4-7C60-4B3A-9196-329BE868CB10";
paths = (
{
closed = 1;
nodes = (
"853 -385 OFFCURVE",
"804 -405 OFFCURVE",
"710 -405 CURVE SMOOTH",
"620 -405 OFFCURVE",
"563 -374 OFFCURVE",
"563 -272 CURVE SMOOTH",
"563 -159 OFFCURVE",
"703 -35 OFFCURVE",
"805 18 CURVE",
"740 63 LINE",
"611 -6 OFFCURVE",
"477 -136 OFFCURVE",
"477 -279 CURVE SMOOTH",
"477 -408 OFFCURVE",
"557 -485 OFFCURVE",
"694 -485 CURVE SMOOTH",
"798 -485 OFFCURVE",
"870 -463 OFFCURVE",
"926 -439 CURVE",
"926 -352 LINE"
);
}
);
width = 1354;
},
{
components = (
{
name = O;
}
);
layerId = "63DB0068-8B02-4205-807F-6F2453D24B26";
paths = (
{
closed = 1;
nodes = (
"962 -279 OFFCURVE",
"917 -288 OFFCURVE",
"874 -288 CURVE SMOOTH",
"821 -288 OFFCURVE",
"767 -264 OFFCURVE",
"767 -192 CURVE SMOOTH",
"767 -112 OFFCURVE",
"842 -28 OFFCURVE",
"887 3 CURVE",
"751 61 LINE",
"686 42 OFFCURVE",
"504 -109 OFFCURVE",
"504 -281 CURVE SMOOTH",
"504 -448 OFFCURVE",
"648 -533 OFFCURVE",
"806 -533 CURVE SMOOTH",
"910 -533 OFFCURVE",
"972 -520 OFFCURVE",
"1001 -508 CURVE",
"1001 -251 LINE"
);
}
);
width = 1354;
}
);
unicode = 01EA;
},
{
glyphname = Oslash;
lastChange = "2020-07-03 19:52:39 +0000";
layers = (
{
anchors = (
{
name = bottom;
position = "{534.585, 0}";
},
{
name = top;
position = "{876, 1320}";
}
);
components = (
{
name = O;
}
);
layerId = "82219AB4-7C60-4B3A-9196-329BE868CB10";
paths = (
{
closed = 1;
nodes = (
"1193 1337 CURVE",
"839 798 OFFCURVE",
"315 278 OFFCURVE",
"-28 -41 CURVE",
"-18 -50 OFFCURVE",
"21 -75 OFFCURVE",
"39 -81 CURVE",
"303 148 OFFCURVE",
"834 672 OFFCURVE",
"1268 1291 CURVE",
"1255 1306 OFFCURVE",
"1222 1330 OFFCURVE"
);
}
);
width = 1354;
},
{
anchors = (
{
name = bottom;
position = "{534.585, 0}";
},
{
name = top;
position = "{803, 1370}";
}
);
components = (
{
name = O;
}
);
layerId = "63DB0068-8B02-4205-807F-6F2453D24B26";
paths = (
{
closed = 1;
nodes = (
"1094 1419 CURVE",
"814 869 OFFCURVE",
"306 350 OFFCURVE",
"-58 30 CURVE",
"-11 -34 OFFCURVE",
"52 -97 OFFCURVE",
"157 -122 CURVE",
"461 143 OFFCURVE",
"975 631 OFFCURVE",
"1346 1301 CURVE",
"1315 1354 OFFCURVE",
"1217 1408 OFFCURVE"
);
}
);
width = 1354;
}
);
leftKerningGroup = O;
rightKerningGroup = O;
unicode = 00D8;
},
{
glyphname = OE;
lastChange = "2020-07-03 19:51:27 +0000";
layers = (
{
anchors = (
{
name = bottom;
position = "{865, 0}";
},
{
name = top;
position = "{1211, 1291}";
}
);
layerId = "82219AB4-7C60-4B3A-9196-329BE868CB10";
paths = (
{
closed = 1;
nodes = (
"742 -51 OFFCURVE",
"971 70 OFFCURVE",
"1046 251 CURVE",
"1028 253 LINE",
"1004 166 OFFCURVE",
"984 79 OFFCURVE",
"964 -8 CURVE",
"1027 -6 OFFCURVE",
"1110 -5 OFFCURVE",
"1173 -5 CURVE SMOOTH",
"1333 -5 OFFCURVE",
"1470 -10 OFFCURVE",
"1625 -19 CURVE",
"1635 -1 OFFCURVE",
"1649 29 OFFCURVE",
"1658 57 CURVE",
"1584 63 OFFCURVE",
"1400 70 OFFCURVE",
"1241 70 CURVE SMOOTH",
"1188 70 OFFCURVE",
"1100 69 OFFCURVE",
"1060 67 CURVE",
"1115 271 OFFCURVE",
"1170 476 OFFCURVE",
"1224 680 CURVE",
"1311 683 OFFCURVE",
"1730 684 OFFCURVE",
"1780 684 CURVE",
"1793 762 LINE",
"1701 762 OFFCURVE",
"1318 750 OFFCURVE",
"1244 747 CURVE",
"1267 832 OFFCURVE",
"1341 1099 OFFCURVE",
"1370 1187 CURVE",
"1974 1234 LINE",
"1984 1261 OFFCURVE",
"1988 1274 OFFCURVE",
"1997 1308 CURVE",
"1942 1308 OFFCURVE",
"1650 1289 OFFCURVE",
"1299 1241 CURVE",
"1285 1202 OFFCURVE",
"1250 1102 OFFCURVE",
"1222 980 CURVE",
"1232 999 LINE",
"1232 1180 OFFCURVE",
"1099 1320 OFFCURVE",
"859 1320 CURVE SMOOTH",
"416 1320 OFFCURVE",
"140 857 OFFCURVE",
"140 376 CURVE SMOOTH",
"140 130 OFFCURVE",
"238 -51 OFFCURVE",
"511 -51 CURVE SMOOTH"
);
},
{
closed = 1;
nodes = (
"303 27 OFFCURVE",
"229 185 OFFCURVE",
"229 392 CURVE SMOOTH",
"229 824 OFFCURVE",
"460 1239 OFFCURVE",
"854 1239 CURVE SMOOTH",
"1079 1239 OFFCURVE",
"1155 1088 OFFCURVE",
"1155 892 CURVE SMOOTH",
"1155 454 OFFCURVE",
"909 27 OFFCURVE",
"513 27 CURVE SMOOTH"
);
}
);
width = 1891;
},
{
anchors = (
{
name = bottom;
position = "{813, 0}";
},
{
name = top;
position = "{1167, 1291}";
}
);
layerId = "63DB0068-8B02-4205-807F-6F2453D24B26";
paths = (
{
closed = 1;
nodes = (
"648 -51 OFFCURVE",
"830 13 OFFCURVE",
"886 71 CURVE",
"859 80 LINE",
"854 59 OFFCURVE",
"847 28 OFFCURVE",
"844 7 CURVE",
"901 7 OFFCURVE",
"1068 4 OFFCURVE",
"1167 -2 CURVE SMOOTH",
"1288 -9 OFFCURVE",
"1491 -21 OFFCURVE",
"1527 -25 CURVE",
"1549 12 OFFCURVE",
"1642 257 OFFCURVE",
"1677 390 CURVE",
"1630 394 OFFCURVE",
"1551 400 OFFCURVE",
"1469 400 CURVE SMOOTH",
"1406 400 OFFCURVE",
"1343 400 OFFCURVE",
"1280 400 CURVE",
"1286 422 OFFCURVE",
"1310 500 OFFCURVE",
"1319 527 CURVE",
"1354 527 OFFCURVE",
"1591 513 OFFCURVE",
"1635 510 CURVE",
"1733 850 LINE",
"1645 848 OFFCURVE",
"1492 845 OFFCURVE",
"1413 845 CURVE",
"1418 864 OFFCURVE",
"1442 951 OFFCURVE",
"1449 968 CURVE",
"1831 999 LINE",
"1871 1113 OFFCURVE",
"1907 1216 OFFCURVE",
"1935 1320 CURVE",
"1882 1320 OFFCURVE",
"1567 1318 OFFCURVE",
"1179 1249 CURVE",
"1170 1230 OFFCURVE",
"1156 1192 OFFCURVE",
"1148 1163 CURVE",
"1162 1163 LINE",
"1162 1250 OFFCURVE",
"1016 1320 OFFCURVE",
"874 1320 CURVE SMOOTH",
"390 1320 OFFCURVE",
"44 922 OFFCURVE",
"44 419 CURVE SMOOTH",
"44 141 OFFCURVE",
"170 -51 OFFCURVE",
"526 -51 CURVE SMOOTH"
);
},
{
closed = 1;
nodes = (
"491 350 OFFCURVE",
"451 411 OFFCURVE",
"451 517 CURVE SMOOTH",
"451 738 OFFCURVE",
"606 995 OFFCURVE",
"811 995 CURVE SMOOTH",
"942 995 OFFCURVE",
"991 921 OFFCURVE",
"991 817 CURVE SMOOTH",
"991 606 OFFCURVE",
"823 350 OFFCURVE",
"621 350 CURVE SMOOTH"
);
}
);
width = 1803;
}
);
leftKerningGroup = O;
leftMetricsKey = O;
rightKerningGroup = E;
rightMetricsKey = E;
unicode = 0152;
},
{
glyphname = P;
lastChange = "2020-06-17 14:59:22 +0000";
layers = (
{
anchors = (
{
name = bottom;
position = "{362.585, 0}";
},
{
name = top;
position = "{708.507, 1291}";
}
);
layerId = "82219AB4-7C60-4B3A-9196-329BE868CB10";
paths = (
{
closed = 1;
nodes = (
"46 -27 OFFCURVE",
"87 -28 OFFCURVE",
"115 -28 CURVE",
"198 246 OFFCURVE",
"299 591 OFFCURVE",
"321 670 CURVE",
"387 662 OFFCURVE",
"461 657 OFFCURVE",
"522 657 CURVE SMOOTH",
"828 657 OFFCURVE",
"1050 762 OFFCURVE",
"1050 1049 CURVE SMOOTH",
"1050 1203 OFFCURVE",
"941 1284 OFFCURVE",
"745 1284 CURVE SMOOTH",
"598 1284 OFFCURVE",
"496 1265 OFFCURVE",
"409 1248 CURVE",
"220 644 OFFCURVE",
"139 370 OFFCURVE",
"27 -26 CURVE"
);
},
{
closed = 1;
nodes = (
"357 788 OFFCURVE",
"472 1169 OFFCURVE",
"476 1193 CURVE",
"585 1207 OFFCURVE",
"679 1213 OFFCURVE",
"745 1213 CURVE SMOOTH",
"885 1213 OFFCURVE",
"967 1164 OFFCURVE",
"967 1033 CURVE SMOOTH",
"967 823 OFFCURVE",
"771 730 OFFCURVE",
"540 730 CURVE SMOOTH",
"463 730 OFFCURVE",
"402 739 OFFCURVE",
"345 750 CURVE"
);
}
);
width = 1010;
},
{
anchors = (
{
name = bottom;
position = "{343, 0}";
},
{
name = top;
position = "{689, 1291}";
}
);
layerId = "63DB0068-8B02-4205-807F-6F2453D24B26";
paths = (
{
closed = 1;
nodes = (
"5 -10 OFFCURVE",
"242 -14 OFFCURVE",
"318 -14 CURVE",
"349 85 OFFCURVE",
"447 421 OFFCURVE",
"465 491 CURVE",
"478 482 OFFCURVE",
"544 474 OFFCURVE",
"574 474 CURVE SMOOTH",
"874 474 OFFCURVE",
"1109 711 OFFCURVE",
"1109 989 CURVE SMOOTH",
"1109 1193 OFFCURVE",
"956 1292 OFFCURVE",
"726 1292 CURVE SMOOTH",
"583 1292 OFFCURVE",
"439 1283 OFFCURVE",
"299 1256 CURVE",
"230 1087 OFFCURVE",
"-74 25 OFFCURVE",
"-81 -4 CURVE"
);
},
{
closed = 1;
nodes = (
"552 849 OFFCURVE",
"586 987 OFFCURVE",
"589 1003 CURVE",
"615 1006 OFFCURVE",
"644 1009 OFFCURVE",
"671 1009 CURVE SMOOTH",
"730 1009 OFFCURVE",
"768 986 OFFCURVE",
"768 919 CURVE SMOOTH",
"768 860 OFFCURVE",
"715 804 OFFCURVE",
"625 804 CURVE SMOOTH",
"595 804 OFFCURVE",
"558 807 OFFCURVE",
"542 811 CURVE"
);
}
);
width = 1010;
}
);
leftKerningGroup = H;
rightKerningGroup = P;
unicode = 0050;
},
{
glyphname = Thorn;
lastChange = "2020-06-17 20:11:47 +0000";
layers = (
{
layerId = "82219AB4-7C60-4B3A-9196-329BE868CB10";
paths = (
{
closed = 1;
nodes = (
"430 1282 OFFCURVE",
"399 1280 OFFCURVE",
"377 1277 CURVE",
"321 990 OFFCURVE",
"115 154 OFFCURVE",
"60 -22 CURVE",
"105 -22 OFFCURVE",
"150 -22 OFFCURVE",
"167 -21 CURVE",
"234 232 OFFCURVE",
"399 990 OFFCURVE",
"453 1282 CURVE"
);
},
{
closed = 1;
nodes = (
"461 931 OFFCURVE",
"582 945 OFFCURVE",
"699 945 CURVE SMOOTH",
"953 945 OFFCURVE",
"1071 857 OFFCURVE",
"1071 714 CURVE SMOOTH",
"1071 439 OFFCURVE",
"830 361 OFFCURVE",
"520 361 CURVE SMOOTH",
"420 361 OFFCURVE",
"314 370 OFFCURVE",
"205 385 CURVE",
"168 299 LINE",
"270 286 OFFCURVE",
"400 278 OFFCURVE",
"509 278 CURVE SMOOTH",
"880 278 OFFCURVE",
"1163 374 OFFCURVE",
"1163 729 CURVE SMOOTH",
"1163 937 OFFCURVE",
"992 1029 OFFCURVE",
"755 1029 CURVE SMOOTH",
"626 1029 OFFCURVE",
"509 1015 OFFCURVE",
"382 995 CURVE",
"358 906 LINE"
);
}
);
width = 1316;
},
{
layerId = "63DB0068-8B02-4205-807F-6F2453D24B26";
paths = (
{
closed = 1;
nodes = (
"442 1282 OFFCURVE",
"288 1265 OFFCURVE",
"267 1262 CURVE",
"220 1017 OFFCURVE",
"11 191 OFFCURVE",
"-46 -22 CURVE",
"81 -22 OFFCURVE",
"283 -12 OFFCURVE",
"389 7 CURVE",
"450 234 OFFCURVE",
"605 1046 OFFCURVE",
"634 1282 CURVE"
);
},
{
closed = 1;
nodes = (
"539 755 OFFCURVE",
"649 791 OFFCURVE",
"777 791 CURVE SMOOTH",
"878 791 OFFCURVE",
"942 762 OFFCURVE",
"942 697 CURVE SMOOTH",
"942 573 OFFCURVE",
"798 547 OFFCURVE",
"659 547 CURVE SMOOTH",
"577 547 OFFCURVE",
"498 555 OFFCURVE",
"451 561 CURVE",
"342 209 LINE",
"414 199 OFFCURVE",
"519 194 OFFCURVE",
"596 194 CURVE SMOOTH",
"1004 194 OFFCURVE",
"1318 365 OFFCURVE",
"1318 755 CURVE SMOOTH",
"1318 1014 OFFCURVE",
"1104 1129 OFFCURVE",
"826 1129 CURVE SMOOTH",
"709 1129 OFFCURVE",
"593 1103 OFFCURVE",
"522 1083 CURVE",
"469 727 LINE"
);
}
);
width = 1316;
}
);
leftKerningGroup = H;
rightKerningGroup = Thorn;
unicode = 00DE;
},
{
glyphname = Q;
lastChange = "2020-06-10 19:29:54 +0000";
layers = (
{
anchors = (
{
name = bottom;
position = "{503.585, 0}";
},
{
name = top;
position = "{849.507, 1291}";
}
);
layerId = "82219AB4-7C60-4B3A-9196-329BE868CB10";
paths = (
{
closed = 1;
nodes = (
"1044 -5 OFFCURVE",
"1067 37 OFFCURVE",
"1081 63 CURVE",
"1005 83 OFFCURVE",
"935 113 OFFCURVE",
"892 160 CURVE",
"1096 315 OFFCURVE",
"1177 611 OFFCURVE",
"1177 888 CURVE SMOOTH",
"1177 1139 OFFCURVE",
"1083 1299 OFFCURVE",
"823 1299 CURVE SMOOTH",
"439 1299 OFFCURVE",
"187 833 OFFCURVE",
"187 397 CURVE SMOOTH",
"187 176 OFFCURVE",
"270 8 OFFCURVE",
"508 8 CURVE SMOOTH",
"693 8 OFFCURVE",
"785 84 OFFCURVE",
"817 113 CURVE",
"847 82 OFFCURVE",
"972 -11 OFFCURVE",
"1024 -31 CURVE"
);
},
{
closed = 1;
nodes = (
"743 144 OFFCURVE",
"664 80 OFFCURVE",
"536 80 CURVE SMOOTH",
"336 80 OFFCURVE",
"276 202 OFFCURVE",
"276 381 CURVE SMOOTH",
"276 778 OFFCURVE",
"474 1226 OFFCURVE",
"816 1226 CURVE SMOOTH",
"1025 1226 OFFCURVE",
"1098 1086 OFFCURVE",
"1098 883 CURVE SMOOTH",
"1098 632 OFFCURVE",
"1022 364 OFFCURVE",
"839 208 CURVE",
"768 292 OFFCURVE",
"726 430 OFFCURVE",
"706 518 CURVE",
"691 509 OFFCURVE",
"646 477 OFFCURVE",
"632 465 CURVE",
"657 363 OFFCURVE",
"712 236 OFFCURVE",
"772 169 CURVE"
);
}
);
width = 1291;
},
{
anchors = (
{
name = bottom;
position = "{503.585, 0}";
},
{
name = top;
position = "{849.507, 1291}";
}
);
layerId = "63DB0068-8B02-4205-807F-6F2453D24B26";
paths = (
{
closed = 1;
nodes = (
"989 -137 OFFCURVE",
"1098 -58 OFFCURVE",
"1167 14 CURVE",
"1106 50 OFFCURVE",
"1034 107 OFFCURVE",
"1001 174 CURVE",
"1208 303 OFFCURVE",
"1324 585 OFFCURVE",
"1324 848 CURVE SMOOTH",
"1324 1108 OFFCURVE",
"1183 1299 OFFCURVE",
"839 1299 CURVE SMOOTH",
"390 1299 OFFCURVE",
"50 910 OFFCURVE",
"50 456 CURVE SMOOTH",
"50 182 OFFCURVE",
"203 -21 OFFCURVE",
"497 -21 CURVE SMOOTH",
"587 -21 OFFCURVE",
"690 8 OFFCURVE",
"729 29 CURVE",
"745 -18 OFFCURVE",
"847 -158 OFFCURVE",
"904 -187 CURVE"
);
},
{
closed = 1;
nodes = (
"616 326 OFFCURVE",
"605 323 OFFCURVE",
"577 323 CURVE SMOOTH",
"473 323 OFFCURVE",
"439 419 OFFCURVE",
"439 530 CURVE SMOOTH",
"439 785 OFFCURVE",
"574 986 OFFCURVE",
"811 986 CURVE SMOOTH",
"932 986 OFFCURVE",
"976 922 OFFCURVE",
"976 805 CURVE SMOOTH",
"976 710 OFFCURVE",
"939 500 OFFCURVE",
"879 433 CURVE",
"861 475 OFFCURVE",
"852 548 OFFCURVE",
"848 598 CURVE",
"768 558 OFFCURVE",
"640 489 OFFCURVE",
"587 454 CURVE",
"587 419 OFFCURVE",
"612 342 OFFCURVE",
"621 328 CURVE"
);
}
);
width = 1291;
}
);
leftKerningGroup = O;
rightKerningGroup = O;
unicode = 0051;
},
{
glyphname = Q.ss01;
lastChange = "2020-07-08 20:46:28 +0000";
layers = (
{
anchors = (
{
name = bottom;
position = "{503.585, 0}";
},
{
name = top;
position = "{849.507, 1291}";
}
);
layerId = "82219AB4-7C60-4B3A-9196-329BE868CB10";
paths = (
{
closed = 1;
nodes = (
"980 -159 OFFCURVE",
"1034 -103 OFFCURVE",
"1046 -89 CURVE",
"970 -44 OFFCURVE",
"889 76 OFFCURVE",
"860 144 CURVE",
"1049 295 OFFCURVE",
"1178 615 OFFCURVE",
"1178 870 CURVE SMOOTH",
"1178 1110 OFFCURVE",
"1064 1299 OFFCURVE",
"820 1299 CURVE SMOOTH",
"457 1299 OFFCURVE",
"163 812 OFFCURVE",
"163 401 CURVE SMOOTH",
"163 176 OFFCURVE",
"261 -10 OFFCURVE",
"484 -10 CURVE SMOOTH",
"586 -10 OFFCURVE",
"696 16 OFFCURVE",
"788 90 CURVE",
"822 -20 OFFCURVE",
"897 -118 OFFCURVE",
"957 -169 CURVE"
);
},
{
closed = 1;
nodes = (
"331 74 OFFCURVE",
"251 229 OFFCURVE",
"251 417 CURVE SMOOTH",
"251 769 OFFCURVE",
"498 1210 OFFCURVE",
"809 1210 CURVE SMOOTH",
"1033 1210 OFFCURVE",
"1093 1024 OFFCURVE",
"1093 856 CURVE SMOOTH",
"1093 500 OFFCURVE",
"825 74 OFFCURVE",
"517 74 CURVE SMOOTH"
);
}
);
width = 1291;
},
{
anchors = (
{
name = bottom;
position = "{503.585, 0}";
},
{
name = top;
position = "{849.507, 1291}";
}
);
layerId = "63DB0068-8B02-4205-807F-6F2453D24B26";
paths = (
{
closed = 1;
nodes = (
"1083 -202 OFFCURVE",
"1178 -16 OFFCURVE",
"1188 11 CURVE",
"1162 13 OFFCURVE",
"1063 74 OFFCURVE",
"1029 173 CURVE",
"1239 298 OFFCURVE",
"1305 573 OFFCURVE",
"1305 829 CURVE SMOOTH",
"1305 1096 OFFCURVE",
"1150 1282 OFFCURVE",
"807 1282 CURVE SMOOTH",
"334 1282 OFFCURVE",
"45 920 OFFCURVE",
"45 468 CURVE SMOOTH",
"45 154 OFFCURVE",
"191 -26 OFFCURVE",
"549 -26 CURVE SMOOTH",
"599 -26 OFFCURVE",
"660 -8 OFFCURVE",
"694 3 CURVE",
"694 -91 OFFCURVE",
"768 -279 OFFCURVE",
"934 -335 CURVE"
);
},
{
closed = 1;
nodes = (
"490 338 OFFCURVE",
"403 413 OFFCURVE",
"403 548 CURVE SMOOTH",
"403 757 OFFCURVE",
"548 969 OFFCURVE",
"782 969 CURVE SMOOTH",
"910 969 OFFCURVE",
"958 862 OFFCURVE",
"958 731 CURVE SMOOTH",
"958 515 OFFCURVE",
"839 338 OFFCURVE",
"610 338 CURVE SMOOTH"
);
}
);
width = 1291;
}
);
leftKerningGroup = Q.ss01;
rightKerningGroup = Q.ss01;
},
{
glyphname = R;
lastChange = "2020-06-17 15:01:48 +0000";
layers = (
{
anchors = (
{
name = bottom;
position = "{404.585, 0}";
},
{
name = top;
position = "{686, 1321}";
}
);
layerId = "82219AB4-7C60-4B3A-9196-329BE868CB10";
paths = (
{
closed = 1;
nodes = (
"115 -29 OFFCURVE",
"166 -27 OFFCURVE",
"186 -24 CURVE",
"218 149 OFFCURVE",
"308 586 OFFCURVE",
"316 622 CURVE",
"362 622 OFFCURVE",
"530 636 OFFCURVE",
"645 666 CURVE",
"695 522 OFFCURVE",
"712 240 OFFCURVE",
"712 -15 CURVE",
"732 -14 OFFCURVE",
"776 7 OFFCURVE",
"799 22 CURVE",
"799 185 OFFCURVE",
"784 543 OFFCURVE",
"721 693 CURVE",
"906 751 OFFCURVE",
"1015 864 OFFCURVE",
"1015 1064 CURVE SMOOTH",
"1015 1240 OFFCURVE",
"918 1321 OFFCURVE",
"736 1321 CURVE SMOOTH",
"621 1321 OFFCURVE",
"441 1310 OFFCURVE",
"364 1303 CURVE",
"272 842 OFFCURVE",
"168 321 OFFCURVE",
"83 -29 CURVE"
);
},
{
closed = 1;
nodes = (
"345 748 OFFCURVE",
"425 1177 OFFCURVE",
"435 1236 CURVE",
"464 1239 OFFCURVE",
"654 1253 OFFCURVE",
"697 1253 CURVE SMOOTH",
"830 1253 OFFCURVE",
"932 1213 OFFCURVE",
"932 1061 CURVE SMOOTH",
"932 843 OFFCURVE",
"814 784 OFFCURVE",
"575 730 CURVE SMOOTH",
"482 709 OFFCURVE",
"411 700 OFFCURVE",
"336 700 CURVE"
);
}
);
width = 1094;
},
{
anchors = (
{
name = bottom;
position = "{404.585, 0}";
},
{
name = top;
position = "{702, 1331}";
}
);
layerId = "63DB0068-8B02-4205-807F-6F2453D24B26";
paths = (
{
closed = 1;
nodes = (
"82 -24 OFFCURVE",
"260 -20 OFFCURVE",
"365 2 CURVE",
"400 130 OFFCURVE",
"466 469 OFFCURVE",
"477 561 CURVE",
"504 562 OFFCURVE",
"516 564 OFFCURVE",
"544 569 CURVE",
"553 495 OFFCURVE",
"555 129 OFFCURVE",
"555 -21 CURVE",
"586 -19 OFFCURVE",
"821 26 OFFCURVE",
"963 89 CURVE",
"956 154 OFFCURVE",
"899 551 OFFCURVE",
"880 653 CURVE",
"1048 733 OFFCURVE",
"1162 845 OFFCURVE",
"1162 1026 CURVE SMOOTH",
"1162 1263 OFFCURVE",
"972 1331 OFFCURVE",
"716 1331 CURVE SMOOTH",
"566 1331 OFFCURVE",
"367 1321 OFFCURVE",
"238 1303 CURVE",
"143 852 OFFCURVE",
"25 297 OFFCURVE",
"-51 -24 CURVE"
);
},
{
closed = 1;
nodes = (
"528 903 OFFCURVE",
"539 981 OFFCURVE",
"547 1038 CURVE",
"570 1041 OFFCURVE",
"621 1047 OFFCURVE",
"664 1047 CURVE SMOOTH",
"768 1047 OFFCURVE",
"807 1028 OFFCURVE",
"807 964 CURVE SMOOTH",
"807 896 OFFCURVE",
"715 869 OFFCURVE",
"634 862 CURVE SMOOTH",
"581 857 OFFCURVE",
"550 855 OFFCURVE",
"520 855 CURVE"
);
}
);
width = 1094;
}
);
leftKerningGroup = H;
rightKerningGroup = R;
unicode = 0052;
},
{
glyphname = S;
lastChange = "2020-06-17 15:02:38 +0000";
layers = (
{
anchors = (
{
name = bottom;
position = "{480, 0}";
},
{
name = top;
position = "{738, 1317}";
}
);
layerId = "82219AB4-7C60-4B3A-9196-329BE868CB10";
paths = (
{
closed = 1;
nodes = (
"755 -9 OFFCURVE",
"1024 149 OFFCURVE",
"1024 451 CURVE SMOOTH",
"1024 673 OFFCURVE",
"818 732 OFFCURVE",
"615 788 CURVE SMOOTH",
"506 818 OFFCURVE",
"379 862 OFFCURVE",
"379 1006 CURVE SMOOTH",
"379 1184 OFFCURVE",
"540 1275 OFFCURVE",
"726 1275 CURVE SMOOTH",
"979 1275 OFFCURVE",
"1080 1145 OFFCURVE",
"1099 1103 CURVE",
"1113 1113 OFFCURVE",
"1147 1154 OFFCURVE",
"1157 1171 CURVE",
"1146 1215 OFFCURVE",
"982 1349 OFFCURVE",
"750 1349 CURVE SMOOTH",
"504 1349 OFFCURVE",
"294 1234 OFFCURVE",
"294 991 CURVE SMOOTH",
"294 830 OFFCURVE",
"422 754 OFFCURVE",
"597 711 CURVE SMOOTH",
"780 666 OFFCURVE",
"937 608 OFFCURVE",
"937 440 CURVE SMOOTH",
"937 191 OFFCURVE",
"711 72 OFFCURVE",
"481 72 CURVE SMOOTH",
"221 72 OFFCURVE",
"112 321 OFFCURVE",
"98 376 CURVE",
"75 363 OFFCURVE",
"43 335 OFFCURVE",
"24 318 CURVE",
"39 227 OFFCURVE",
"182 -9 OFFCURVE",
"480 -9 CURVE SMOOTH"
);
}
);
width = 1152;
},
{
anchors = (
{
name = bottom;
position = "{463, 0}";
},
{
name = top;
position = "{730, 1339}";
}
);
layerId = "63DB0068-8B02-4205-807F-6F2453D24B26";
paths = (
{
closed = 1;
nodes = (
"784 -18 OFFCURVE",
"1073 155 OFFCURVE",
"1073 472 CURVE SMOOTH",
"1073 690 OFFCURVE",
"920 795 OFFCURVE",
"682 891 CURVE SMOOTH",
"617 917 OFFCURVE",
"594 945 OFFCURVE",
"594 974 CURVE SMOOTH",
"594 1033 OFFCURVE",
"661 1056 OFFCURVE",
"724 1056 CURVE SMOOTH",
"786 1056 OFFCURVE",
"879 1017 OFFCURVE",
"951 928 CURVE",
"1032 976 OFFCURVE",
"1144 1085 OFFCURVE",
"1220 1181 CURVE",
"1102 1333 OFFCURVE",
"902 1349 OFFCURVE",
"733 1349 CURVE SMOOTH",
"447 1349 OFFCURVE",
"200 1197 OFFCURVE",
"200 916 CURVE SMOOTH",
"200 727 OFFCURVE",
"343 641 OFFCURVE",
"539 547 CURVE SMOOTH",
"665 486 OFFCURVE",
"677 429 OFFCURVE",
"677 385 CURVE SMOOTH",
"677 332 OFFCURVE",
"618 287 OFFCURVE",
"542 287 CURVE SMOOTH",
"434 287 OFFCURVE",
"363 347 OFFCURVE",
"287 460 CURVE",
"208 426 OFFCURVE",
"-10 231 OFFCURVE",
"-36 200 CURVE",
"75 13 OFFCURVE",
"296 -18 OFFCURVE",
"463 -18 CURVE SMOOTH"
);
}
);
width = 1152;
}
);
leftKerningGroup = S;
rightKerningGroup = S;
unicode = 0053;
},
{
glyphname = Scedilla;
lastChange = "2020-07-08 20:02:59 +0000";
layers = (
{
components = (
{
name = S;
}
);
layerId = "82219AB4-7C60-4B3A-9196-329BE868CB10";
paths = (
{
closed = 1;
nodes = (
"628 -462 OFFCURVE",
"781 -400 OFFCURVE",
"781 -227 CURVE SMOOTH",
"781 -134 OFFCURVE",
"716 -87 OFFCURVE",
"620 -87 CURVE SMOOTH",
"572 -87 OFFCURVE",
"507 -106 OFFCURVE",
"488 -119 CURVE",
"529 39 LINE",
"457 43 LINE",
"390 -212 LINE",
"433 -194 OFFCURVE",
"535 -159 OFFCURVE",
"593 -159 CURVE SMOOTH",
"665 -159 OFFCURVE",
"691 -189 OFFCURVE",
"691 -242 CURVE SMOOTH",
"691 -362 OFFCURVE",
"581 -392 OFFCURVE",
"435 -392 CURVE SMOOTH",
"384 -392 OFFCURVE",
"310 -374 OFFCURVE",
"272 -364 CURVE",
"245 -437 LINE",
"264 -444 OFFCURVE",
"327 -462 OFFCURVE",
"431 -462 CURVE SMOOTH"
);
}
);
width = 1152;
},
{
components = (
{
name = S;
}
);
layerId = "63DB0068-8B02-4205-807F-6F2453D24B26";
paths = (
{
closed = 1;
nodes = (
"581 -537 OFFCURVE",
"834 -453 OFFCURVE",
"834 -231 CURVE SMOOTH",
"834 -124 OFFCURVE",
"770 -77 OFFCURVE",
"674 -77 CURVE SMOOTH",
"604 -77 OFFCURVE",
"545 -105 OFFCURVE",
"517 -139 CURVE",
"562 39 LINE",
"342 27 LINE",
"251 -257 LINE",
"288 -244 OFFCURVE",
"372 -229 OFFCURVE",
"449 -229 CURVE SMOOTH",
"514 -229 OFFCURVE",
"565 -239 OFFCURVE",
"565 -272 CURVE SMOOTH",
"565 -315 OFFCURVE",
"496 -337 OFFCURVE",
"374 -337 CURVE SMOOTH",
"341 -337 OFFCURVE",
"259 -325 OFFCURVE",
"231 -312 CURVE",
"142 -515 LINE",
"162 -520 OFFCURVE",
"242 -537 OFFCURVE",
"347 -537 CURVE SMOOTH"
);
}
);
width = 1152;
}
);
unicode = 015E;
},
{
glyphname = Germandbls;
lastChange = "2020-06-17 20:15:13 +0000";
layers = (
{
layerId = "82219AB4-7C60-4B3A-9196-329BE868CB10";
paths = (
{
closed = 1;
nodes = (
"34 2 OFFCURVE",
"82 7 OFFCURVE",
"93 9 CURVE",
"111 103 OFFCURVE",
"254 672 OFFCURVE",
"324 933 CURVE SMOOTH",
"379 1138 OFFCURVE",
"414 1260 OFFCURVE",
"610 1260 CURVE SMOOTH",
"773 1260 OFFCURVE",
"1042 1239 OFFCURVE",
"1100 1229 CURVE",
"991 1166 OFFCURVE",
"648 937 OFFCURVE",
"507 817 CURVE",
"507 778 OFFCURVE",
"510 740 OFFCURVE",
"521 701 CURVE",
"587 714 OFFCURVE",
"645 721 OFFCURVE",
"694 721 CURVE SMOOTH",
"845 721 OFFCURVE",
"947 655 OFFCURVE",
"947 508 CURVE SMOOTH",
"947 284 OFFCURVE",
"746 50 OFFCURVE",
"526 50 CURVE SMOOTH",
"430 50 OFFCURVE",
"356 85 OFFCURVE",
"316 145 CURVE",
"289 126 OFFCURVE",
"254 101 OFFCURVE",
"235 80 CURVE",
"267 27 OFFCURVE",
"397 -17 OFFCURVE",
"498 -17 CURVE SMOOTH",
"788 -17 OFFCURVE",
"1039 222 OFFCURVE",
"1039 506 CURVE SMOOTH",
"1039 675 OFFCURVE",
"925 797 OFFCURVE",
"738 797 CURVE SMOOTH",
"680 797 OFFCURVE",
"621 790 OFFCURVE",
"588 785 CURVE",
"664 851 OFFCURVE",
"1144 1185 OFFCURVE",
"1192 1215 CURVE",
"1197 1237 OFFCURVE",
"1200 1268 OFFCURVE",
"1200 1289 CURVE",
"1102 1313 OFFCURVE",
"766 1332 OFFCURVE",
"644 1332 CURVE SMOOTH",
"504 1332 OFFCURVE",
"348 1308 OFFCURVE",
"278 1046 CURVE SMOOTH",
"210 792 OFFCURVE",
"55 208 OFFCURVE",
"14 2 CURVE"
);
}
);
width = 1197;
},
{
layerId = "63DB0068-8B02-4205-807F-6F2453D24B26";
paths = (
{
closed = 1;
nodes = (
"-14 -9 OFFCURVE",
"173 1 OFFCURVE",
"252 9 CURVE",
"278 137 OFFCURVE",
"411 637 OFFCURVE",
"468 850 CURVE SMOOTH",
"514 1022 OFFCURVE",
"583 1075 OFFCURVE",
"692 1075 CURVE SMOOTH",
"754 1075 OFFCURVE",
"792 1070 OFFCURVE",
"833 1060 CURVE",
"736 1006 OFFCURVE",
"597 916 OFFCURVE",
"504 838 CURVE",
"504 700 OFFCURVE",
"521 563 OFFCURVE",
"530 524 CURVE",
"591 548 OFFCURVE",
"692 571 OFFCURVE",
"759 571 CURVE SMOOTH",
"814 571 OFFCURVE",
"845 533 OFFCURVE",
"845 473 CURVE SMOOTH",
"845 352 OFFCURVE",
"763 260 OFFCURVE",
"639 260 CURVE SMOOTH",
"543 260 OFFCURVE",
"518 292 OFFCURVE",
"492 335 CURVE",
"464 316 OFFCURVE",
"302 133 OFFCURVE",
"283 109 CURVE",
"332 19 OFFCURVE",
"454 -17 OFFCURVE",
"555 -17 CURVE SMOOTH",
"924 -17 OFFCURVE",
"1176 173 OFFCURVE",
"1176 550 CURVE SMOOTH",
"1176 722 OFFCURVE",
"1096 800 OFFCURVE",
"969 800 CURVE SMOOTH",
"911 800 OFFCURVE",
"858 789 OFFCURVE",
"810 762 CURVE",
"876 791 OFFCURVE",
"1280 1038 OFFCURVE",
"1297 1055 CURVE",
"1302 1077 OFFCURVE",
"1342 1253 OFFCURVE",
"1342 1289 CURVE",
"1292 1299 OFFCURVE",
"823 1332 OFFCURVE",
"701 1332 CURVE SMOOTH",
"257 1332 OFFCURVE",
"165 1061 OFFCURVE",
"44 610 CURVE SMOOTH",
"-26 349 OFFCURVE",
"-73 136 OFFCURVE",
"-89 -9 CURVE"
);
}
);
width = 1197;
}
);
leftKerningGroup = H;
rightKerningGroup = B;
unicode = 1E9E;
},
{
glyphname = Schwa;
lastChange = "2020-06-17 20:23:41 +0000";
layers = (
{
layerId = "82219AB4-7C60-4B3A-9196-329BE868CB10";
paths = (
{
closed = 1;
nodes = (
"269 987 OFFCURVE",
"319 950 OFFCURVE",
"328 944 CURVE",
"343 962 OFFCURVE",
"576 1241 OFFCURVE",
"899 1241 CURVE SMOOTH",
"1125 1241 OFFCURVE",
"1250 1091 OFFCURVE",
"1250 881 CURVE SMOOTH",
"1250 830 OFFCURVE",
"1244 774 OFFCURVE",
"1229 712 CURVE",
"1039 705 OFFCURVE",
"829 696 OFFCURVE",
"629 687 CURVE SMOOTH",
"444 679 OFFCURVE",
"242 673 OFFCURVE",
"218 673 CURVE",
"194 582 OFFCURVE",
"177 485 OFFCURVE",
"177 395 CURVE SMOOTH",
"177 143 OFFCURVE",
"310 -23 OFFCURVE",
"571 -23 CURVE SMOOTH",
"1019 -23 OFFCURVE",
"1337 424 OFFCURVE",
"1337 890 CURVE SMOOTH",
"1337 1151 OFFCURVE",
"1200 1316 OFFCURVE",
"906 1316 CURVE SMOOTH",
"563 1316 OFFCURVE",
"330 1076 OFFCURVE",
"262 999 CURVE"
);
},
{
closed = 1;
nodes = (
"1110 281 OFFCURVE",
"856 57 OFFCURVE",
"574 57 CURVE SMOOTH",
"343 57 OFFCURVE",
"271 218 OFFCURVE",
"271 396 CURVE SMOOTH",
"271 448 OFFCURVE",
"282 541 OFFCURVE",
"295 586 CURVE",
"328 589 OFFCURVE",
"427 596 OFFCURVE",
"571 603 CURVE SMOOTH",
"804 614 OFFCURVE",
"1053 623 OFFCURVE",
"1211 628 CURVE"
);
}
);
width = 1447;
},
{
layerId = "63DB0068-8B02-4205-807F-6F2453D24B26";
paths = (
{
closed = 1;
nodes = (
"235 1043 OFFCURVE",
"369 915 OFFCURVE",
"386 899 CURVE",
"523 991 OFFCURVE",
"668 1009 OFFCURVE",
"731 1009 CURVE SMOOTH",
"879 1009 OFFCURVE",
"961 927 OFFCURVE",
"961 783 CURVE SMOOTH",
"961 762 OFFCURVE",
"958 741 OFFCURVE",
"952 720 CURVE",
"889 714 OFFCURVE",
"667 700 OFFCURVE",
"536 692 CURVE SMOOTH",
"420 685 OFFCURVE",
"132 665 OFFCURVE",
"89 662 CURVE",
"49 575 OFFCURVE",
"22 465 OFFCURVE",
"22 373 CURVE SMOOTH",
"22 108 OFFCURVE",
"229 -26 OFFCURVE",
"477 -26 CURVE SMOOTH",
"960 -26 OFFCURVE",
"1308 360 OFFCURVE",
"1308 846 CURVE SMOOTH",
"1308 1169 OFFCURVE",
"1077 1329 OFFCURVE",
"819 1329 CURVE SMOOTH",
"595 1329 OFFCURVE",
"349 1248 OFFCURVE",
"195 1120 CURVE"
);
},
{
closed = 1;
nodes = (
"832 355 OFFCURVE",
"670 278 OFFCURVE",
"546 278 CURVE SMOOTH",
"456 278 OFFCURVE",
"404 330 OFFCURVE",
"404 396 CURVE SMOOTH",
"404 405 OFFCURVE",
"405 415 OFFCURVE",
"407 424 CURVE",
"426 424 OFFCURVE",
"537 431 OFFCURVE",
"595 435 CURVE SMOOTH",
"700 442 OFFCURVE",
"815 456 OFFCURVE",
"863 462 CURVE"
);
}
);
width = 1280;
}
);
leftKerningGroup = O;
leftMetricsKey = O;
rightKerningGroup = O;
rightMetricsKey = O;
unicode = 018F;
},
{
glyphname = T;
lastChange = "2020-06-17 15:04:16 +0000";
layers = (
{
anchors = (
{
name = bottom;
position = "{407, 0}";
},
{
name = center;
position = "{550.68, 646}";
},
{
name = top;
position = "{723.507, 1291}";
}
);
layerId = "82219AB4-7C60-4B3A-9196-329BE868CB10";
paths = (
{
closed = 1;
nodes = (
"324 1248 OFFCURVE",
"560 1256 OFFCURVE",
"678 1258 CURVE",
"669 1223 OFFCURVE",
"656 1175 OFFCURVE",
"641 1118 CURVE SMOOTH",
"555 798 OFFCURVE",
"402 189 OFFCURVE",
"357 -14 CURVE",
"375 -14 OFFCURVE",
"432 -12 OFFCURVE",
"450 -9 CURVE",
"471 83 OFFCURVE",
"718 1084 OFFCURVE",
"762 1256 CURVE",
"896 1256 OFFCURVE",
"1133 1252 OFFCURVE",
"1194 1249 CURVE",
"1201 1273 OFFCURVE",
"1209 1306 OFFCURVE",
"1210 1325 CURVE",
"1102 1338 OFFCURVE",
"965 1342 OFFCURVE",
"822 1342 CURVE SMOOTH",
"618 1342 OFFCURVE",
"402 1333 OFFCURVE",
"246 1326 CURVE",
"239 1299 OFFCURVE",
"234 1267 OFFCURVE",
"231 1243 CURVE"
);
}
);
width = 1039;
},
{
anchors = (
{
name = bottom;
position = "{393, 0}";
},
{
name = center;
position = "{551, 646}";
},
{
name = top;
position = "{723.507, 1291}";
}
);
layerId = "63DB0068-8B02-4205-807F-6F2453D24B26";
paths = (
{
closed = 1;
nodes = (
"277 968 OFFCURVE",
"369 971 OFFCURVE",
"455 978 CURVE",
"442 933 OFFCURVE",
"426 877 OFFCURVE",
"409 814 CURVE SMOOTH",
"339 554 OFFCURVE",
"248 179 OFFCURVE",
"206 -14 CURVE",
"305 -14 OFFCURVE",
"524 -2 OFFCURVE",
"630 14 CURVE",
"637 52 OFFCURVE",
"800 814 OFFCURVE",
"838 986 CURVE",
"904 983 OFFCURVE",
"1036 983 OFFCURVE",
"1083 983 CURVE",
"1113 1039 OFFCURVE",
"1159 1167 OFFCURVE",
"1197 1308 CURVE",
"1084 1325 OFFCURVE",
"938 1331 OFFCURVE",
"789 1331 CURVE SMOOTH",
"596 1331 OFFCURVE",
"397 1321 OFFCURVE",
"245 1309 CURVE",
"235 1272 OFFCURVE",
"182 1038 OFFCURVE",
"178 968 CURVE"
);
}
);
width = 1039;
}
);
leftKerningGroup = T;
rightKerningGroup = T;
unicode = 0054;
},
{
glyphname = Tbar;
lastChange = "2020-07-16 19:59:59 +0000";
layers = (
{
components = (
{
name = T;
}
);
layerId = "82219AB4-7C60-4B3A-9196-329BE868CB10";
paths = (
{
closed = 1;
nodes = (
"931 656 OFFCURVE",
"939 692 OFFCURVE",
"939 701 CURVE",
"778 701 OFFCURVE",
"315 684 OFFCURVE",
"237 674 CURVE",
"228 662 OFFCURVE",
"216 628 OFFCURVE",
"212 610 CURVE",
"406 616 OFFCURVE",
"732 625 OFFCURVE",
"923 625 CURVE"
);
}
);
width = 1039;
},
{
components = (
{
name = T;
}
);
layerId = "63DB0068-8B02-4205-807F-6F2453D24B26";
paths = (
{
closed = 1;
nodes = (
"932 622 OFFCURVE",
"958 762 OFFCURVE",
"965 801 CURVE",
"832 801 OFFCURVE",
"333 791 OFFCURVE",
"205 741 CURVE",
"186 667 OFFCURVE",
"170 577 OFFCURVE",
"157 490 CURVE",
"368 507 OFFCURVE",
"790 514 OFFCURVE",
"905 514 CURVE"
);
}
);
width = 1039;
}
);
leftKerningGroup = T;
rightKerningGroup = T;
unicode = 0166;
},
{
glyphname = Tcedilla;
lastChange = "2020-07-08 20:02:50 +0000";
layers = (
{
components = (
{
name = T;
}
);
layerId = "82219AB4-7C60-4B3A-9196-329BE868CB10";
paths = (
{
closed = 1;
nodes = (
"548 -462 OFFCURVE",
"701 -400 OFFCURVE",
"701 -227 CURVE SMOOTH",
"701 -134 OFFCURVE",
"636 -87 OFFCURVE",
"540 -87 CURVE SMOOTH",
"492 -87 OFFCURVE",
"427 -106 OFFCURVE",
"408 -119 CURVE",
"450 -9 LINE",
"357 -14 LINE",
"310 -212 LINE",
"353 -194 OFFCURVE",
"455 -159 OFFCURVE",
"513 -159 CURVE SMOOTH",
"585 -159 OFFCURVE",
"611 -189 OFFCURVE",
"611 -242 CURVE SMOOTH",
"611 -362 OFFCURVE",
"501 -392 OFFCURVE",
"355 -392 CURVE SMOOTH",
"304 -392 OFFCURVE",
"230 -374 OFFCURVE",
"192 -364 CURVE",
"165 -437 LINE",
"184 -444 OFFCURVE",
"247 -462 OFFCURVE",
"351 -462 CURVE SMOOTH"
);
}
);
width = 1039;
},
{
components = (
{
name = T;
}
);
layerId = "63DB0068-8B02-4205-807F-6F2453D24B26";
paths = (
{
closed = 1;
nodes = (
"541 -537 OFFCURVE",
"794 -453 OFFCURVE",
"794 -231 CURVE SMOOTH",
"794 -124 OFFCURVE",
"730 -77 OFFCURVE",
"634 -77 CURVE SMOOTH",
"564 -77 OFFCURVE",
"505 -105 OFFCURVE",
"477 -139 CURVE",
"522 39 LINE",
"302 27 LINE",
"211 -257 LINE",
"248 -244 OFFCURVE",
"332 -229 OFFCURVE",
"409 -229 CURVE SMOOTH",
"474 -229 OFFCURVE",
"525 -239 OFFCURVE",
"525 -272 CURVE SMOOTH",
"525 -315 OFFCURVE",
"456 -337 OFFCURVE",
"334 -337 CURVE SMOOTH",
"301 -337 OFFCURVE",
"219 -325 OFFCURVE",
"191 -312 CURVE",
"102 -515 LINE",
"122 -520 OFFCURVE",
"202 -537 OFFCURVE",
"307 -537 CURVE SMOOTH"
);
}
);
width = 1039;
}
);
leftKerningGroup = T;
rightKerningGroup = T;
unicode = 0162;
},
{
glyphname = U;
lastChange = "2020-06-18 18:47:11 +0000";
layers = (
{
anchors = (
{
name = bottom;
position = "{463.585, 0}";
},
{
name = ogonek;
position = "{682, 0}";
},
{
name = top;
position = "{842, 1325}";
},
{
name = topright;
position = "{1206, 1174}";
}
);
layerId = "82219AB4-7C60-4B3A-9196-329BE868CB10";
paths = (
{
closed = 1;
nodes = (
"858 -43 OFFCURVE",
"1015 304 OFFCURVE",
"1154 818 CURVE SMOOTH",
"1200 988 OFFCURVE",
"1242 1192 OFFCURVE",
"1256 1316 CURVE",
"1230 1325 OFFCURVE",
"1196 1330 OFFCURVE",
"1165 1330 CURVE",
"1141 1144 OFFCURVE",
"1082 892 OFFCURVE",
"1039 728 CURVE SMOOTH",
"920 274 OFFCURVE",
"741 32 OFFCURVE",
"522 32 CURVE SMOOTH",
"366 32 OFFCURVE",
"286 131 OFFCURVE",
"286 320 CURVE SMOOTH",
"286 430 OFFCURVE",
"320 602 OFFCURVE",
"368 787 CURVE SMOOTH",
"419 985 OFFCURVE",
"488 1197 OFFCURVE",
"548 1362 CURVE",
"538 1365 OFFCURVE",
"519 1368 OFFCURVE",
"494 1368 CURVE SMOOTH",
"479 1368 OFFCURVE",
"464 1366 OFFCURVE",
"453 1364 CURVE",
"389 1175 OFFCURVE",
"327 979 OFFCURVE",
"281 800 CURVE SMOOTH",
"233 614 OFFCURVE",
"202 445 OFFCURVE",
"202 319 CURVE SMOOTH",
"202 95 OFFCURVE",
"280 -43 OFFCURVE",
"498 -43 CURVE SMOOTH"
);
}
);
width = 1212;
},
{
anchors = (
{
name = bottom;
position = "{463.585, 0}";
},
{
name = ogonek;
position = "{652, 0}";
},
{
name = top;
position = "{835, 1318}";
},
{
name = topright;
position = "{1261, 1174}";
}
);
layerId = "63DB0068-8B02-4205-807F-6F2453D24B26";
paths = (
{
closed = 1;
nodes = (
"951 -27 OFFCURVE",
"1116 419 OFFCURVE",
"1263 957 CURVE SMOOTH",
"1296 1078 OFFCURVE",
"1318 1195 OFFCURVE",
"1330 1296 CURVE",
"1304 1304 OFFCURVE",
"1055 1328 OFFCURVE",
"924 1328 CURVE",
"913 1245 OFFCURVE",
"812 833 OFFCURVE",
"779 710 CURVE SMOOTH",
"741 570 OFFCURVE",
"695 458 OFFCURVE",
"591 458 CURVE SMOOTH",
"542 458 OFFCURVE",
"520 488 OFFCURVE",
"520 554 CURVE SMOOTH",
"520 636 OFFCURVE",
"568 824 OFFCURVE",
"622 1009 CURVE SMOOTH",
"657 1129 OFFCURVE",
"697 1248 OFFCURVE",
"727 1335 CURVE",
"662 1342 OFFCURVE",
"577 1347 OFFCURVE",
"496 1347 CURVE SMOOTH",
"433 1347 OFFCURVE",
"356 1342 OFFCURVE",
"285 1335 CURVE",
"251 1217 OFFCURVE",
"220 1108 OFFCURVE",
"194 1005 CURVE SMOOTH",
"130 752 OFFCURVE",
"88 544 OFFCURVE",
"88 371 CURVE SMOOTH",
"88 112 OFFCURVE",
"194 -27 OFFCURVE",
"481 -27 CURVE SMOOTH"
);
}
);
width = 1212;
}
);
leftKerningGroup = U;
rightKerningGroup = U;
unicode = 0055;
},
{
glyphname = Uhorn;
lastChange = "2020-07-08 19:59:26 +0000";
layers = (
{
anchors = (
{
name = bottom;
position = "{510, 0}";
},
{
name = top;
position = "{852, 1331}";
}
);
layerId = "82219AB4-7C60-4B3A-9196-329BE868CB10";
paths = (
{
closed = 1;
nodes = (
"875 -43 OFFCURVE",
"1014 304 OFFCURVE",
"1151 818 CURVE SMOOTH",
"1192 971 OFFCURVE",
"1231 1152 OFFCURVE",
"1248 1277 CURVE",
"1391 1308 OFFCURVE",
"1479 1412 OFFCURVE",
"1526 1564 CURVE",
"1512 1573 OFFCURVE",
"1467 1580 OFFCURVE",
"1436 1580 CURVE",
"1394 1421 OFFCURVE",
"1313 1340 OFFCURVE",
"1161 1330 CURVE",
"1138 1144 OFFCURVE",
"1080 892 OFFCURVE",
"1036 728 CURVE SMOOTH",
"915 275 OFFCURVE",
"749 32 OFFCURVE",
"530 32 CURVE SMOOTH",
"359 32 OFFCURVE",
"306 129 OFFCURVE",
"306 360 CURVE SMOOTH",
"306 464 OFFCURVE",
"320 602 OFFCURVE",
"360 757 CURVE SMOOTH",
"405 932 OFFCURVE",
"485 1185 OFFCURVE",
"549 1362 CURVE",
"539 1365 OFFCURVE",
"517 1368 OFFCURVE",
"492 1368 CURVE SMOOTH",
"477 1368 OFFCURVE",
"461 1366 OFFCURVE",
"451 1364 CURVE",
"412 1243 OFFCURVE",
"325 963 OFFCURVE",
"276 780 CURVE SMOOTH",
"232 617 OFFCURVE",
"214 469 OFFCURVE",
"214 346 CURVE SMOOTH",
"214 106 OFFCURVE",
"288 -43 OFFCURVE",
"515 -43 CURVE SMOOTH"
);
}
);
width = 1304;
},
{
anchors = (
{
name = bottom;
position = "{516, 0}";
},
{
name = top;
position = "{834, 1345}";
}
);
layerId = "63DB0068-8B02-4205-807F-6F2453D24B26";
paths = (
{
closed = 1;
nodes = (
"957 -27 OFFCURVE",
"1116 418 OFFCURVE",
"1261 957 CURVE SMOOTH",
"1282 1036 OFFCURVE",
"1299 1113 OFFCURVE",
"1312 1185 CURVE",
"1464 1234 OFFCURVE",
"1624 1345 OFFCURVE",
"1686 1522 CURVE",
"1668 1550 OFFCURVE",
"1484 1571 OFFCURVE",
"1365 1571 CURVE",
"1315 1384 OFFCURVE",
"1190 1328 OFFCURVE",
"922 1328 CURVE",
"911 1245 OFFCURVE",
"810 833 OFFCURVE",
"777 710 CURVE SMOOTH",
"740 570 OFFCURVE",
"693 458 OFFCURVE",
"589 458 CURVE SMOOTH",
"540 458 OFFCURVE",
"519 488 OFFCURVE",
"519 554 CURVE SMOOTH",
"519 617 OFFCURVE",
"539 712 OFFCURVE",
"574 844 CURVE SMOOTH",
"619 1014 OFFCURVE",
"675 1193 OFFCURVE",
"725 1335 CURVE",
"660 1342 OFFCURVE",
"575 1347 OFFCURVE",
"494 1347 CURVE SMOOTH",
"431 1347 OFFCURVE",
"358 1342 OFFCURVE",
"287 1335 CURVE",
"263 1256 OFFCURVE",
"241 1183 OFFCURVE",
"223 1115 CURVE SMOOTH",
"146 830 OFFCURVE",
"98 592 OFFCURVE",
"98 410 CURVE SMOOTH",
"98 116 OFFCURVE",
"210 -27 OFFCURVE",
"487 -27 CURVE SMOOTH"
);
}
);
width = 1404;
}
);
leftKerningGroup = U;
leftMetricsKey = U;
rightKerningGroup = U;
rightMetricsKey = "=U-80";
unicode = 01AF;
},
{
glyphname = Uogonek;
lastChange = "2020-07-21 16:07:58 +0000";
layers = (
{
components = (
{
name = U;
}
);
layerId = "82219AB4-7C60-4B3A-9196-329BE868CB10";
paths = (
{
closed = 1;
nodes = (
"768 -388 OFFCURVE",
"719 -408 OFFCURVE",
"625 -408 CURVE SMOOTH",
"535 -408 OFFCURVE",
"478 -377 OFFCURVE",
"478 -275 CURVE SMOOTH",
"478 -162 OFFCURVE",
"618 -38 OFFCURVE",
"720 15 CURVE",
"655 60 LINE",
"526 -9 OFFCURVE",
"392 -139 OFFCURVE",
"392 -282 CURVE SMOOTH",
"392 -411 OFFCURVE",
"472 -488 OFFCURVE",
"609 -488 CURVE SMOOTH",
"713 -488 OFFCURVE",
"785 -466 OFFCURVE",
"841 -442 CURVE",
"841 -355 LINE"
);
}
);
width = 1212;
},
{
components = (
{
name = U;
}
);
layerId = "63DB0068-8B02-4205-807F-6F2453D24B26";
paths = (
{
closed = 1;
nodes = (
"821 -247 OFFCURVE",
"776 -256 OFFCURVE",
"733 -256 CURVE SMOOTH",
"680 -256 OFFCURVE",
"626 -232 OFFCURVE",
"626 -160 CURVE SMOOTH",
"626 -80 OFFCURVE",
"701 4 OFFCURVE",
"746 35 CURVE",
"610 93 LINE",
"545 74 OFFCURVE",
"363 -77 OFFCURVE",
"363 -249 CURVE SMOOTH",
"363 -416 OFFCURVE",
"507 -501 OFFCURVE",
"665 -501 CURVE SMOOTH",
"769 -501 OFFCURVE",
"831 -488 OFFCURVE",
"860 -476 CURVE",
"860 -219 LINE"
);
}
);
width = 1212;
}
);
unicode = 0172;
},
{
glyphname = V;
lastChange = "2020-06-18 14:25:25 +0000";
layers = (
{
anchors = (
{
name = bottom;
position = "{440.585, 0}";
},
{
name = top;
position = "{786.507, 1291}";
}
);
layerId = "82219AB4-7C60-4B3A-9196-329BE868CB10";
paths = (
{
closed = 1;
nodes = (
"471 -19 OFFCURVE",
"487 -18 OFFCURVE",
"503 -16 CURVE",
"518 4 OFFCURVE",
"802 410 OFFCURVE",
"1263 1326 CURVE",
"1247 1344 OFFCURVE",
"1215 1354 OFFCURVE",
"1184 1359 CURVE",
"1175 1338 OFFCURVE",
"811 625 OFFCURVE",
"449 46 CURVE",
"461 48 LINE",
"436 316 OFFCURVE",
"423 1165 OFFCURVE",
"423 1361 CURVE",
"401 1361 OFFCURVE",
"350 1352 OFFCURVE",
"335 1347 CURVE",
"335 1191 OFFCURVE",
"341 278 OFFCURVE",
"377 -10 CURVE",
"391 -16 OFFCURVE",
"421 -19 OFFCURVE",
"445 -19 CURVE SMOOTH"
);
}
);
width = 1166;
},
{
anchors = (
{
name = bottom;
position = "{450, 0}";
},
{
name = top;
position = "{796, 1291}";
}
);
layerId = "63DB0068-8B02-4205-807F-6F2453D24B26";
paths = (
{
closed = 1;
nodes = (
"586 -22 OFFCURVE",
"670 -21 OFFCURVE",
"718 -16 CURVE",
"769 69 OFFCURVE",
"1186 836 OFFCURVE",
"1389 1301 CURVE",
"1268 1342 OFFCURVE",
"1083 1366 OFFCURVE",
"951 1366 CURVE",
"920 1275 OFFCURVE",
"646 531 OFFCURVE",
"559 315 CURVE",
"591 322 LINE",
"649 791 OFFCURVE",
"657 1235 OFFCURVE",
"657 1359 CURVE",
"551 1359 OFFCURVE",
"341 1340 OFFCURVE",
"206 1301 CURVE",
"206 945 OFFCURVE",
"228 221 OFFCURVE",
"265 -10 CURVE",
"313 -16 OFFCURVE",
"407 -22 OFFCURVE",
"501 -22 CURVE SMOOTH"
);
}
);
width = 1183;
}
);
leftKerningGroup = V;
rightKerningGroup = V;
unicode = 0056;
},
{
glyphname = W;
lastChange = "2020-06-17 15:11:48 +0000";
layers = (
{
anchors = (
{
name = bottom;
position = "{529.585, 0}";
},
{
name = top;
position = "{875.507, 1291}";
}
);
layerId = "82219AB4-7C60-4B3A-9196-329BE868CB10";
paths = (
{
closed = 1;
nodes = (
"876 -11 LINE",
"912 42 OFFCURVE",
"1200 713 OFFCURVE",
"1371 1352 CURVE",
"1276 1344 LINE",
"1181 989 OFFCURVE",
"975 391 OFFCURVE",
"831 79 CURVE",
"842 84 LINE",
"842 216 OFFCURVE",
"836 833 OFFCURVE",
"834 840 CURVE",
"741 844 LINE",
"719 819 OFFCURVE",
"296 277 OFFCURVE",
"208 110 CURVE",
"212 99 LINE",
"294 538 OFFCURVE",
"384 899 OFFCURVE",
"502 1340 CURVE",
"417 1344 LINE",
"304 923 OFFCURVE",
"227 598 OFFCURVE",
"118 -8 CURVE",
"191 -8 LINE",
"222 33 OFFCURVE",
"733 713 OFFCURVE",
"758 747 CURVE",
"754 749 LINE",
"754 676 OFFCURVE",
"772 185 OFFCURVE",
"780 -17 CURVE"
);
}
);
width = 1344;
},
{
anchors = (
{
name = bottom;
position = "{529.585, 0}";
},
{
name = top;
position = "{875.507, 1291}";
}
);
layerId = "63DB0068-8B02-4205-807F-6F2453D24B26";
paths = (
{
closed = 1;
nodes = (
"1025 24 LINE",
"1082 139 OFFCURVE",
"1416 832 OFFCURVE",
"1565 1391 CURVE",
"1166 1350 LINE",
"1105 1122 OFFCURVE",
"948 617 OFFCURVE",
"829 354 CURVE",
"884 356 LINE",
"889 452 OFFCURVE",
"950 995 OFFCURVE",
"973 1095 CURVE",
"688 1087 LINE",
"633 918 OFFCURVE",
"451 540 OFFCURVE",
"379 432 CURVE",
"409 460 LINE",
"443 565 OFFCURVE",
"615 1107 OFFCURVE",
"678 1340 CURVE",
"247 1356 LINE",
"100 807 OFFCURVE",
"-22 173 OFFCURVE",
"-41 21 CURVE",
"402 3 LINE",
"511 151 OFFCURVE",
"652 410 OFFCURVE",
"684 474 CURVE",
"633 466 LINE",
"631 340 OFFCURVE",
"628 101 OFFCURVE",
"627 -15 CURVE"
);
}
);
width = 1344;
}
);
leftKerningGroup = W;
rightKerningGroup = W;
unicode = 0057;
},
{
glyphname = X;
lastChange = "2020-06-18 14:25:59 +0000";
layers = (
{
anchors = (
{
name = bottom;
position = "{422, 0}";
},
{
name = top;
position = "{768, 1291}";
}
);
layerId = "82219AB4-7C60-4B3A-9196-329BE868CB10";
paths = (
{
closed = 1;
nodes = (
"532 610 OFFCURVE",
"234 293 OFFCURVE",
"-32 39 CURVE",
"-12 19 OFFCURVE",
"22 5 OFFCURVE",
"55 1 CURVE",
"71 17 OFFCURVE",
"587 557 OFFCURVE",
"606 583 CURVE",
"681 376 OFFCURVE",
"749 121 OFFCURVE",
"779 -15 CURVE",
"807 -14 OFFCURVE",
"839 -9 OFFCURVE",
"873 10 CURVE",
"825 181 OFFCURVE",
"702 550 OFFCURVE",
"666 639 CURVE",
"721 685 OFFCURVE",
"1031 1016 OFFCURVE",
"1206 1272 CURVE",
"1188 1285 OFFCURVE",
"1152 1299 OFFCURVE",
"1124 1308 CURVE",
"1087 1251 OFFCURVE",
"862 933 OFFCURVE",
"642 714 CURVE",
"543 1046 OFFCURVE",
"455 1253 OFFCURVE",
"419 1328 CURVE",
"390 1323 OFFCURVE",
"360 1312 OFFCURVE",
"322 1297 CURVE",
"358 1231 OFFCURVE",
"500 909 OFFCURVE",
"580 666 CURVE"
);
}
);
width = 1113;
},
{
anchors = (
{
name = bottom;
position = "{484.585, 0}";
},
{
name = top;
position = "{830.507, 1291}";
}
);
layerId = "63DB0068-8B02-4205-807F-6F2453D24B26";
paths = (
{
closed = 1;
nodes = (
"292 461 OFFCURVE",
"61 193 OFFCURVE",
"-72 56 CURVE",
"87 10 OFFCURVE",
"225 -18 OFFCURVE",
"352 -31 CURVE",
"392 10 OFFCURVE",
"496 121 OFFCURVE",
"643 323 CURVE",
"691 177 OFFCURVE",
"710 38 OFFCURVE",
"717 -54 CURVE",
"827 -34 OFFCURVE",
"1000 18 OFFCURVE",
"1116 81 CURVE",
"1105 168 OFFCURVE",
"996 498 OFFCURVE",
"906 673 CURVE",
"1062 827 OFFCURVE",
"1315 1077 OFFCURVE",
"1397 1193 CURVE",
"1351 1241 OFFCURVE",
"1145 1314 OFFCURVE",
"991 1328 CURVE",
"933 1209 OFFCURVE",
"854 1071 OFFCURVE",
"775 961 CURVE",
"771 998 OFFCURVE",
"722 1258 OFFCURVE",
"680 1347 CURVE",
"568 1332 OFFCURVE",
"316 1255 OFFCURVE",
"209 1207 CURVE",
"241 1161 OFFCURVE",
"407 914 OFFCURVE",
"473 679 CURVE"
);
}
);
width = 1253;
}
);
leftKerningGroup = X;
rightKerningGroup = X;
unicode = 0058;
},
{
glyphname = Y;
lastChange = "2020-06-17 15:12:55 +0000";
layers = (
{
anchors = (
{
name = bottom;
position = "{411, 0}";
},
{
name = top;
position = "{757, 1291}";
},
{
name = topleft;
position = "{244, 1291}";
}
);
layerId = "82219AB4-7C60-4B3A-9196-329BE868CB10";
paths = (
{
closed = 1;
nodes = (
"423 319 OFFCURVE",
"370 134 OFFCURVE",
"337 -10 CURVE",
"359 -13 OFFCURVE",
"376 -14 OFFCURVE",
"392 -14 CURVE SMOOTH",
"405 -14 OFFCURVE",
"420 -13 OFFCURVE",
"435 -12 CURVE",
"441 20 OFFCURVE",
"476 165 OFFCURVE",
"499 254 CURVE SMOOTH",
"517 323 OFFCURVE",
"556 457 OFFCURVE",
"567 491 CURVE",
"867 882 OFFCURVE",
"1059 1121 OFFCURVE",
"1173 1241 CURVE",
"1157 1259 OFFCURVE",
"1129 1284 OFFCURVE",
"1098 1303 CURVE",
"999 1192 OFFCURVE",
"617 692 OFFCURVE",
"541 591 CURVE",
"499 761 OFFCURVE",
"430 1269 OFFCURVE",
"427 1318 CURVE",
"390 1313 OFFCURVE",
"357 1303 OFFCURVE",
"325 1292 CURVE",
"331 1248 OFFCURVE",
"455 550 OFFCURVE",
"476 489 CURVE"
);
}
);
width = 1065;
},
{
anchors = (
{
name = bottom;
position = "{411, 0}";
},
{
name = top;
position = "{757, 1291}";
},
{
name = topleft;
position = "{244, 1291}";
}
);
layerId = "63DB0068-8B02-4205-807F-6F2453D24B26";
paths = (
{
closed = 1;
nodes = (
"376 522 OFFCURVE",
"304 271 OFFCURVE",
"234 24 CURVE",
"281 14 OFFCURVE",
"367 7 OFFCURVE",
"448 7 CURVE SMOOTH",
"525 7 OFFCURVE",
"598 14 OFFCURVE",
"617 22 CURVE",
"624 40 OFFCURVE",
"655 147 OFFCURVE",
"678 236 CURVE SMOOTH",
"698 312 OFFCURVE",
"737 477 OFFCURVE",
"768 612 CURVE",
"941 836 OFFCURVE",
"1151 1074 OFFCURVE",
"1273 1192 CURVE",
"1201 1242 OFFCURVE",
"1038 1304 OFFCURVE",
"905 1309 CURVE",
"834 1241 OFFCURVE",
"695 1037 OFFCURVE",
"653 972 CURVE",
"631 1063 OFFCURVE",
"602 1262 OFFCURVE",
"594 1325 CURVE",
"509 1325 OFFCURVE",
"371 1308 OFFCURVE",
"201 1250 CURVE",
"249 950 OFFCURVE",
"323 768 OFFCURVE",
"409 583 CURVE"
);
}
);
width = 1065;
}
);
leftKerningGroup = Y;
rightKerningGroup = Y;
unicode = 0059;
},
{
glyphname = Z;
lastChange = "2020-06-17 15:13:54 +0000";
layers = (
{
anchors = (
{
name = bottom;
position = "{379.585, 0}";
},
{
name = center;
position = "{552.68, 646}";
},
{
name = top;
position = "{725.507, 1291}";
}
);
layerId = "82219AB4-7C60-4B3A-9196-329BE868CB10";
paths = (
{
closed = 1;
nodes = (
"804 -3 OFFCURVE",
"813 18 OFFCURVE",
"820 37 CURVE SMOOTH",
"826 54 OFFCURVE",
"832 71 OFFCURVE",
"835 85 CURVE",
"784 83 OFFCURVE",
"717 82 OFFCURVE",
"644 82 CURVE SMOOTH",
"446 82 OFFCURVE",
"214 89 OFFCURVE",
"103 98 CURVE",
"228 206 OFFCURVE",
"862 869 OFFCURVE",
"1158 1261 CURVE",
"1162 1272 OFFCURVE",
"1166 1286 OFFCURVE",
"1171 1304 CURVE SMOOTH",
"1173 1310 OFFCURVE",
"1176 1325 OFFCURVE",
"1177 1330 CURVE",
"1138 1330 OFFCURVE",
"1000 1327 OFFCURVE",
"979 1326 CURVE SMOOTH",
"802 1320 OFFCURVE",
"583 1307 OFFCURVE",
"379 1294 CURVE",
"376 1286 OFFCURVE",
"371 1269 OFFCURVE",
"367 1251 CURVE SMOOTH",
"363 1234 OFFCURVE",
"359 1217 OFFCURVE",
"357 1209 CURVE",
"600 1229 OFFCURVE",
"983 1255 OFFCURVE",
"1058 1256 CURVE",
"899 1058 OFFCURVE",
"252 325 OFFCURVE",
"-7 96 CURVE",
"-11 79 OFFCURVE",
"-20 39 OFFCURVE",
"-23 22 CURVE",
"289 -5 OFFCURVE",
"563 -14 OFFCURVE",
"799 -14 CURVE"
);
}
);
width = 1044;
},
{
anchors = (
{
name = bottom;
position = "{379.585, 0}";
},
{
name = center;
position = "{552.68, 646}";
},
{
name = top;
position = "{725.507, 1291}";
}
);
layerId = "63DB0068-8B02-4205-807F-6F2453D24B26";
paths = (
{
closed = 1;
nodes = (
"855 18 OFFCURVE",
"890 113 OFFCURVE",
"914 202 CURVE SMOOTH",
"934 277 OFFCURVE",
"951 356 OFFCURVE",
"958 397 CURVE",
"852 392 OFFCURVE",
"744 387 OFFCURVE",
"658 387 CURVE SMOOTH",
"577 387 OFFCURVE",
"545 389 OFFCURVE",
"521 393 CURVE",
"649 509 OFFCURVE",
"1041 897 OFFCURVE",
"1143 1005 CURVE",
"1153 1025 OFFCURVE",
"1175 1093 OFFCURVE",
"1194 1166 CURVE SMOOTH",
"1209 1225 OFFCURVE",
"1224 1288 OFFCURVE",
"1227 1330 CURVE",
"1196 1334 OFFCURVE",
"1100 1336 OFFCURVE",
"1048 1336 CURVE SMOOTH",
"835 1336 OFFCURVE",
"467 1306 OFFCURVE",
"353 1294 CURVE",
"338 1256 OFFCURVE",
"320 1198 OFFCURVE",
"303 1135 CURVE SMOOTH",
"288 1080 OFFCURVE",
"274 1011 OFFCURVE",
"267 969 CURVE",
"400 977 OFFCURVE",
"637 991 OFFCURVE",
"699 991 CURVE",
"628 912 OFFCURVE",
"242 546 OFFCURVE",
"59 388 CURVE",
"34 297 OFFCURVE",
"-14 99 OFFCURVE",
"-29 22 CURVE",
"315 -3 OFFCURVE",
"602 -14 OFFCURVE",
"838 -14 CURVE"
);
}
);
width = 1044;
}
);
leftKerningGroup = Z;
rightKerningGroup = Z;
unicode = 005A;
},
{
glyphname = a;
lastChange = "2020-06-18 18:47:30 +0000";
layers = (
{
anchors = (
{
name = bottom;
position = "{476, 0}";
},
{
name = ogonek;
position = "{1046, 10}";
},
{
name = top;
position = "{750, 1063}";
}
);
layerId = "82219AB4-7C60-4B3A-9196-329BE868CB10";
paths = (
{
closed = 1;
nodes = (
"606 -24 OFFCURVE",
"813 75 OFFCURVE",
"881 145 CURVE",
"881 46 OFFCURVE",
"914 0 OFFCURVE",
"1001 0 CURVE SMOOTH",
"1086 0 OFFCURVE",
"1186 73 OFFCURVE",
"1230 236 CURVE",
"1145 249 LINE",
"1118 149 OFFCURVE",
"1069 92 OFFCURVE",
"1019 92 CURVE SMOOTH",
"989 92 OFFCURVE",
"973 100 OFFCURVE",
"973 141 CURVE SMOOTH",
"973 234 OFFCURVE",
"1015 379 OFFCURVE",
"1054 513 CURVE SMOOTH",
"1076 590 OFFCURVE",
"1089 662 OFFCURVE",
"1089 719 CURVE SMOOTH",
"1089 939 OFFCURVE",
"935 1055 OFFCURVE",
"707 1055 CURVE SMOOTH",
"491 1055 OFFCURVE",
"306 956 OFFCURVE",
"187 822 CURVE",
"251 767 LINE",
"350 881 OFFCURVE",
"495 975 OFFCURVE",
"689 975 CURVE SMOOTH",
"867 975 OFFCURVE",
"1009 904 OFFCURVE",
"1009 742 CURVE SMOOTH",
"1009 688 OFFCURVE",
"1006 658 OFFCURVE",
"996 611 CURVE",
"966 621 OFFCURVE",
"797 665 OFFCURVE",
"636 665 CURVE SMOOTH",
"336 665 OFFCURVE",
"44 542 OFFCURVE",
"44 259 CURVE SMOOTH",
"44 66 OFFCURVE",
"183 -24 OFFCURVE",
"415 -24 CURVE SMOOTH"
);
},
{
closed = 1;
nodes = (
"237 55 OFFCURVE",
"132 112 OFFCURVE",
"132 273 CURVE SMOOTH",
"132 486 OFFCURVE",
"380 586 OFFCURVE",
"612 586 CURVE SMOOTH",
"796 586 OFFCURVE",
"930 545 OFFCURVE",
"973 530 CURVE",
"948 448 OFFCURVE",
"925 372 OFFCURVE",
"892 250 CURVE",
"767 135 OFFCURVE",
"596 55 OFFCURVE",
"432 55 CURVE SMOOTH"
);
}
);
width = 1295;
},
{
anchors = (
{
name = bottom;
position = "{475, 0}";
},
{
name = ogonek;
position = "{1064, 0}";
},
{
name = top;
position = "{748, 1063}";
}
);
layerId = "63DB0068-8B02-4205-807F-6F2453D24B26";
paths = (
{
closed = 1;
nodes = (
"600 -15 OFFCURVE",
"762 80 OFFCURVE",
"806 179 CURVE",
"806 53 OFFCURVE",
"871 -11 OFFCURVE",
"990 -11 CURVE SMOOTH",
"1101 -11 OFFCURVE",
"1176 27 OFFCURVE",
"1204 55 CURVE",
"1159 318 LINE",
"1140 305 OFFCURVE",
"1120 297 OFFCURVE",
"1089 297 CURVE SMOOTH",
"1066 297 OFFCURVE",
"1054 306 OFFCURVE",
"1054 342 CURVE SMOOTH",
"1054 391 OFFCURVE",
"1066 450 OFFCURVE",
"1082 511 CURVE SMOOTH",
"1103 591 OFFCURVE",
"1121 679 OFFCURVE",
"1121 754 CURVE SMOOTH",
"1121 995 OFFCURVE",
"961 1076 OFFCURVE",
"688 1076 CURVE SMOOTH",
"474 1076 OFFCURVE",
"257 992 OFFCURVE",
"132 869 CURVE",
"379 677 LINE",
"420 725 OFFCURVE",
"537 775 OFFCURVE",
"624 775 CURVE SMOOTH",
"705 775 OFFCURVE",
"744 754 OFFCURVE",
"769 718 CURVE SMOOTH",
"784 696 OFFCURVE",
"785 644 OFFCURVE",
"785 629 CURVE",
"760 652 OFFCURVE",
"666 675 OFFCURVE",
"583 675 CURVE SMOOTH",
"293 675 OFFCURVE",
"1 577 OFFCURVE",
"1 275 CURVE SMOOTH",
"1 63 OFFCURVE",
"154 -15 OFFCURVE",
"381 -15 CURVE SMOOTH"
);
},
{
closed = 1;
nodes = (
"432 272 OFFCURVE",
"401 294 OFFCURVE",
"401 340 CURVE SMOOTH",
"401 399 OFFCURVE",
"514 423 OFFCURVE",
"596 423 CURVE SMOOTH",
"654 423 OFFCURVE",
"727 413 OFFCURVE",
"748 402 CURVE",
"744 387 OFFCURVE",
"738 350 OFFCURVE",
"738 335 CURVE",
"706 304 OFFCURVE",
"597 272 OFFCURVE",
"525 272 CURVE SMOOTH"
);
}
);
width = 1295;
}
);
leftKerningGroup = a;
rightKerningGroup = a;
unicode = 0061;
},
{
glyphname = a.ss01;
lastChange = "2020-06-18 18:47:49 +0000";
layers = (
{
anchors = (
{
name = bottom;
position = "{457.585, 0}";
},
{
name = ogonek;
position = "{936, 19}";
},
{
name = top;
position = "{742.415, 1063}";
}
);
layerId = "82219AB4-7C60-4B3A-9196-329BE868CB10";
paths = (
{
closed = 1;
nodes = (
"684 -9 OFFCURVE",
"854 144 OFFCURVE",
"871 173 CURVE",
"869 157 OFFCURVE",
"846 48 OFFCURVE",
"837 9 CURVE",
"871 9 OFFCURVE",
"907 14 OFFCURVE",
"936 19 CURVE",
"945 83 OFFCURVE",
"1080 712 OFFCURVE",
"1163 1021 CURVE",
"1147 1025 OFFCURVE",
"1115 1029 OFFCURVE",
"1084 1029 CURVE",
"1075 993 OFFCURVE",
"1063 949 OFFCURVE",
"1059 935 CURVE",
"1018 960 OFFCURVE",
"875 1035 OFFCURVE",
"712 1035 CURVE SMOOTH",
"353 1035 OFFCURVE",
"86 729 OFFCURVE",
"86 353 CURVE SMOOTH",
"86 140 OFFCURVE",
"184 -9 OFFCURVE",
"413 -9 CURVE SMOOTH"
);
},
{
closed = 1;
nodes = (
"258 69 OFFCURVE",
"175 187 OFFCURVE",
"175 360 CURVE SMOOTH",
"175 684 OFFCURVE",
"390 956 OFFCURVE",
"711 956 CURVE SMOOTH",
"879 956 OFFCURVE",
"994 878 OFFCURVE",
"1036 849 CURVE",
"1018 780 OFFCURVE",
"917 379 OFFCURVE",
"904 309 CURVE",
"878 276 OFFCURVE",
"713 69 OFFCURVE",
"454 69 CURVE SMOOTH"
);
}
);
width = 1200;
},
{
anchors = (
{
name = bottom;
position = "{457.585, 0}";
},
{
name = ogonek;
position = "{1029, 17}";
},
{
name = top;
position = "{742.415, 1063}";
}
);
layerId = "63DB0068-8B02-4205-807F-6F2453D24B26";
paths = (
{
closed = 1;
nodes = (
"550 -10 OFFCURVE",
"644 42 OFFCURVE",
"682 99 CURVE",
"678 77 OFFCURVE",
"669 19 OFFCURVE",
"666 -3 CURVE",
"782 -3 OFFCURVE",
"958 10 OFFCURVE",
"1029 17 CURVE",
"1036 46 OFFCURVE",
"1235 906 OFFCURVE",
"1253 1036 CURVE",
"1196 1041 OFFCURVE",
"994 1044 OFFCURVE",
"927 1044 CURVE",
"917 1024 OFFCURVE",
"896 978 OFFCURVE",
"879 918 CURVE",
"877 934 OFFCURVE",
"811 1007 OFFCURVE",
"657 1007 CURVE SMOOTH",
"295 1007 OFFCURVE",
"63 713 OFFCURVE",
"63 344 CURVE SMOOTH",
"63 141 OFFCURVE",
"163 -10 OFFCURVE",
"409 -10 CURVE SMOOTH"
);
},
{
closed = 1;
nodes = (
"474 359 OFFCURVE",
"428 389 OFFCURVE",
"428 458 CURVE SMOOTH",
"428 578 OFFCURVE",
"512 673 OFFCURVE",
"640 673 CURVE SMOOTH",
"697 673 OFFCURVE",
"756 658 OFFCURVE",
"789 638 CURVE",
"774 579 OFFCURVE",
"754 493 OFFCURVE",
"743 436 CURVE",
"673 366 OFFCURVE",
"598 359 OFFCURVE",
"534 359 CURVE SMOOTH"
);
}
);
width = 1200;
}
);
leftKerningGroup = a;
rightKerningGroup = n;
},
{
glyphname = aogonek;
lastChange = "2020-07-03 19:58:07 +0000";
layers = (
{
components = (
{
name = a;
}
);
layerId = "82219AB4-7C60-4B3A-9196-329BE868CB10";
paths = (
{
closed = 1;
nodes = (
"1094 -393 OFFCURVE",
"1045 -413 OFFCURVE",
"951 -413 CURVE SMOOTH",
"861 -413 OFFCURVE",
"804 -382 OFFCURVE",
"804 -280 CURVE SMOOTH",
"804 -167 OFFCURVE",
"934 -33 OFFCURVE",
"1046 10 CURVE",
"981 55 LINE",
"842 -4 OFFCURVE",
"718 -144 OFFCURVE",
"718 -287 CURVE SMOOTH",
"718 -416 OFFCURVE",
"798 -493 OFFCURVE",
"935 -493 CURVE SMOOTH",
"1039 -493 OFFCURVE",
"1111 -471 OFFCURVE",
"1167 -447 CURVE",
"1167 -360 LINE"
);
}
);
width = 1295;
},
{
components = (
{
name = a;
}
);
layerId = "63DB0068-8B02-4205-807F-6F2453D24B26";
paths = (
{
closed = 1;
nodes = (
"1139 -282 OFFCURVE",
"1094 -291 OFFCURVE",
"1051 -291 CURVE SMOOTH",
"998 -291 OFFCURVE",
"944 -267 OFFCURVE",
"944 -195 CURVE SMOOTH",
"944 -115 OFFCURVE",
"1019 -31 OFFCURVE",
"1064 0 CURVE",
"928 58 LINE",
"863 39 OFFCURVE",
"681 -112 OFFCURVE",
"681 -284 CURVE SMOOTH",
"681 -451 OFFCURVE",
"825 -536 OFFCURVE",
"983 -536 CURVE SMOOTH",
"1087 -536 OFFCURVE",
"1149 -523 OFFCURVE",
"1178 -511 CURVE",
"1178 -254 LINE"
);
}
);
width = 1295;
}
);
unicode = 0105;
},
{
glyphname = aogonek.ss01;
lastChange = "2020-07-21 16:05:02 +0000";
layers = (
{
components = (
{
name = a.ss01;
}
);
layerId = "82219AB4-7C60-4B3A-9196-329BE868CB10";
paths = (
{
closed = 1;
nodes = (
"984 -384 OFFCURVE",
"935 -404 OFFCURVE",
"841 -404 CURVE SMOOTH",
"751 -404 OFFCURVE",
"694 -373 OFFCURVE",
"694 -271 CURVE SMOOTH",
"694 -158 OFFCURVE",
"824 -24 OFFCURVE",
"936 19 CURVE",
"871 64 LINE",
"732 5 OFFCURVE",
"608 -135 OFFCURVE",
"608 -278 CURVE SMOOTH",
"608 -407 OFFCURVE",
"688 -484 OFFCURVE",
"825 -484 CURVE SMOOTH",
"929 -484 OFFCURVE",
"1001 -462 OFFCURVE",
"1057 -438 CURVE",
"1057 -351 LINE"
);
}
);
width = 1200;
},
{
components = (
{
name = a.ss01;
}
);
layerId = "63DB0068-8B02-4205-807F-6F2453D24B26";
paths = (
{
closed = 1;
nodes = (
"974 -265 OFFCURVE",
"929 -274 OFFCURVE",
"886 -274 CURVE SMOOTH",
"833 -274 OFFCURVE",
"779 -250 OFFCURVE",
"779 -178 CURVE SMOOTH",
"779 -98 OFFCURVE",
"854 -14 OFFCURVE",
"899 17 CURVE",
"763 75 LINE",
"698 56 OFFCURVE",
"516 -95 OFFCURVE",
"516 -267 CURVE SMOOTH",
"516 -434 OFFCURVE",
"660 -519 OFFCURVE",
"818 -519 CURVE SMOOTH",
"922 -519 OFFCURVE",
"984 -506 OFFCURVE",
"1013 -494 CURVE",
"1013 -237 LINE"
);
}
);
width = 1200;
}
);
},
{
glyphname = ae;
lastChange = "2020-06-29 16:07:46 +0000";
layers = (
{
anchors = (
{
name = bottom;
position = "{711, 0}";
},
{
name = top;
position = "{1007, 1063}";
}
);
components = (
{
alignment = -1;
name = e;
transform = "{1, 0, 0, 1, 746, 0}";
}
);
layerId = "82219AB4-7C60-4B3A-9196-329BE868CB10";
paths = (
{
closed = 1;
nodes = (
"582 22 OFFCURVE",
"838 170 OFFCURVE",
"879 368 CURVE SMOOTH",
"920 566 OFFCURVE",
"945 702 OFFCURVE",
"945 800 CURVE SMOOTH",
"945 991 OFFCURVE",
"816 1105 OFFCURVE",
"626 1105 CURVE SMOOTH",
"394 1105 OFFCURVE",
"229 978 OFFCURVE",
"139 865 CURVE",
"194 806 LINE",
"276 928 OFFCURVE",
"422 1027 OFFCURVE",
"603 1027 CURVE SMOOTH",
"786 1027 OFFCURVE",
"854 924 OFFCURVE",
"854 758 CURVE SMOOTH",
"854 724 OFFCURVE",
"851 687 OFFCURVE",
"846 648 CURVE",
"817 658 OFFCURVE",
"604 692 OFFCURVE",
"506 692 CURVE SMOOTH",
"248 692 OFFCURVE",
"11 536 OFFCURVE",
"11 284 CURVE SMOOTH",
"11 99 OFFCURVE",
"169 22 OFFCURVE",
"354 22 CURVE SMOOTH"
);
},
{
closed = 1;
nodes = (
"210 94 OFFCURVE",
"102 149 OFFCURVE",
"102 295 CURVE SMOOTH",
"102 489 OFFCURVE",
"277 617 OFFCURVE",
"471 617 CURVE SMOOTH",
"613 617 OFFCURVE",
"791 587 OFFCURVE",
"834 575 CURVE",
"826 518 OFFCURVE",
"812 434 OFFCURVE",
"799 383 CURVE SMOOTH",
"768 261 OFFCURVE",
"573 94 OFFCURVE",
"345 94 CURVE SMOOTH"
);
}
);
width = 1762;
},
{
anchors = (
{
name = bottom;
position = "{775, 0}";
},
{
name = top;
position = "{1069, 1063}";
}
);
components = (
{
alignment = -1;
name = e;
transform = "{1, 0, 0, 1, 768, 0}";
}
);
layerId = "63DB0068-8B02-4205-807F-6F2453D24B26";
paths = (
{
closed = 1;
nodes = (
"765 -18 OFFCURVE",
"1048 190 OFFCURVE",
"1122 462 CURVE SMOOTH",
"1144 543 OFFCURVE",
"1159 624 OFFCURVE",
"1159 704 CURVE SMOOTH",
"1159 970 OFFCURVE",
"1008 1115 OFFCURVE",
"732 1115 CURVE SMOOTH",
"568 1115 OFFCURVE",
"315 1039 OFFCURVE",
"199 952 CURVE",
"413 727 LINE",
"471 768 OFFCURVE",
"591 798 OFFCURVE",
"670 798 CURVE SMOOTH",
"753 798 OFFCURVE",
"811 767 OFFCURVE",
"811 694 CURVE SMOOTH",
"811 681 OFFCURVE",
"809 667 OFFCURVE",
"805 653 CURVE",
"780 677 OFFCURVE",
"663 684 OFFCURVE",
"610 684 CURVE SMOOTH",
"334 684 OFFCURVE",
"51 599 OFFCURVE",
"51 318 CURVE SMOOTH",
"51 98 OFFCURVE",
"222 -18 OFFCURVE",
"468 -18 CURVE SMOOTH"
);
},
{
closed = 1;
nodes = (
"459 272 OFFCURVE",
"407 274 OFFCURVE",
"407 318 CURVE SMOOTH",
"407 405 OFFCURVE",
"559 428 OFFCURVE",
"652 428 CURVE SMOOTH",
"691 428 OFFCURVE",
"727 422 OFFCURVE",
"754 408 CURVE",
"753 391 OFFCURVE",
"748 368 OFFCURVE",
"741 343 CURVE SMOOTH",
"733 313 OFFCURVE",
"643 272 OFFCURVE",
"511 272 CURVE SMOOTH"
);
}
);
width = 1867;
}
);
leftKerningGroup = a;
rightKerningGroup = e;
unicode = 00E6;
},
{
glyphname = b;
lastChange = "2020-06-17 15:15:09 +0000";
layers = (
{
anchors = (
{
name = bottom;
position = "{438, 0}";
},
{
name = top;
position = "{831, 1470}";
}
);
layerId = "82219AB4-7C60-4B3A-9196-329BE868CB10";
paths = (
{
closed = 1;
nodes = (
"129 -22 OFFCURVE",
"193 -20 OFFCURVE",
"208 -19 CURVE",
"214 12 OFFCURVE",
"229 74 OFFCURVE",
"239 113 CURVE",
"273 76 OFFCURVE",
"366 6 OFFCURVE",
"532 6 CURVE SMOOTH",
"882 6 OFFCURVE",
"1056 295 OFFCURVE",
"1056 558 CURVE SMOOTH",
"1056 791 OFFCURVE",
"990 923 OFFCURVE",
"757 923 CURVE SMOOTH",
"557 923 OFFCURVE",
"399 774 OFFCURVE",
"374 744 CURVE",
"427 991 OFFCURVE",
"487 1268 OFFCURVE",
"526 1432 CURVE",
"505 1432 OFFCURVE",
"461 1430 OFFCURVE",
"442 1427 CURVE",
"385 1215 OFFCURVE",
"138 142 OFFCURVE",
"107 -22 CURVE"
);
},
{
closed = 1;
nodes = (
"274 258 OFFCURVE",
"339 573 OFFCURVE",
"347 616 CURVE",
"427 699 OFFCURVE",
"588 844 OFFCURVE",
"741 844 CURVE SMOOTH",
"923 844 OFFCURVE",
"962 743 OFFCURVE",
"962 546 CURVE SMOOTH",
"962 295 OFFCURVE",
"804 88 OFFCURVE",
"548 88 CURVE SMOOTH",
"373 88 OFFCURVE",
"286 183 OFFCURVE",
"265 219 CURVE"
);
}
);
width = 1200;
},
{
anchors = (
{
name = bottom;
position = "{457.585, 0}";
},
{
name = top;
position = "{851.47, 1470}";
}
);
layerId = "63DB0068-8B02-4205-807F-6F2453D24B26";
paths = (
{
closed = 1;
nodes = (
"80 -15 OFFCURVE",
"242 -19 OFFCURVE",
"368 -19 CURVE",
"370 -2 OFFCURVE",
"387 75 OFFCURVE",
"396 114 CURVE",
"413 73 OFFCURVE",
"516 0 OFFCURVE",
"653 0 CURVE SMOOTH",
"962 0 OFFCURVE",
"1163 262 OFFCURVE",
"1163 591 CURVE SMOOTH",
"1163 815 OFFCURVE",
"1043 918 OFFCURVE",
"854 918 CURVE SMOOTH",
"734 918 OFFCURVE",
"631 861 OFFCURVE",
"540 786 CURVE",
"593 1052 OFFCURVE",
"664 1326 OFFCURVE",
"697 1441 CURVE",
"484 1409 OFFCURVE",
"329 1380 OFFCURVE",
"310 1376 CURVE",
"253 1164 OFFCURVE",
"13 162 OFFCURVE",
"-19 -2 CURVE"
);
},
{
closed = 1;
nodes = (
"460 403 OFFCURVE",
"477 479 OFFCURVE",
"482 501 CURVE",
"520 539 OFFCURVE",
"593 603 OFFCURVE",
"711 603 CURVE SMOOTH",
"781 603 OFFCURVE",
"808 565 OFFCURVE",
"808 513 CURVE SMOOTH",
"808 405 OFFCURVE",
"737 342 OFFCURVE",
"616 342 CURVE SMOOTH",
"558 342 OFFCURVE",
"482 361 OFFCURVE",
"455 378 CURVE"
);
}
);
width = 1200;
}
);
leftKerningGroup = h;
rightKerningGroup = o;
unicode = 0062;
},
{
glyphname = c;
lastChange = "2020-01-13 21:19:07 +0000";
layers = (
{
anchors = (
{
name = bottom;
position = "{399, 0}";
},
{
name = top;
position = "{645, 1063}";
}
);
layerId = "82219AB4-7C60-4B3A-9196-329BE868CB10";
paths = (
{
closed = 1;
nodes = (
"783 246 LINE",
"766 216 OFFCURVE",
"640 73 OFFCURVE",
"434 73 CURVE SMOOTH",
"244 73 OFFCURVE",
"172 195 OFFCURVE",
"172 368 CURVE SMOOTH",
"172 695 OFFCURVE",
"367 1023 OFFCURVE",
"677 1023 CURVE SMOOTH",
"905 1023 OFFCURVE",
"932 861 OFFCURVE",
"936 821 CURVE",
"1008 880 LINE",
"991 980 OFFCURVE",
"879 1094 OFFCURVE",
"695 1094 CURVE SMOOTH",
"325 1094 OFFCURVE",
"82 757 OFFCURVE",
"82 370 CURVE SMOOTH",
"82 154 OFFCURVE",
"186 -4 OFFCURVE",
"415 -4 CURVE SMOOTH",
"616 -4 OFFCURVE",
"782 113 OFFCURVE",
"844 203 CURVE"
);
}
);
width = 1026;
},
{
anchors = (
{
name = bottom;
position = "{403, 0}";
},
{
name = top;
position = "{655.415, 1063}";
}
);
layerId = "63DB0068-8B02-4205-807F-6F2453D24B26";
paths = (
{
closed = 1;
nodes = (
"740 501 LINE",
"720 479 OFFCURVE",
"625 393 OFFCURVE",
"523 393 CURVE SMOOTH",
"441 393 OFFCURVE",
"416 445 OFFCURVE",
"416 513 CURVE SMOOTH",
"416 666 OFFCURVE",
"498 786 OFFCURVE",
"654 786 CURVE SMOOTH",
"746 786 OFFCURVE",
"765 727 OFFCURVE",
"767 711 CURVE",
"1076 855 LINE",
"1028 1011 OFFCURVE",
"874 1096 OFFCURVE",
"686 1096 CURVE SMOOTH",
"311 1096 OFFCURVE",
"35 814 OFFCURVE",
"35 428 CURVE SMOOTH",
"35 174 OFFCURVE",
"154 -12 OFFCURVE",
"425 -12 CURVE SMOOTH",
"669 -12 OFFCURVE",
"859 105 OFFCURVE",
"936 215 CURVE"
);
}
);
width = 1026;
}
);
leftKerningGroup = o;
rightKerningGroup = c;
unicode = 0063;
},
{
glyphname = ccedilla;
lastChange = "2020-07-08 20:02:44 +0000";
layers = (
{
components = (
{
name = c;
}
);
layerId = "82219AB4-7C60-4B3A-9196-329BE868CB10";
paths = (
{
closed = 1;
nodes = (
"540 -462 OFFCURVE",
"693 -400 OFFCURVE",
"693 -227 CURVE SMOOTH",
"693 -134 OFFCURVE",
"628 -87 OFFCURVE",
"532 -87 CURVE SMOOTH",
"484 -87 OFFCURVE",
"419 -106 OFFCURVE",
"400 -119 CURVE",
"441 39 LINE",
"369 43 LINE",
"302 -212 LINE",
"345 -194 OFFCURVE",
"447 -159 OFFCURVE",
"505 -159 CURVE SMOOTH",
"577 -159 OFFCURVE",
"603 -189 OFFCURVE",
"603 -242 CURVE SMOOTH",
"603 -362 OFFCURVE",
"493 -392 OFFCURVE",
"347 -392 CURVE SMOOTH",
"296 -392 OFFCURVE",
"222 -374 OFFCURVE",
"184 -364 CURVE",
"157 -437 LINE",
"176 -444 OFFCURVE",
"239 -462 OFFCURVE",
"343 -462 CURVE SMOOTH"
);
}
);
width = 1026;
},
{
components = (
{
name = c;
}
);
layerId = "63DB0068-8B02-4205-807F-6F2453D24B26";
paths = (
{
closed = 1;
nodes = (
"531 -537 OFFCURVE",
"784 -453 OFFCURVE",
"784 -231 CURVE SMOOTH",
"784 -124 OFFCURVE",
"720 -77 OFFCURVE",
"624 -77 CURVE SMOOTH",
"554 -77 OFFCURVE",
"495 -105 OFFCURVE",
"467 -139 CURVE",
"512 39 LINE",
"292 27 LINE",
"201 -257 LINE",
"238 -244 OFFCURVE",
"322 -229 OFFCURVE",
"399 -229 CURVE SMOOTH",
"464 -229 OFFCURVE",
"515 -239 OFFCURVE",
"515 -272 CURVE SMOOTH",
"515 -315 OFFCURVE",
"446 -337 OFFCURVE",
"324 -337 CURVE SMOOTH",
"291 -337 OFFCURVE",
"209 -325 OFFCURVE",
"181 -312 CURVE",
"92 -515 LINE",
"112 -520 OFFCURVE",
"192 -537 OFFCURVE",
"297 -537 CURVE SMOOTH"
);
}
);
width = 1026;
}
);
leftKerningGroup = o;
rightKerningGroup = c;
unicode = 00E7;
},
{
glyphname = d;
lastChange = "2020-07-21 15:53:24 +0000";
layers = (
{
anchors = (
{
name = bottom;
position = "{455.585, 0}";
},
{
name = center;
position = "{1086, 1222}";
},
{
name = top;
position = "{849.47, 1470}";
},
{
name = topright;
position = "{1218, 998}";
}
);
layerId = "82219AB4-7C60-4B3A-9196-329BE868CB10";
paths = (
{
closed = 1;
nodes = (
"799 2 OFFCURVE",
"847 1 OFFCURVE",
"874 1 CURVE",
"996 456 OFFCURVE",
"1125 923 OFFCURVE",
"1291 1397 CURVE",
"1273 1398 OFFCURVE",
"1237 1400 OFFCURVE",
"1208 1400 CURVE",
"1176 1313 OFFCURVE",
"1051 944 OFFCURVE",
"1020 838 CURVE",
"984 872 OFFCURVE",
"873 959 OFFCURVE",
"662 959 CURVE SMOOTH",
"317 959 OFFCURVE",
"76 732 OFFCURVE",
"76 381 CURVE SMOOTH",
"76 141 OFFCURVE",
"205 8 OFFCURVE",
"414 8 CURVE SMOOTH",
"700 8 OFFCURVE",
"833 184 OFFCURVE",
"845 203 CURVE",
"837 174 OFFCURVE",
"802 44 OFFCURVE",
"791 3 CURVE"
);
},
{
closed = 1;
nodes = (
"273 85 OFFCURVE",
"162 183 OFFCURVE",
"162 393 CURVE SMOOTH",
"162 697 OFFCURVE",
"353 878 OFFCURVE",
"659 878 CURVE SMOOTH",
"842 878 OFFCURVE",
"956 790 OFFCURVE",
"994 749 CURVE",
"975 680 OFFCURVE",
"896 413 OFFCURVE",
"874 341 CURVE",
"848 303 OFFCURVE",
"686 85 OFFCURVE",
"439 85 CURVE SMOOTH"
);
}
);
width = 1195;
},
{
anchors = (
{
name = bottom;
position = "{426, 0}";
},
{
name = center;
position = "{1054, 1177}";
},
{
name = top;
position = "{819, 1470}";
},
{
name = topright;
position = "{1277, 1023}";
}
);
layerId = "63DB0068-8B02-4205-807F-6F2453D24B26";
paths = (
{
closed = 1;
nodes = (
"708 -5 OFFCURVE",
"901 -8 OFFCURVE",
"957 -8 CURVE",
"1093 516 OFFCURVE",
"1216 963 OFFCURVE",
"1371 1418 CURVE",
"1285 1443 OFFCURVE",
"1157 1454 OFFCURVE",
"1064 1454 CURVE",
"1034 1379 OFFCURVE",
"919 1060 OFFCURVE",
"863 851 CURVE",
"843 908 OFFCURVE",
"727 959 OFFCURVE",
"598 959 CURVE SMOOTH",
"266 959 OFFCURVE",
"31 714 OFFCURVE",
"31 379 CURVE SMOOTH",
"31 175 OFFCURVE",
"184 -3 OFFCURVE",
"367 -3 CURVE SMOOTH",
"541 -3 OFFCURVE",
"609 66 OFFCURVE",
"655 120 CURVE",
"645 84 OFFCURVE",
"632 27 OFFCURVE",
"629 3 CURVE"
);
},
{
closed = 1;
nodes = (
"447 361 OFFCURVE",
"401 399 OFFCURVE",
"401 471 CURVE SMOOTH",
"401 573 OFFCURVE",
"490 645 OFFCURVE",
"590 645 CURVE SMOOTH",
"655 645 OFFCURVE",
"737 615 OFFCURVE",
"768 574 CURVE",
"758 542 OFFCURVE",
"743 487 OFFCURVE",
"730 439 CURVE",
"663 378 OFFCURVE",
"581 361 OFFCURVE",
"513 361 CURVE SMOOTH"
);
}
);
width = 1195;
}
);
leftKerningGroup = o;
rightKerningGroup = l;
unicode = 0064;
},
{
glyphname = eth;
lastChange = "2020-06-18 20:06:06 +0000";
layers = (
{
layerId = "82219AB4-7C60-4B3A-9196-329BE868CB10";
paths = (
{
closed = 1;
nodes = (
"786 -17 OFFCURVE",
"1032 326 OFFCURVE",
"1032 687 CURVE SMOOTH",
"1032 891 OFFCURVE",
"920 1026 OFFCURVE",
"716 1118 CURVE",
"753 1169 OFFCURVE",
"828 1280 OFFCURVE",
"857 1330 CURVE",
"767 1366 LINE",
"743 1309 OFFCURVE",
"670 1195 OFFCURVE",
"638 1154 CURVE",
"606 1166 OFFCURVE",
"432 1229 OFFCURVE",
"378 1244 CURVE",
"323 1179 LINE",
"378 1162 OFFCURVE",
"520 1117 OFFCURVE",
"583 1084 CURVE",
"558 1056 OFFCURVE",
"449 938 OFFCURVE",
"430 923 CURVE",
"445 912 OFFCURVE",
"477 896 OFFCURVE",
"499 887 CURVE",
"550 923 OFFCURVE",
"625 1003 OFFCURVE",
"660 1046 CURVE",
"795 998 OFFCURVE",
"946 874 OFFCURVE",
"946 730 CURVE",
"926 790 OFFCURVE",
"811 846 OFFCURVE",
"671 846 CURVE SMOOTH",
"342 846 OFFCURVE",
"94 601 OFFCURVE",
"94 278 CURVE SMOOTH",
"94 88 OFFCURVE",
"221 -17 OFFCURVE",
"446 -17 CURVE SMOOTH"
);
},
{
closed = 1;
nodes = (
"284 53 OFFCURVE",
"190 130 OFFCURVE",
"190 300 CURVE SMOOTH",
"190 576 OFFCURVE",
"405 774 OFFCURVE",
"680 774 CURVE SMOOTH",
"825 774 OFFCURVE",
"917 687 OFFCURVE",
"917 554 CURVE SMOOTH",
"917 302 OFFCURVE",
"694 53 OFFCURVE",
"439 53 CURVE SMOOTH"
);
}
);
width = 1200;
},
{
layerId = "63DB0068-8B02-4205-807F-6F2453D24B26";
paths = (
{
closed = 1;
nodes = (
"888 -17 OFFCURVE",
"1142 297 OFFCURVE",
"1142 724 CURVE SMOOTH",
"1142 950 OFFCURVE",
"1054 1088 OFFCURVE",
"858 1188 CURVE",
"894 1229 OFFCURVE",
"920 1271 OFFCURVE",
"949 1321 CURVE",
"702 1412 LINE",
"672 1366 OFFCURVE",
"649 1333 OFFCURVE",
"617 1292 CURVE",
"586 1304 OFFCURVE",
"505 1325 OFFCURVE",
"448 1330 CURVE",
"231 1075 LINE",
"292 1063 OFFCURVE",
"352 1048 OFFCURVE",
"395 1032 CURVE",
"370 1005 OFFCURVE",
"340 977 OFFCURVE",
"303 949 CURVE",
"349 926 OFFCURVE",
"446 877 OFFCURVE",
"516 836 CURVE",
"560 871 OFFCURVE",
"608 910 OFFCURVE",
"650 950 CURVE",
"676 938 OFFCURVE",
"748 874 OFFCURVE",
"775 826 CURVE",
"761 832 OFFCURVE",
"727 839 OFFCURVE",
"695 839 CURVE SMOOTH",
"364 839 OFFCURVE",
"55 651 OFFCURVE",
"55 321 CURVE SMOOTH",
"55 88 OFFCURVE",
"222 -17 OFFCURVE",
"479 -17 CURVE SMOOTH"
);
},
{
closed = 1;
nodes = (
"482 297 OFFCURVE",
"400 329 OFFCURVE",
"400 396 CURVE SMOOTH",
"400 503 OFFCURVE",
"519 563 OFFCURVE",
"640 563 CURVE SMOOTH",
"724 563 OFFCURVE",
"763 529 OFFCURVE",
"763 469 CURVE SMOOTH",
"763 354 OFFCURVE",
"651 297 OFFCURVE",
"545 297 CURVE SMOOTH"
);
}
);
width = 1200;
}
);
leftKerningGroup = h;
rightKerningGroup = b;
unicode = 00F0;
},
{
glyphname = dcroat;
lastChange = "2020-06-18 20:04:41 +0000";
layers = (
{
components = (
{
name = d;
}
);
layerId = "82219AB4-7C60-4B3A-9196-329BE868CB10";
paths = (
{
closed = 1;
nodes = (
"1359 1152 OFFCURVE",
"1360 1169 OFFCURVE",
"1360 1188 CURVE",
"1296 1200 OFFCURVE",
"908 1229 OFFCURVE",
"766 1229 CURVE",
"762 1222 OFFCURVE",
"754 1194 OFFCURVE",
"748 1170 CURVE",
"916 1170 OFFCURVE",
"1189 1153 OFFCURVE",
"1355 1138 CURVE"
);
}
);
width = 1195;
},
{
components = (
{
name = d;
}
);
layerId = "63DB0068-8B02-4205-807F-6F2453D24B26";
paths = (
{
closed = 1;
nodes = (
"1357 1133 OFFCURVE",
"1377 1188 OFFCURVE",
"1393 1245 CURVE",
"1249 1273 OFFCURVE",
"874 1300 OFFCURVE",
"739 1300 CURVE",
"728 1270 OFFCURVE",
"697 1184 OFFCURVE",
"675 1099 CURVE",
"791 1099 OFFCURVE",
"1133 1089 OFFCURVE",
"1333 1073 CURVE"
);
}
);
width = 1195;
}
);
leftKerningGroup = o;
rightKerningGroup = l;
unicode = 0111;
},
{
glyphname = e;
lastChange = "2020-07-16 19:45:19 +0000";
layers = (
{
anchors = (
{
name = bottom;
position = "{424, 10}";
},
{
name = ogonek;
position = "{612, 53}";
},
{
name = top;
position = "{728, 1063}";
}
);
layerId = "82219AB4-7C60-4B3A-9196-329BE868CB10";
paths = (
{
closed = 1;
nodes = (
"953 284 OFFCURVE",
"922 319 OFFCURVE",
"908 333 CURVE",
"898 319 OFFCURVE",
"728 101 OFFCURVE",
"459 101 CURVE SMOOTH",
"278 101 OFFCURVE",
"165 229 OFFCURVE",
"165 381 CURVE SMOOTH",
"165 423 OFFCURVE",
"169 468 OFFCURVE",
"176 498 CURVE",
"258 509 OFFCURVE",
"485 523 OFFCURVE",
"629 528 CURVE SMOOTH",
"781 533 OFFCURVE",
"966 535 OFFCURVE",
"985 535 CURVE",
"1006 615 OFFCURVE",
"1017 679 OFFCURVE",
"1017 746 CURVE SMOOTH",
"1017 942 OFFCURVE",
"917 1070 OFFCURVE",
"714 1070 CURVE SMOOTH",
"363 1070 OFFCURVE",
"85 799 OFFCURVE",
"85 419 CURVE SMOOTH",
"85 165 OFFCURVE",
"222 27 OFFCURVE",
"453 27 CURVE SMOOTH",
"731 27 OFFCURVE",
"904 207 OFFCURVE",
"956 266 CURVE"
);
},
{
closed = 1;
nodes = (
"237 849 OFFCURVE",
"483 984 OFFCURVE",
"702 984 CURVE SMOOTH",
"880 984 OFFCURVE",
"934 869 OFFCURVE",
"934 751 CURVE SMOOTH",
"934 704 OFFCURVE",
"928 651 OFFCURVE",
"918 615 CURVE",
"907 615 OFFCURVE",
"779 612 OFFCURVE",
"658 609 CURVE SMOOTH",
"451 604 OFFCURVE",
"255 589 OFFCURVE",
"188 578 CURVE"
);
}
);
width = 1092;
},
{
anchors = (
{
name = bottom;
position = "{403, 10}";
},
{
name = ogonek;
position = "{678, 18}";
},
{
name = top;
position = "{737, 1063}";
}
);
layerId = "63DB0068-8B02-4205-807F-6F2453D24B26";
paths = (
{
closed = 1;
nodes = (
"950 253 OFFCURVE",
"811 429 OFFCURVE",
"797 442 CURVE",
"698 368 OFFCURVE",
"635 349 OFFCURVE",
"560 349 CURVE SMOOTH",
"482 349 OFFCURVE",
"417 375 OFFCURVE",
"417 440 CURVE SMOOTH",
"417 461 OFFCURVE",
"420 472 OFFCURVE",
"425 482 CURVE",
"476 491 OFFCURVE",
"570 502 OFFCURVE",
"673 502 CURVE SMOOTH",
"718 502 OFFCURVE",
"1014 497 OFFCURVE",
"1056 495 CURVE",
"1096 562 OFFCURVE",
"1118 654 OFFCURVE",
"1118 736 CURVE SMOOTH",
"1118 945 OFFCURVE",
"974 1063 OFFCURVE",
"727 1063 CURVE SMOOTH",
"336 1063 OFFCURVE",
"30 792 OFFCURVE",
"30 363 CURVE SMOOTH",
"30 116 OFFCURVE",
"205 -16 OFFCURVE",
"467 -16 CURVE SMOOTH",
"708 -16 OFFCURVE",
"865 50 OFFCURVE",
"978 152 CURVE"
);
},
{
closed = 1;
nodes = (
"516 748 OFFCURVE",
"581 831 OFFCURVE",
"680 831 CURVE SMOOTH",
"749 831 OFFCURVE",
"792 793 OFFCURVE",
"794 744 CURVE SMOOTH",
"794 734 OFFCURVE",
"794 724 OFFCURVE",
"791 714 CURVE",
"774 715 OFFCURVE",
"728 717 OFFCURVE",
"682 717 CURVE SMOOTH",
"600 717 OFFCURVE",
"538 710 OFFCURVE",
"499 704 CURVE"
);
}
);
width = 1123;
}
);
leftKerningGroup = o;
rightKerningGroup = e;
unicode = 0065;
},
{
glyphname = ecedillabreve;
lastChange = "2020-07-08 20:02:37 +0000";
layers = (
{
components = (
{
name = e;
},
{
name = brevecomb;
transform = "{1, 0, 0, 1, 145, 10}";
}
);
layerId = "82219AB4-7C60-4B3A-9196-329BE868CB10";
paths = (
{
closed = 1;
nodes = (
"565 -452 OFFCURVE",
"718 -390 OFFCURVE",
"718 -217 CURVE SMOOTH",
"718 -124 OFFCURVE",
"653 -77 OFFCURVE",
"557 -77 CURVE SMOOTH",
"509 -77 OFFCURVE",
"444 -96 OFFCURVE",
"425 -109 CURVE",
"466 49 LINE",
"394 53 LINE",
"327 -202 LINE",
"370 -184 OFFCURVE",
"472 -149 OFFCURVE",
"530 -149 CURVE SMOOTH",
"602 -149 OFFCURVE",
"628 -179 OFFCURVE",
"628 -232 CURVE SMOOTH",
"628 -352 OFFCURVE",
"518 -382 OFFCURVE",
"372 -382 CURVE SMOOTH",
"321 -382 OFFCURVE",
"247 -364 OFFCURVE",
"209 -354 CURVE",
"182 -427 LINE",
"201 -434 OFFCURVE",
"264 -452 OFFCURVE",
"368 -452 CURVE SMOOTH"
);
}
);
width = 1092;
},
{
components = (
{
name = e;
},
{
name = brevecomb;
transform = "{1, 0, 0, 1, 118, 10}";
}
);
layerId = "63DB0068-8B02-4205-807F-6F2453D24B26";
paths = (
{
closed = 1;
nodes = (
"541 -537 OFFCURVE",
"794 -453 OFFCURVE",
"794 -231 CURVE SMOOTH",
"794 -124 OFFCURVE",
"730 -77 OFFCURVE",
"634 -77 CURVE SMOOTH",
"564 -77 OFFCURVE",
"505 -105 OFFCURVE",
"477 -139 CURVE",
"522 39 LINE",
"302 27 LINE",
"211 -257 LINE",
"248 -244 OFFCURVE",
"332 -229 OFFCURVE",
"409 -229 CURVE SMOOTH",
"474 -229 OFFCURVE",
"525 -239 OFFCURVE",
"525 -272 CURVE SMOOTH",
"525 -315 OFFCURVE",
"456 -337 OFFCURVE",
"334 -337 CURVE SMOOTH",
"301 -337 OFFCURVE",
"219 -325 OFFCURVE",
"191 -312 CURVE",
"102 -515 LINE",
"122 -520 OFFCURVE",
"202 -537 OFFCURVE",
"307 -537 CURVE SMOOTH"
);
}
);
width = 1123;
}
);
unicode = 1E1D;
},
{
glyphname = eogonek;
lastChange = "2020-07-21 16:08:27 +0000";
layers = (
{
components = (
{
name = e;
}
);
layerId = "82219AB4-7C60-4B3A-9196-329BE868CB10";
paths = (
{
closed = 1;
nodes = (
"780 -310 OFFCURVE",
"731 -330 OFFCURVE",
"637 -330 CURVE SMOOTH",
"547 -330 OFFCURVE",
"490 -299 OFFCURVE",
"490 -197 CURVE SMOOTH",
"490 -84 OFFCURVE",
"620 50 OFFCURVE",
"732 93 CURVE",
"667 138 LINE",
"528 79 OFFCURVE",
"404 -61 OFFCURVE",
"404 -204 CURVE SMOOTH",
"404 -333 OFFCURVE",
"484 -410 OFFCURVE",
"621 -410 CURVE SMOOTH",
"725 -410 OFFCURVE",
"797 -388 OFFCURVE",
"853 -364 CURVE",
"853 -277 LINE"
);
}
);
width = 1092;
},
{
components = (
{
name = e;
}
);
layerId = "63DB0068-8B02-4205-807F-6F2453D24B26";
paths = (
{
closed = 1;
nodes = (
"753 -264 OFFCURVE",
"708 -273 OFFCURVE",
"665 -273 CURVE SMOOTH",
"612 -273 OFFCURVE",
"558 -249 OFFCURVE",
"558 -177 CURVE SMOOTH",
"558 -97 OFFCURVE",
"633 -13 OFFCURVE",
"678 18 CURVE",
"542 76 LINE",
"477 57 OFFCURVE",
"295 -94 OFFCURVE",
"295 -266 CURVE SMOOTH",
"295 -433 OFFCURVE",
"439 -518 OFFCURVE",
"597 -518 CURVE SMOOTH",
"701 -518 OFFCURVE",
"763 -505 OFFCURVE",
"792 -493 CURVE",
"792 -236 LINE"
);
}
);
width = 1123;
}
);
leftKerningGroup = o;
rightKerningGroup = e;
unicode = 0119;
},
{
glyphname = schwa;
lastChange = "2020-02-19 21:15:26 +0000";
layers = (
{
anchors = (
{
name = bottom;
position = "{373.585, 0}";
},
{
name = ogonek;
position = "{445, 43}";
},
{
name = top;
position = "{658.415, 1063}";
}
);
layerId = "82219AB4-7C60-4B3A-9196-329BE868CB10";
paths = (
{
closed = 1;
nodes = (
"177 803 OFFCURVE",
"212 768 OFFCURVE",
"226 754 CURVE",
"236 768 OFFCURVE",
"402 986 OFFCURVE",
"671 986 CURVE SMOOTH",
"845 986 OFFCURVE",
"936 886 OFFCURVE",
"936 726 CURVE SMOOTH",
"936 685 OFFCURVE",
"929 639 OFFCURVE",
"918 590 CURVE",
"770 584 OFFCURVE",
"632 577 OFFCURVE",
"476 570 CURVE SMOOTH",
"333 564 OFFCURVE",
"163 559 OFFCURVE",
"144 559 CURVE",
"127 493 OFFCURVE",
"112 408 OFFCURVE",
"112 341 CURVE SMOOTH",
"112 145 OFFCURVE",
"214 17 OFFCURVE",
"417 17 CURVE SMOOTH",
"770 17 OFFCURVE",
"1017 360 OFFCURVE",
"1017 730 CURVE SMOOTH",
"1017 932 OFFCURVE",
"911 1060 OFFCURVE",
"683 1060 CURVE SMOOTH",
"415 1060 OFFCURVE",
"216 880 OFFCURVE",
"174 821 CURVE"
);
},
{
closed = 1;
nodes = (
"823 238 OFFCURVE",
"647 103 OFFCURVE",
"428 103 CURVE SMOOTH",
"245 103 OFFCURVE",
"196 235 OFFCURVE",
"196 355 CURVE SMOOTH",
"196 398 OFFCURVE",
"203 441 OFFCURVE",
"212 475 CURVE",
"223 475 OFFCURVE",
"316 485 OFFCURVE",
"428 489 CURVE SMOOTH",
"632 497 OFFCURVE",
"779 503 OFFCURVE",
"902 509 CURVE"
);
}
);
width = 1032;
},
{
anchors = (
{
name = bottom;
position = "{373.585, 0}";
},
{
name = ogonek;
position = "{439, 20}";
},
{
name = top;
position = "{658.415, 1063}";
}
);
layerId = "63DB0068-8B02-4205-807F-6F2453D24B26";
paths = (
{
closed = 1;
nodes = (
"160 786 OFFCURVE",
"247 646 OFFCURVE",
"261 633 CURVE",
"369 707 OFFCURVE",
"493 721 OFFCURVE",
"543 721 CURVE SMOOTH",
"621 721 OFFCURVE",
"679 676 OFFCURVE",
"679 610 CURVE SMOOTH",
"679 596 OFFCURVE",
"679 581 OFFCURVE",
"674 565 CURVE",
"624 558 OFFCURVE",
"527 545 OFFCURVE",
"423 542 CURVE SMOOTH",
"331 539 OFFCURVE",
"89 532 OFFCURVE",
"56 532 CURVE",
"16 456 OFFCURVE",
"-5 375 OFFCURVE",
"-5 282 CURVE SMOOTH",
"-5 79 OFFCURVE",
"134 -16 OFFCURVE",
"363 -16 CURVE SMOOTH",
"759 -16 OFFCURVE",
"1030 284 OFFCURVE",
"1030 681 CURVE SMOOTH",
"1030 918 OFFCURVE",
"866 1063 OFFCURVE",
"663 1063 CURVE SMOOTH",
"485 1063 OFFCURVE",
"265 999 OFFCURVE",
"142 897 CURVE"
);
},
{
closed = 1;
nodes = (
"589 329 OFFCURVE",
"519 226 OFFCURVE",
"420 226 CURVE SMOOTH",
"351 226 OFFCURVE",
"306 264 OFFCURVE",
"306 313 CURVE SMOOTH",
"306 323 OFFCURVE",
"306 333 OFFCURVE",
"309 343 CURVE",
"324 343 OFFCURVE",
"374 347 OFFCURVE",
"421 351 CURVE SMOOTH",
"505 358 OFFCURVE",
"567 367 OFFCURVE",
"606 373 CURVE"
);
}
);
width = 1032;
}
);
leftKerningGroup = o;
rightKerningGroup = o;
unicode = 0259;
},
{
glyphname = f;
lastChange = "2020-07-16 19:17:22 +0000";
layers = (
{
anchors = (
{
name = bottom;
position = "{305.585, 0}";
},
{
name = top;
position = "{699.47, 1470}";
}
);
layerId = "82219AB4-7C60-4B3A-9196-329BE868CB10";
paths = (
{
closed = 1;
nodes = (
"232 3 OFFCURVE",
"283 12 OFFCURVE",
"314 19 CURVE",
"314 115 OFFCURVE",
"340 472 OFFCURVE",
"354 583 CURVE",
"486 600 OFFCURVE",
"673 614 OFFCURVE",
"692 614 CURVE",
"699 639 OFFCURVE",
"705 672 OFFCURVE",
"706 691 CURVE",
"633 691 OFFCURVE",
"435 670 OFFCURVE",
"363 660 CURVE",
"374 728 OFFCURVE",
"394 840 OFFCURVE",
"413 912 CURVE SMOOTH",
"465 1108 OFFCURVE",
"562 1293 OFFCURVE",
"750 1293 CURVE SMOOTH",
"933 1293 OFFCURVE",
"958 1081 OFFCURVE",
"962 1046 CURVE",
"982 1058 OFFCURVE",
"1030 1092 OFFCURVE",
"1045 1106 CURVE",
"1039 1167 OFFCURVE",
"967 1368 OFFCURVE",
"758 1368 CURVE SMOOTH",
"539 1368 OFFCURVE",
"394 1170 OFFCURVE",
"329 923 CURVE SMOOTH",
"307 839 OFFCURVE",
"288 737 OFFCURVE",
"275 646 CURVE",
"246 641 OFFCURVE",
"82 603 OFFCURVE",
"54 593 CURVE",
"54 578 OFFCURVE",
"54 534 OFFCURVE",
"53 520 CURVE",
"98 535 OFFCURVE",
"197 559 OFFCURVE",
"263 571 CURVE",
"238 368 OFFCURVE",
"216 21 OFFCURVE",
"215 2 CURVE"
);
}
);
width = 896;
},
{
anchors = (
{
name = bottom;
position = "{305.585, 0}";
},
{
name = top;
position = "{699.47, 1470}";
}
);
layerId = "63DB0068-8B02-4205-807F-6F2453D24B26";
paths = (
{
closed = 1;
nodes = (
"212 -15 OFFCURVE",
"413 -12 OFFCURVE",
"515 4 CURVE",
"519 55 OFFCURVE",
"549 400 OFFCURVE",
"557 475 CURVE",
"607 479 OFFCURVE",
"731 482 OFFCURVE",
"750 482 CURVE",
"776 576 OFFCURVE",
"808 709 OFFCURVE",
"821 796 CURVE",
"784 802 OFFCURVE",
"663 809 OFFCURVE",
"603 809 CURVE",
"603 827 OFFCURVE",
"605 849 OFFCURVE",
"610 868 CURVE SMOOTH",
"626 930 OFFCURVE",
"669 972 OFFCURVE",
"734 972 CURVE SMOOTH",
"770 972 OFFCURVE",
"811 945 OFFCURVE",
"834 898 CURVE",
"878 944 OFFCURVE",
"1028 1115 OFFCURVE",
"1107 1213 CURVE",
"1085 1265 OFFCURVE",
"1010 1357 OFFCURVE",
"779 1357 CURVE SMOOTH",
"486 1357 OFFCURVE",
"295 1133 OFFCURVE",
"231 898 CURVE SMOOTH",
"218 850 OFFCURVE",
"209 801 OFFCURVE",
"203 752 CURVE",
"176 747 OFFCURVE",
"110 730 OFFCURVE",
"83 721 CURVE",
"54 623 OFFCURVE",
"31 463 OFFCURVE",
"31 385 CURVE",
"76 400 OFFCURVE",
"129 414 OFFCURVE",
"147 417 CURVE",
"131 313 OFFCURVE",
"86 3 OFFCURVE",
"84 -15 CURVE"
);
}
);
width = 896;
}
);
leftKerningGroup = f;
rightKerningGroup = f;
unicode = 0066;
},
{
glyphname = g;
lastChange = "2020-07-08 20:47:24 +0000";
layers = (
{
anchors = (
{
name = bottom;
position = "{331.572, -530}";
},
{
name = top;
position = "{758.415, 1063}";
}
);
layerId = "82219AB4-7C60-4B3A-9196-329BE868CB10";
paths = (
{
closed = 1;
nodes = (
"861 205 OFFCURVE",
"1094 424 OFFCURVE",
"1094 743 CURVE SMOOTH",
"1094 933 OFFCURVE",
"970 1056 OFFCURVE",
"741 1056 CURVE SMOOTH",
"439 1056 OFFCURVE",
"192 827 OFFCURVE",
"192 531 CURVE SMOOTH",
"192 369 OFFCURVE",
"282 205 OFFCURVE",
"548 205 CURVE SMOOTH"
);
},
{
closed = 1;
nodes = (
"626 -499 OFFCURVE",
"883 -404 OFFCURVE",
"883 -128 CURVE SMOOTH",
"883 5 OFFCURVE",
"762 72 OFFCURVE",
"577 72 CURVE SMOOTH",
"499 72 OFFCURVE",
"384 72 OFFCURVE",
"301 72 CURVE SMOOTH",
"94 72 OFFCURVE",
"-125 -48 OFFCURVE",
"-125 -251 CURVE SMOOTH",
"-125 -420 OFFCURVE",
"59 -499 OFFCURVE",
"313 -499 CURVE SMOOTH"
);
},
{
closed = 1;
nodes = (
"132 -429 OFFCURVE",
"-32 -376 OFFCURVE",
"-32 -232 CURVE SMOOTH",
"-32 -84 OFFCURVE",
"137 2 OFFCURVE",
"279 2 CURVE SMOOTH",
"374 2 OFFCURVE",
"471 2 OFFCURVE",
"572 2 CURVE SMOOTH",
"675 2 OFFCURVE",
"791 -25 OFFCURVE",
"791 -148 CURVE SMOOTH",
"791 -360 OFFCURVE",
"563 -429 OFFCURVE",
"330 -429 CURVE SMOOTH"
);
},
{
closed = 1;
nodes = (
"301 72 LINE",
"213 72 OFFCURVE",
"166 123 OFFCURVE",
"166 176 CURVE SMOOTH",
"166 234 OFFCURVE",
"225 280 OFFCURVE",
"316 303 CURVE",
"276 350 LINE",
"171 334 OFFCURVE",
"76 265 OFFCURVE",
"76 164 CURVE SMOOTH",
"76 99 OFFCURVE",
"126 23 OFFCURVE",
"227 9 CURVE"
);
},
{
closed = 1;
nodes = (
"370 282 OFFCURVE",
"281 394 OFFCURVE",
"281 540 CURVE SMOOTH",
"281 802 OFFCURVE",
"481 974 OFFCURVE",
"748 974 CURVE SMOOTH",
"924 974 OFFCURVE",
"1011 868 OFFCURVE",
"1011 723 CURVE SMOOTH",
"1011 463 OFFCURVE",
"816 282 OFFCURVE",
"542 282 CURVE SMOOTH"
);
},
{
closed = 1;
nodes = (
"1049 909 OFFCURVE",
"1215 1044 OFFCURVE",
"1245 1067 CURVE",
"1233 1078 OFFCURVE",
"1197 1115 OFFCURVE",
"1187 1132 CURVE",
"1126 1083 OFFCURVE",
"1024 990 OFFCURVE",
"964 912 CURVE",
"1010 872 LINE"
);
}
);
width = 1231;
},
{
anchors = (
{
name = bottom;
position = "{331.572, -530}";
},
{
name = top;
position = "{758.415, 1063}";
}
);
layerId = "63DB0068-8B02-4205-807F-6F2453D24B26";
paths = (
{
closed = 1;
nodes = (
"939 274 OFFCURVE",
"1183 436 OFFCURVE",
"1183 737 CURVE SMOOTH",
"1183 933 OFFCURVE",
"1055 1056 OFFCURVE",
"747 1056 CURVE SMOOTH",
"416 1056 OFFCURVE",
"129 922 OFFCURVE",
"129 606 CURVE SMOOTH",
"129 431 OFFCURVE",
"233 274 OFFCURVE",
"626 274 CURVE SMOOTH"
);
},
{
closed = 1;
nodes = (
"723 -499 OFFCURVE",
"1024 -373 OFFCURVE",
"1024 -46 CURVE SMOOTH",
"1024 123 OFFCURVE",
"914 207 OFFCURVE",
"724 207 CURVE SMOOTH",
"582 207 OFFCURVE",
"523 203 OFFCURVE",
"442 197 CURVE SMOOTH",
"159 176 OFFCURVE",
"-132 44 OFFCURVE",
"-132 -210 CURVE SMOOTH",
"-132 -430 OFFCURVE",
"71 -499 OFFCURVE",
"377 -499 CURVE SMOOTH"
);
},
{
closed = 1;
nodes = (
"320 -264 OFFCURVE",
"259 -230 OFFCURVE",
"259 -179 CURVE SMOOTH",
"259 -110 OFFCURVE",
"308 -77 OFFCURVE",
"388 -77 CURVE SMOOTH",
"432 -77 OFFCURVE",
"498 -77 OFFCURVE",
"537 -77 CURVE SMOOTH",
"596 -77 OFFCURVE",
"643 -95 OFFCURVE",
"643 -141 CURVE SMOOTH",
"643 -224 OFFCURVE",
"538 -264 OFFCURVE",
"431 -264 CURVE SMOOTH"
);
},
{
closed = 1;
nodes = (
"442 197 LINE",
"383 197 OFFCURVE",
"356 219 OFFCURVE",
"356 245 CURVE SMOOTH",
"356 270 OFFCURVE",
"384 301 OFFCURVE",
"437 318 CURVE",
"218 436 LINE",
"135 411 OFFCURVE",
"48 320 OFFCURVE",
"48 233 CURVE SMOOTH",
"48 169 OFFCURVE",
"103 117 OFFCURVE",
"262 80 CURVE"
);
},
{
closed = 1;
nodes = (
"589 566 OFFCURVE",
"532 593 OFFCURVE",
"532 657 CURVE SMOOTH",
"532 750 OFFCURVE",
"631 774 OFFCURVE",
"710 774 CURVE SMOOTH",
"773 774 OFFCURVE",
"825 737 OFFCURVE",
"825 675 CURVE SMOOTH",
"825 591 OFFCURVE",
"748 566 OFFCURVE",
"664 566 CURVE SMOOTH"
);
},
{
closed = 1;
nodes = (
"1184 870 OFFCURVE",
"1274 924 OFFCURVE",
"1355 956 CURVE",
"1324 1017 OFFCURVE",
"1271 1143 OFFCURVE",
"1251 1193 CURVE",
"1149 1156 OFFCURVE",
"1009 1045 OFFCURVE",
"969 967 CURVE",
"1139 781 LINE"
);
}
);
width = 1231;
}
);
leftKerningGroup = g.ss01;
rightKerningGroup = g.ss01;
unicode = 0067;
},
{
glyphname = g.ss01;
lastChange = "2020-07-08 20:49:20 +0000";
layers = (
{
anchors = (
{
name = bottom;
position = "{342.572, -530}";
},
{
name = top;
position = "{726, 1063}";
}
);
layerId = "82219AB4-7C60-4B3A-9196-329BE868CB10";
paths = (
{
closed = 1;
nodes = (
"-1 -418 OFFCURVE",
"174 -471 OFFCURVE",
"355 -471 CURVE SMOOTH",
"699 -471 OFFCURVE",
"893 -268 OFFCURVE",
"994 103 CURVE SMOOTH",
"1019 195 OFFCURVE",
"1060 477 OFFCURVE",
"1079 614 CURVE SMOOTH",
"1097 745 OFFCURVE",
"1136 912 OFFCURVE",
"1188 1088 CURVE",
"1180 1091 OFFCURVE",
"1164 1093 OFFCURVE",
"1149 1093 CURVE SMOOTH",
"1131 1093 OFFCURVE",
"1115 1092 OFFCURVE",
"1108 1091 CURVE",
"1097 1065 OFFCURVE",
"1076 999 OFFCURVE",
"1066 961 CURVE",
"1026 1019 OFFCURVE",
"908 1062 OFFCURVE",
"768 1062 CURVE SMOOTH",
"416 1062 OFFCURVE",
"154 814 OFFCURVE",
"154 454 CURVE SMOOTH",
"154 232 OFFCURVE",
"263 60 OFFCURVE",
"517 60 CURVE SMOOTH",
"739 60 OFFCURVE",
"890 156 OFFCURVE",
"929 193 CURVE",
"927 172 OFFCURVE",
"922 146 OFFCURVE",
"907 91 CURVE SMOOTH",
"827 -201 OFFCURVE",
"653 -397 OFFCURVE",
"372 -397 CURVE SMOOTH",
"196 -397 OFFCURVE",
"31 -324 OFFCURVE",
"-24 -282 CURVE",
"-38 -296 OFFCURVE",
"-72 -352 OFFCURVE",
"-78 -373 CURVE"
);
},
{
closed = 1;
nodes = (
"330 135 OFFCURVE",
"242 283 OFFCURVE",
"242 468 CURVE SMOOTH",
"242 769 OFFCURVE",
"448 980 OFFCURVE",
"747 980 CURVE SMOOTH",
"887 980 OFFCURVE",
"1005 942 OFFCURVE",
"1042 861 CURVE",
"1010 742 OFFCURVE",
"966 466 OFFCURVE",
"941 273 CURVE",
"872 222 OFFCURVE",
"724 135 OFFCURVE",
"536 135 CURVE SMOOTH"
);
}
);
width = 1253;
},
{
anchors = (
{
name = bottom;
position = "{323, -530}";
},
{
name = top;
position = "{677, 1063}";
}
);
layerId = "63DB0068-8B02-4205-807F-6F2453D24B26";
paths = (
{
closed = 1;
nodes = (
"-6 -399 OFFCURVE",
"246 -479 OFFCURVE",
"470 -479 CURVE SMOOTH",
"766 -479 OFFCURVE",
"985 -347 OFFCURVE",
"1065 -48 CURVE SMOOTH",
"1096 69 OFFCURVE",
"1136 288 OFFCURVE",
"1177 518 CURVE SMOOTH",
"1213 720 OFFCURVE",
"1262 930 OFFCURVE",
"1319 1089 CURVE",
"1261 1103 OFFCURVE",
"1189 1109 OFFCURVE",
"1103 1109 CURVE SMOOTH",
"1052 1109 OFFCURVE",
"975 1107 OFFCURVE",
"949 1103 CURVE",
"930 1056 OFFCURVE",
"912 997 OFFCURVE",
"904 969 CURVE",
"850 1013 OFFCURVE",
"735 1039 OFFCURVE",
"647 1039 CURVE SMOOTH",
"291 1039 OFFCURVE",
"30 828 OFFCURVE",
"30 465 CURVE SMOOTH",
"30 166 OFFCURVE",
"228 60 OFFCURVE",
"487 60 CURVE SMOOTH",
"551 60 OFFCURVE",
"628 61 OFFCURVE",
"714 99 CURVE",
"711 79 OFFCURVE",
"707 60 OFFCURVE",
"702 43 CURVE SMOOTH",
"667 -76 OFFCURVE",
"594 -119 OFFCURVE",
"507 -119 CURVE SMOOTH",
"387 -119 OFFCURVE",
"245 -54 OFFCURVE",
"149 19 CURVE",
"105 -19 OFFCURVE",
"-110 -266 OFFCURVE",
"-121 -286 CURVE"
);
},
{
closed = 1;
nodes = (
"467 408 OFFCURVE",
"394 433 OFFCURVE",
"394 531 CURVE SMOOTH",
"394 651 OFFCURVE",
"497 711 OFFCURVE",
"636 711 CURVE SMOOTH",
"706 711 OFFCURVE",
"773 686 OFFCURVE",
"819 661 CURVE",
"806 614 OFFCURVE",
"791 509 OFFCURVE",
"786 470 CURVE",
"724 441 OFFCURVE",
"631 408 OFFCURVE",
"549 408 CURVE SMOOTH"
);
}
);
width = 1253;
}
);
leftKerningGroup = g;
rightKerningGroup = g;
},
{
glyphname = h;
lastChange = "2020-07-16 19:17:42 +0000";
layers = (
{
anchors = (
{
name = bottom;
position = "{380, 0}";
},
{
name = center;
position = "{512, 1265}";
},
{
name = top;
position = "{451, 1398}";
}
);
layerId = "82219AB4-7C60-4B3A-9196-329BE868CB10";
paths = (
{
closed = 1;
nodes = (
"151 60 OFFCURVE",
"241 349 OFFCURVE",
"304 585 CURVE",
"345 658 OFFCURVE",
"529 827 OFFCURVE",
"726 827 CURVE SMOOTH",
"837 827 OFFCURVE",
"888 771 OFFCURVE",
"888 670 CURVE SMOOTH",
"888 506 OFFCURVE",
"765 189 OFFCURVE",
"677 -11 CURVE",
"687 -13 OFFCURVE",
"706 -15 OFFCURVE",
"725 -15 CURVE SMOOTH",
"744 -15 OFFCURVE",
"763 -15 OFFCURVE",
"777 -14 CURVE",
"868 216 OFFCURVE",
"976 508 OFFCURVE",
"976 669 CURVE SMOOTH",
"976 824 OFFCURVE",
"908 909 OFFCURVE",
"752 909 CURVE SMOOTH",
"587 909 OFFCURVE",
"414 812 OFFCURVE",
"337 716 CURVE",
"410 988 OFFCURVE",
"482 1292 OFFCURVE",
"492 1443 CURVE",
"476 1441 OFFCURVE",
"436 1431 OFFCURVE",
"415 1424 CURVE",
"376 1234 OFFCURVE",
"317 981 OFFCURVE",
"251 733 CURVE SMOOTH",
"170 427 OFFCURVE",
"78 134 OFFCURVE",
"17 -26 CURVE",
"25 -27 OFFCURVE",
"44 -29 OFFCURVE",
"62 -29 CURVE SMOOTH",
"80 -29 OFFCURVE",
"99 -29 OFFCURVE",
"113 -29 CURVE"
);
}
);
width = 1123;
},
{
anchors = (
{
name = bottom;
position = "{419.585, 0}";
},
{
name = center;
position = "{523, 1189}";
},
{
name = top;
position = "{439, 1412}";
}
);
layerId = "63DB0068-8B02-4205-807F-6F2453D24B26";
paths = (
{
closed = 1;
nodes = (
"339 97 OFFCURVE",
"406 295 OFFCURVE",
"461 492 CURVE",
"514 540 OFFCURVE",
"582 580 OFFCURVE",
"645 580 CURVE SMOOTH",
"688 580 OFFCURVE",
"709 548 OFFCURVE",
"709 508 CURVE SMOOTH",
"709 434 OFFCURVE",
"584 124 OFFCURVE",
"534 9 CURVE",
"586 -2 OFFCURVE",
"650 -8 OFFCURVE",
"716 -8 CURVE SMOOTH",
"776 -8 OFFCURVE",
"838 -3 OFFCURVE",
"898 7 CURVE",
"981 189 OFFCURVE",
"1113 548 OFFCURVE",
"1113 709 CURVE SMOOTH",
"1113 844 OFFCURVE",
"1041 913 OFFCURVE",
"877 913 CURVE SMOOTH",
"768 913 OFFCURVE",
"635 870 OFFCURVE",
"549 802 CURVE",
"612 1072 OFFCURVE",
"646 1292 OFFCURVE",
"655 1443 CURVE",
"583 1443 OFFCURVE",
"303 1405 OFFCURVE",
"281 1398 CURVE",
"235 1174 OFFCURVE",
"170 861 OFFCURVE",
"95 583 CURVE SMOOTH",
"28 334 OFFCURVE",
"-47 111 OFFCURVE",
"-89 3 CURVE",
"-58 -11 OFFCURVE",
"20 -16 OFFCURVE",
"107 -16 CURVE SMOOTH",
"180 -16 OFFCURVE",
"254 -12 OFFCURVE",
"293 -5 CURVE"
);
}
);
width = 1123;
}
);
leftKerningGroup = h;
rightKerningGroup = n;
unicode = 0068;
},
{
glyphname = hbar;
lastChange = "2020-06-29 18:08:01 +0000";
layers = (
{
components = (
{
name = h;
}
);
layerId = "82219AB4-7C60-4B3A-9196-329BE868CB10";
paths = (
{
closed = 1;
nodes = (
"800 1194 OFFCURVE",
"807 1222 OFFCURVE",
"807 1229 CURVE",
"665 1229 OFFCURVE",
"261 1200 OFFCURVE",
"191 1188 CURVE",
"184 1179 OFFCURVE",
"174 1152 OFFCURVE",
"170 1138 CURVE",
"344 1153 OFFCURVE",
"625 1170 OFFCURVE",
"793 1170 CURVE"
);
}
);
width = 1123;
},
{
components = (
{
name = h;
}
);
layerId = "63DB0068-8B02-4205-807F-6F2453D24B26";
paths = (
{
closed = 1;
nodes = (
"826 1184 OFFCURVE",
"841 1270 OFFCURVE",
"846 1300 CURVE",
"711 1300 OFFCURVE",
"322 1273 OFFCURVE",
"164 1245 CURVE",
"148 1188 OFFCURVE",
"140 1133 OFFCURVE",
"132 1073 CURVE",
"340 1089 OFFCURVE",
"688 1099 OFFCURVE",
"804 1099 CURVE"
);
}
);
width = 1123;
}
);
leftKerningGroup = h;
rightKerningGroup = n;
unicode = 0127;
},
{
glyphname = i;
lastChange = "2020-06-17 15:22:51 +0000";
layers = (
{
anchors = (
{
name = bottom;
position = "{154, 0}";
}
);
layerId = "82219AB4-7C60-4B3A-9196-329BE868CB10";
paths = (
{
closed = 1;
nodes = (
"217 93 OFFCURVE",
"340 523 OFFCURVE",
"407 776 CURVE SMOOTH",
"426 848 OFFCURVE",
"442 910 OFFCURVE",
"449 938 CURVE",
"435 938 OFFCURVE",
"386 935 OFFCURVE",
"371 933 CURVE",
"312 730 OFFCURVE",
"124 85 OFFCURVE",
"86 -2 CURVE",
"96 -4 OFFCURVE",
"112 -6 OFFCURVE",
"135 -6 CURVE SMOOTH",
"148 -6 OFFCURVE",
"164 -5 OFFCURVE",
"183 -3 CURVE"
);
},
{
closed = 1;
nodes = (
"539 1121 OFFCURVE",
"581 1182 OFFCURVE",
"581 1249 CURVE SMOOTH",
"581 1286 OFFCURVE",
"562 1316 OFFCURVE",
"523 1316 CURVE SMOOTH",
"455 1316 OFFCURVE",
"410 1253 OFFCURVE",
"410 1186 CURVE SMOOTH",
"410 1151 OFFCURVE",
"430 1121 OFFCURVE",
"476 1121 CURVE SMOOTH"
);
}
);
width = 610;
},
{
anchors = (
{
name = bottom;
position = "{166, 0}";
}
);
layerId = "63DB0068-8B02-4205-807F-6F2453D24B26";
paths = (
{
closed = 1;
nodes = (
"374 83 OFFCURVE",
"473 387 OFFCURVE",
"537 627 CURVE SMOOTH",
"571 754 OFFCURVE",
"595 874 OFFCURVE",
"598 922 CURVE",
"508 922 OFFCURVE",
"319 912 OFFCURVE",
"231 904 CURVE",
"170 696 OFFCURVE",
"-29 92 OFFCURVE",
"-67 5 CURVE",
"-5 -3 OFFCURVE",
"60 -6 OFFCURVE",
"121 -6 CURVE SMOOTH",
"210 -6 OFFCURVE",
"303 1 OFFCURVE",
"328 3 CURVE"
);
},
{
closed = 1;
nodes = (
"612 1022 OFFCURVE",
"741 1148 OFFCURVE",
"741 1292 CURVE SMOOTH",
"741 1390 OFFCURVE",
"660 1463 OFFCURVE",
"551 1463 CURVE SMOOTH",
"395 1463 OFFCURVE",
"252 1346 OFFCURVE",
"252 1187 CURVE SMOOTH",
"252 1084 OFFCURVE",
"345 1022 OFFCURVE",
"464 1022 CURVE SMOOTH"
);
}
);
width = 610;
}
);
leftKerningGroup = i;
rightKerningGroup = i;
unicode = 0069;
},
{
glyphname = idotless;
lastChange = "2020-07-08 20:50:42 +0000";
layers = (
{
anchors = (
{
name = bottom;
position = "{129, 0}";
},
{
name = ogonek;
position = "{168, -2}";
},
{
name = top;
position = "{424, 990}";
}
);
layerId = "82219AB4-7C60-4B3A-9196-329BE868CB10";
paths = (
{
closed = 1;
nodes = (
"216 121 OFFCURVE",
"407 812 OFFCURVE",
"442 942 CURVE",
"412 942 OFFCURVE",
"383 940 OFFCURVE",
"364 932 CURVE",
"303 728 OFFCURVE",
"99 85 OFFCURVE",
"59 2 CURVE",
"74 -1 OFFCURVE",
"150 -2 OFFCURVE",
"168 -2 CURVE"
);
}
);
width = 581;
},
{
anchors = (
{
name = bottom;
position = "{99, 0}";
},
{
name = ogonek;
position = "{297, -3}";
},
{
name = top;
position = "{435, 975}";
}
);
layerId = "63DB0068-8B02-4205-807F-6F2453D24B26";
paths = (
{
closed = 1;
nodes = (
"364 120 OFFCURVE",
"572 779 OFFCURVE",
"588 920 CURVE",
"509 920 OFFCURVE",
"326 920 OFFCURVE",
"235 896 CURVE",
"167 689 OFFCURVE",
"-47 110 OFFCURVE",
"-91 21 CURVE",
"54 7 OFFCURVE",
"195 -3 OFFCURVE",
"297 -3 CURVE"
);
}
);
width = 581;
}
);
leftKerningGroup = idotless;
rightKerningGroup = idotless;
unicode = 0131;
},
{
glyphname = iogonek;
lastChange = "2020-07-21 16:07:01 +0000";
layers = (
{
components = (
{
name = idotless;
},
{
name = dotaccentcomb;
transform = "{1, 0, 0, 1, 68, -73}";
}
);
layerId = "82219AB4-7C60-4B3A-9196-329BE868CB10";
paths = (
{
closed = 1;
nodes = (
"216 -405 OFFCURVE",
"167 -425 OFFCURVE",
"73 -425 CURVE SMOOTH",
"-17 -425 OFFCURVE",
"-74 -394 OFFCURVE",
"-74 -292 CURVE SMOOTH",
"-74 -179 OFFCURVE",
"56 -45 OFFCURVE",
"168 -2 CURVE",
"103 43 LINE",
"-36 -16 OFFCURVE",
"-160 -156 OFFCURVE",
"-160 -299 CURVE SMOOTH",
"-160 -428 OFFCURVE",
"-80 -505 OFFCURVE",
"57 -505 CURVE SMOOTH",
"161 -505 OFFCURVE",
"233 -483 OFFCURVE",
"289 -459 CURVE",
"289 -372 LINE"
);
}
);
width = 581;
},
{
components = (
{
name = idotless;
},
{
name = dotaccentcomb;
transform = "{1, 0, 0, 1, 92, -88}";
}
);
layerId = "63DB0068-8B02-4205-807F-6F2453D24B26";
paths = (
{
closed = 1;
nodes = (
"292 -278 OFFCURVE",
"247 -287 OFFCURVE",
"204 -287 CURVE SMOOTH",
"151 -287 OFFCURVE",
"97 -263 OFFCURVE",
"97 -191 CURVE SMOOTH",
"97 -112 OFFCURVE",
"172 -28 OFFCURVE",
"217 4 CURVE",
"81 62 LINE",
"16 43 OFFCURVE",
"-166 -108 OFFCURVE",
"-166 -280 CURVE SMOOTH",
"-166 -447 OFFCURVE",
"-22 -532 OFFCURVE",
"136 -532 CURVE SMOOTH",
"240 -532 OFFCURVE",
"302 -519 OFFCURVE",
"331 -507 CURVE",
"331 -250 LINE"
);
}
);
width = 581;
}
);
leftKerningGroup = idotless;
rightKerningGroup = idotless;
unicode = 012F;
},
{
glyphname = j;
lastChange = "2020-07-16 19:16:53 +0000";
layers = (
{
layerId = "82219AB4-7C60-4B3A-9196-329BE868CB10";
paths = (
{
closed = 1;
nodes = (
"231 -170 OFFCURVE",
"317 154 CURVE SMOOTH",
"385 409 OFFCURVE",
"444 731 OFFCURVE",
"462 1000 CURVE",
"380 992 LINE",
"348 710 OFFCURVE",
"300 419 OFFCURVE",
"236 178 CURVE SMOOTH",
"168 -77 OFFCURVE",
"62 -377 OFFCURVE",
"-129 -377 CURVE SMOOTH",
"-281 -377 OFFCURVE",
"-342 -219 OFFCURVE",
"-355 -102 CURVE",
"-382 -116 OFFCURVE",
"-426 -144 OFFCURVE",
"-448 -162 CURVE",
"-416 -337 OFFCURVE",
"-308 -453 OFFCURVE",
"-133 -453 CURVE SMOOTH",
"133 -453 OFFCURVE"
);
},
{
closed = 1;
nodes = (
"425 1340 OFFCURVE",
"383 1298 OFFCURVE",
"383 1243 CURVE SMOOTH",
"383 1208 OFFCURVE",
"413 1185 OFFCURVE",
"449 1185 CURVE SMOOTH",
"507 1185 OFFCURVE",
"548 1231 OFFCURVE",
"548 1277 CURVE SMOOTH",
"548 1309 OFFCURVE",
"524 1340 OFFCURVE",
"483 1340 CURVE SMOOTH"
);
}
);
width = 610;
},
{
layerId = "63DB0068-8B02-4205-807F-6F2453D24B26";
paths = (
{
closed = 1;
nodes = (
"439 -281 OFFCURVE",
"567 235 CURVE SMOOTH",
"628 481 OFFCURVE",
"647 790 OFFCURVE",
"647 863 CURVE",
"223 844 LINE",
"223 681 OFFCURVE",
"175 388 OFFCURVE",
"121 184 CURVE SMOOTH",
"81 34 OFFCURVE",
"20 -177 OFFCURVE",
"-74 -177 CURVE SMOOTH",
"-135 -177 OFFCURVE",
"-164 -125 OFFCURVE",
"-164 -54 CURVE",
"-268 -82 OFFCURVE",
"-432 -147 OFFCURVE",
"-556 -219 CURVE",
"-556 -398 OFFCURVE",
"-369 -522 OFFCURVE",
"-138 -522 CURVE SMOOTH",
"230 -522 OFFCURVE"
);
},
{
closed = 1;
nodes = (
"339 1437 OFFCURVE",
"192 1301 OFFCURVE",
"192 1145 CURVE SMOOTH",
"192 1041 OFFCURVE",
"280 955 OFFCURVE",
"411 955 CURVE SMOOTH",
"564 955 OFFCURVE",
"730 1082 OFFCURVE",
"730 1237 CURVE SMOOTH",
"730 1338 OFFCURVE",
"648 1437 OFFCURVE",
"502 1437 CURVE SMOOTH"
);
}
);
width = 717;
}
);
leftKerningGroup = j;
rightKerningGroup = j;
unicode = 006A;
},
{
glyphname = jdotless;
lastChange = "2020-07-08 20:51:17 +0000";
layers = (
{
anchors = (
{
name = bottom;
position = "{-52, -530}";
},
{
name = top;
position = "{414, 982}";
}
);
layerId = "82219AB4-7C60-4B3A-9196-329BE868CB10";
paths = (
{
closed = 1;
nodes = (
"101 -537 OFFCURVE",
"209 -254 OFFCURVE",
"295 70 CURVE SMOOTH",
"363 325 OFFCURVE",
"422 648 OFFCURVE",
"440 917 CURVE",
"431 917 OFFCURVE",
"413 916 OFFCURVE",
"400 915 CURVE SMOOTH",
"386 914 OFFCURVE",
"368 911 OFFCURVE",
"358 908 CURVE",
"326 626 OFFCURVE",
"278 335 OFFCURVE",
"214 94 CURVE SMOOTH",
"146 -161 OFFCURVE",
"40 -461 OFFCURVE",
"-151 -461 CURVE SMOOTH",
"-303 -461 OFFCURVE",
"-364 -303 OFFCURVE",
"-377 -186 CURVE",
"-404 -200 OFFCURVE",
"-448 -228 OFFCURVE",
"-470 -246 CURVE",
"-448 -421 OFFCURVE",
"-330 -537 OFFCURVE",
"-155 -537 CURVE SMOOTH"
);
}
);
width = 611;
},
{
anchors = (
{
name = bottom;
position = "{82, -530}";
},
{
name = top;
position = "{486, 958}";
}
);
layerId = "63DB0068-8B02-4205-807F-6F2453D24B26";
paths = (
{
closed = 1;
nodes = (
"413 -532 OFFCURVE",
"675 85 OFFCURVE",
"675 717 CURVE SMOOTH",
"675 769 OFFCURVE",
"671 815 OFFCURVE",
"664 853 CURVE",
"621 858 OFFCURVE",
"574 861 OFFCURVE",
"525 861 CURVE SMOOTH",
"436 861 OFFCURVE",
"340 852 OFFCURVE",
"260 834 CURVE",
"242 595 OFFCURVE",
"212 317 OFFCURVE",
"158 114 CURVE SMOOTH",
"118 -36 OFFCURVE",
"56 -187 OFFCURVE",
"-38 -187 CURVE SMOOTH",
"-99 -187 OFFCURVE",
"-127 -135 OFFCURVE",
"-128 -64 CURVE",
"-232 -92 OFFCURVE",
"-436 -157 OFFCURVE",
"-559 -229 CURVE",
"-571 -436 OFFCURVE",
"-379 -532 OFFCURVE",
"-111 -532 CURVE SMOOTH"
);
}
);
width = 772;
}
);
leftKerningGroup = j;
leftMetricsKey = j;
rightKerningGroup = j;
rightMetricsKey = j;
unicode = 0237;
},
{
glyphname = k;
lastChange = "2020-06-17 15:25:13 +0000";
layers = (
{
anchors = (
{
name = bottom;
position = "{456, 0}";
},
{
name = top;
position = "{849, 1470}";
}
);
layerId = "82219AB4-7C60-4B3A-9196-329BE868CB10";
paths = (
{
closed = 1;
nodes = (
"868 -27 OFFCURVE",
"915 -7 OFFCURVE",
"924 -2 CURVE",
"844 222 OFFCURVE",
"643 597 OFFCURVE",
"599 651 CURVE",
"723 732 OFFCURVE",
"1064 896 OFFCURVE",
"1152 932 CURVE",
"1146 942 OFFCURVE",
"1118 979 OFFCURVE",
"1104 995 CURVE",
"968 935 OFFCURVE",
"494 705 OFFCURVE",
"330 562 CURVE",
"385 748 OFFCURVE",
"510 1177 OFFCURVE",
"587 1446 CURVE",
"581 1447 OFFCURVE",
"566 1448 OFFCURVE",
"550 1448 CURVE SMOOTH",
"533 1448 OFFCURVE",
"516 1448 OFFCURVE",
"508 1448 CURVE",
"417 1170 OFFCURVE",
"100 104 OFFCURVE",
"60 -31 CURVE",
"75 -34 OFFCURVE",
"91 -36 OFFCURVE",
"105 -36 CURVE SMOOTH",
"122 -36 OFFCURVE",
"137 -34 OFFCURVE",
"146 -32 CURVE",
"165 24 OFFCURVE",
"263 330 OFFCURVE",
"297 446 CURVE",
"323 470 OFFCURVE",
"483 574 OFFCURVE",
"535 607 CURVE",
"601 505 OFFCURVE",
"795 116 OFFCURVE",
"849 -34 CURVE"
);
}
);
width = 1156;
},
{
anchors = (
{
name = bottom;
position = "{435.585, 0}";
},
{
name = top;
position = "{829.47, 1470}";
}
);
layerId = "63DB0068-8B02-4205-807F-6F2453D24B26";
paths = (
{
closed = 1;
nodes = (
"740 -40 OFFCURVE",
"1006 53 OFFCURVE",
"1064 84 CURVE",
"999 279 OFFCURVE",
"887 439 OFFCURVE",
"807 499 CURVE",
"883 545 OFFCURVE",
"1090 667 OFFCURVE",
"1226 744 CURVE",
"1202 819 OFFCURVE",
"1116 988 OFFCURVE",
"1060 1034 CURVE",
"887 942 OFFCURVE",
"663 820 OFFCURVE",
"535 700 CURVE",
"578 818 OFFCURVE",
"681 1160 OFFCURVE",
"757 1428 CURVE",
"697 1448 OFFCURVE",
"624 1456 OFFCURVE",
"545 1456 CURVE SMOOTH",
"492 1456 OFFCURVE",
"436 1452 OFFCURVE",
"379 1447 CURVE",
"324 1275 OFFCURVE",
"1 246 OFFCURVE",
"-81 -19 CURVE",
"-32 -25 OFFCURVE",
"39 -31 OFFCURVE",
"121 -31 CURVE SMOOTH",
"179 -31 OFFCURVE",
"243 -28 OFFCURVE",
"308 -21 CURVE",
"328 36 OFFCURVE",
"360 131 OFFCURVE",
"393 246 CURVE",
"405 253 OFFCURVE",
"471 291 OFFCURVE",
"496 304 CURVE",
"575 268 OFFCURVE",
"656 27 OFFCURVE",
"667 -57 CURVE"
);
}
);
width = 1156;
}
);
leftKerningGroup = h;
rightKerningGroup = k;
unicode = 006B;
},
{
glyphname = kgreenlandic;
lastChange = "2020-02-20 16:12:45 +0000";
layers = (
{
anchors = (
{
name = bottom;
position = "{435.585, 0}";
},
{
name = top;
position = "{725, 1063}";
}
);
layerId = "82219AB4-7C60-4B3A-9196-329BE868CB10";
paths = (
{
closed = 1;
nodes = (
"848 -27 OFFCURVE",
"895 -7 OFFCURVE",
"904 -2 CURVE",
"824 222 OFFCURVE",
"623 597 OFFCURVE",
"579 651 CURVE",
"703 732 OFFCURVE",
"1044 896 OFFCURVE",
"1132 932 CURVE",
"1126 942 OFFCURVE",
"1098 979 OFFCURVE",
"1084 995 CURVE",
"948 935 OFFCURVE",
"470 692 OFFCURVE",
"310 562 CURVE",
"365 748 OFFCURVE",
"417 939 OFFCURVE",
"456 1074 CURVE",
"450 1074 OFFCURVE",
"432 1075 OFFCURVE",
"416 1075 CURVE SMOOTH",
"399 1075 OFFCURVE",
"382 1076 OFFCURVE",
"374 1076 CURVE",
"328 940 OFFCURVE",
"78 79 OFFCURVE",
"40 -31 CURVE",
"55 -34 OFFCURVE",
"71 -36 OFFCURVE",
"85 -36 CURVE SMOOTH",
"102 -36 OFFCURVE",
"117 -34 OFFCURVE",
"126 -32 CURVE",
"145 24 OFFCURVE",
"243 330 OFFCURVE",
"277 446 CURVE",
"300 467 OFFCURVE",
"468 573 OFFCURVE",
"515 607 CURVE",
"589 505 OFFCURVE",
"775 116 OFFCURVE",
"829 -34 CURVE"
);
}
);
width = 1156;
},
{
anchors = (
{
name = bottom;
position = "{435.585, 0}";
},
{
name = top;
position = "{715, 1063}";
}
);
layerId = "63DB0068-8B02-4205-807F-6F2453D24B26";
paths = (
{
closed = 1;
nodes = (
"740 -40 OFFCURVE",
"1006 53 OFFCURVE",
"1064 84 CURVE",
"999 279 OFFCURVE",
"887 439 OFFCURVE",
"807 499 CURVE",
"883 545 OFFCURVE",
"1090 667 OFFCURVE",
"1226 744 CURVE",
"1202 819 OFFCURVE",
"1116 988 OFFCURVE",
"1060 1034 CURVE",
"887 942 OFFCURVE",
"663 820 OFFCURVE",
"535 700 CURVE",
"578 818 OFFCURVE",
"630 987 OFFCURVE",
"647 1073 CURVE",
"587 1093 OFFCURVE",
"514 1101 OFFCURVE",
"435 1101 CURVE SMOOTH",
"382 1101 OFFCURVE",
"326 1097 OFFCURVE",
"269 1092 CURVE",
"223 920 OFFCURVE",
"-47 91 OFFCURVE",
"-81 -19 CURVE",
"-32 -25 OFFCURVE",
"39 -31 OFFCURVE",
"121 -31 CURVE SMOOTH",
"179 -31 OFFCURVE",
"243 -28 OFFCURVE",
"308 -21 CURVE",
"328 36 OFFCURVE",
"360 131 OFFCURVE",
"393 246 CURVE",
"405 253 OFFCURVE",
"471 291 OFFCURVE",
"496 304 CURVE",
"575 268 OFFCURVE",
"656 27 OFFCURVE",
"667 -57 CURVE"
);
}
);
width = 1156;
}
);
leftKerningGroup = h;
rightKerningGroup = k;
unicode = 0138;
},
{
glyphname = l;
lastChange = "2020-07-21 15:54:08 +0000";
layers = (
{
anchors = (
{
name = bottom;
position = "{165.585, 0}";
},
{
name = center;
position = "{362.528, 735}";
},
{
name = top;
position = "{559.47, 1470}";
},
{
name = topright;
position = "{480, 1027}";
}
);
layerId = "82219AB4-7C60-4B3A-9196-329BE868CB10";
paths = (
{
closed = 1;
nodes = (
"453 92 OFFCURVE",
"424 129 OFFCURVE",
"412 139 CURVE",
"375 88 OFFCURVE",
"330 51 OFFCURVE",
"269 51 CURVE SMOOTH",
"203 51 OFFCURVE",
"181 100 OFFCURVE",
"181 171 CURVE SMOOTH",
"181 375 OFFCURVE",
"455 1205 OFFCURVE",
"529 1426 CURVE",
"517 1429 OFFCURVE",
"500 1431 OFFCURVE",
"481 1431 CURVE SMOOTH",
"470 1431 OFFCURVE",
"454 1430 OFFCURVE",
"443 1429 CURVE",
"351 1149 OFFCURVE",
"98 378 OFFCURVE",
"98 149 CURVE SMOOTH",
"98 38 OFFCURVE",
"141 -32 OFFCURVE",
"264 -32 CURVE SMOOTH",
"359 -32 OFFCURVE",
"420 33 OFFCURVE",
"457 82 CURVE"
);
}
);
width = 645;
},
{
anchors = (
{
name = bottom;
position = "{165.585, 0}";
},
{
name = center;
position = "{362.528, 735}";
},
{
name = top;
position = "{559.47, 1470}";
},
{
name = topright;
position = "{633, 1038}";
}
);
layerId = "63DB0068-8B02-4205-807F-6F2453D24B26";
paths = (
{
closed = 1;
nodes = (
"562 65 OFFCURVE",
"528 308 OFFCURVE",
"520 347 CURVE",
"495 320 OFFCURVE",
"465 303 OFFCURVE",
"424 303 CURVE SMOOTH",
"392 303 OFFCURVE",
"381 325 OFFCURVE",
"381 362 CURVE SMOOTH",
"381 474 OFFCURVE",
"494 818 OFFCURVE",
"702 1426 CURVE",
"626 1432 OFFCURVE",
"568 1435 OFFCURVE",
"506 1435 CURVE SMOOTH",
"460 1435 OFFCURVE",
"401 1433 OFFCURVE",
"341 1429 CURVE",
"227 1093 OFFCURVE",
"-6 403 OFFCURVE",
"-6 169 CURVE SMOOTH",
"-6 34 OFFCURVE",
"85 -43 OFFCURVE",
"256 -43 CURVE SMOOTH",
"391 -43 OFFCURVE",
"513 -1 OFFCURVE",
"566 35 CURVE"
);
}
);
width = 645;
}
);
leftKerningGroup = l;
rightKerningGroup = l;
unicode = 006C;
},
{
glyphname = l.ss01;
lastChange = "2020-07-08 19:54:51 +0000";
layers = (
{
anchors = (
{
name = bottom;
position = "{140, 0}";
},
{
name = center;
position = "{337, 735}";
},
{
name = top;
position = "{533, 1470}";
},
{
name = topright;
position = "{537, 1063}";
}
);
layerId = "82219AB4-7C60-4B3A-9196-329BE868CB10";
paths = (
{
closed = 1;
nodes = (
"515 1459 OFFCURVE",
"505 1459 OFFCURVE",
"496 1459 CURVE SMOOTH",
"482 1459 OFFCURVE",
"468 1458 OFFCURVE",
"455 1456 CURVE",
"429 1265 OFFCURVE",
"308 682 OFFCURVE",
"195 263 CURVE SMOOTH",
"164 148 OFFCURVE",
"134 45 OFFCURVE",
"107 -34 CURVE",
"112 -35 OFFCURVE",
"120 -35 OFFCURVE",
"129 -35 CURVE SMOOTH",
"160 -35 OFFCURVE",
"204 -31 OFFCURVE",
"211 -29 CURVE",
"274 203 OFFCURVE",
"345 496 OFFCURVE",
"404 763 CURVE SMOOTH",
"474 1082 OFFCURVE",
"526 1364 OFFCURVE",
"526 1458 CURVE"
);
}
);
width = 564;
},
{
anchors = (
{
name = bottom;
position = "{139.585, 0}";
},
{
name = center;
position = "{336.528, 735}";
},
{
name = top;
position = "{533.47, 1470}";
},
{
name = topright;
position = "{664, 1063}";
}
);
layerId = "63DB0068-8B02-4205-807F-6F2453D24B26";
paths = (
{
closed = 1;
nodes = (
"613 1462 OFFCURVE",
"585 1462 OFFCURVE",
"533 1462 CURVE SMOOTH",
"433 1462 OFFCURVE",
"328 1440 OFFCURVE",
"313 1436 CURVE",
"288 1274 OFFCURVE",
"189 852 OFFCURVE",
"90 478 CURVE SMOOTH",
"39 286 OFFCURVE",
"-14 106 OFFCURVE",
"-53 -19 CURVE",
"-27 -21 OFFCURVE",
"9 -22 OFFCURVE",
"48 -22 CURVE SMOOTH",
"158 -22 OFFCURVE",
"302 -14 OFFCURVE",
"388 10 CURVE",
"446 229 OFFCURVE",
"512 510 OFFCURVE",
"565 769 CURVE SMOOTH",
"629 1083 OFFCURVE",
"678 1364 OFFCURVE",
"678 1458 CURVE"
);
}
);
width = 564;
}
);
leftKerningGroup = h;
rightKerningGroup = l.ss01;
},
{
glyphname = ldot;
lastChange = "2020-06-17 20:29:16 +0000";
layers = (
{
components = (
{
name = l;
}
);
layerId = "82219AB4-7C60-4B3A-9196-329BE868CB10";
paths = (
{
closed = 1;
nodes = (
"676 759 OFFCURVE",
"732 797 OFFCURVE",
"732 854 CURVE SMOOTH",
"732 891 OFFCURVE",
"715 931 OFFCURVE",
"664 931 CURVE SMOOTH",
"599 931 OFFCURVE",
"553 886 OFFCURVE",
"553 826 CURVE SMOOTH",
"553 791 OFFCURVE",
"575 759 OFFCURVE",
"628 759 CURVE SMOOTH"
);
}
);
width = 741;
},
{
components = (
{
name = l;
}
);
layerId = "63DB0068-8B02-4205-807F-6F2453D24B26";
paths = (
{
closed = 1;
nodes = (
"780 687 OFFCURVE",
"857 758 OFFCURVE",
"857 843 CURVE SMOOTH",
"857 923 OFFCURVE",
"800 997 OFFCURVE",
"706 997 CURVE SMOOTH",
"615 997 OFFCURVE",
"538 929 OFFCURVE",
"538 843 CURVE SMOOTH",
"538 758 OFFCURVE",
"583 687 OFFCURVE",
"695 687 CURVE SMOOTH"
);
}
);
width = 741;
}
);
leftKerningGroup = l;
leftMetricsKey = l;
rightKerningGroup = l;
unicode = 0140;
},
{
glyphname = ldot.ss01;
lastChange = "2020-06-17 20:31:47 +0000";
layers = (
{
components = (
{
name = l.ss01;
transform = "{1, 0, 0, 1, -37, 0}";
}
);
layerId = "82219AB4-7C60-4B3A-9196-329BE868CB10";
paths = (
{
closed = 1;
nodes = (
"648 756 OFFCURVE",
"690 793 OFFCURVE",
"690 843 CURVE SMOOTH",
"690 888 OFFCURVE",
"660 928 OFFCURVE",
"609 928 CURVE SMOOTH",
"557 928 OFFCURVE",
"513 894 OFFCURVE",
"513 843 CURVE SMOOTH",
"513 793 OFFCURVE",
"537 756 OFFCURVE",
"600 756 CURVE SMOOTH"
);
}
);
width = 586;
},
{
components = (
{
name = l.ss01;
transform = "{1, 0, 0, 1, -11, 0}";
}
);
layerId = "63DB0068-8B02-4205-807F-6F2453D24B26";
paths = (
{
closed = 1;
nodes = (
"855 687 OFFCURVE",
"932 758 OFFCURVE",
"932 843 CURVE SMOOTH",
"932 923 OFFCURVE",
"875 997 OFFCURVE",
"782 997 CURVE SMOOTH",
"692 997 OFFCURVE",
"615 929 OFFCURVE",
"615 843 CURVE SMOOTH",
"615 758 OFFCURVE",
"659 687 OFFCURVE",
"771 687 CURVE SMOOTH"
);
}
);
width = 812;
}
);
leftMetricsKey = l;
},
{
glyphname = lslash;
lastChange = "2020-07-03 20:06:00 +0000";
layers = (
{
components = (
{
name = l;
}
);
layerId = "82219AB4-7C60-4B3A-9196-329BE868CB10";
paths = (
{
closed = 1;
nodes = (
"568 853 CURVE",
"398 699 OFFCURVE",
"133 489 OFFCURVE",
"-79 369 CURVE",
"-71 354 OFFCURVE",
"-51 330 OFFCURVE",
"-36 313 CURVE",
"191 432 OFFCURVE",
"432 612 OFFCURVE",
"617 788 CURVE",
"612 814 OFFCURVE",
"593 834 OFFCURVE"
);
}
);
width = 564;
},
{
components = (
{
name = l;
}
);
layerId = "63DB0068-8B02-4205-807F-6F2453D24B26";
paths = (
{
closed = 1;
nodes = (
"665 932 CURVE",
"488 829 OFFCURVE",
"113 658 OFFCURVE",
"-147 581 CURVE",
"-147 568 OFFCURVE",
"-92 417 OFFCURVE",
"-84 400 CURVE",
"191 472 OFFCURVE",
"470 607 OFFCURVE",
"730 738 CURVE",
"723 763 OFFCURVE",
"679 908 OFFCURVE"
);
}
);
width = 564;
}
);
leftKerningGroup = h;
rightKerningGroup = l;
unicode = 0142;
},
{
glyphname = m;
lastChange = "2020-06-17 15:27:21 +0000";
layers = (
{
anchors = (
{
name = bottom;
position = "{786.585, 0}";
},
{
name = top;
position = "{1071.415, 1063}";
}
);
layerId = "82219AB4-7C60-4B3A-9196-329BE868CB10";
paths = (
{
closed = 1;
nodes = (
"86 -10 CURVE",
"100 -14 OFFCURVE",
"115 -16 OFFCURVE",
"133 -16 CURVE SMOOTH",
"145 -16 OFFCURVE",
"165 -14 OFFCURVE",
"174 -13 CURVE",
"179 40 OFFCURVE",
"209 258 OFFCURVE",
"283 578 CURVE",
"302 678 OFFCURVE",
"543 945 OFFCURVE",
"738 945 CURVE SMOOTH",
"865 945 OFFCURVE",
"909 883 OFFCURVE",
"909 742 CURVE SMOOTH",
"909 564 OFFCURVE",
"835 252 OFFCURVE",
"756 -7 CURVE",
"769 -11 OFFCURVE",
"791 -13 OFFCURVE",
"806 -13 CURVE SMOOTH",
"819 -13 OFFCURVE",
"837 -11 OFFCURVE",
"852 -9 CURVE",
"867 56 OFFCURVE",
"885 128 OFFCURVE",
"902 194 CURVE SMOOTH",
"997 562 OFFCURVE",
"1150 963 OFFCURVE",
"1462 963 CURVE SMOOTH",
"1574 963 OFFCURVE",
"1625 895 OFFCURVE",
"1625 761 CURVE SMOOTH",
"1625 565 OFFCURVE",
"1512 247 OFFCURVE",
"1405 -24 CURVE",
"1421 -26 OFFCURVE",
"1439 -27 OFFCURVE",
"1451 -27 CURVE SMOOTH",
"1467 -27 OFFCURVE",
"1482 -25 OFFCURVE",
"1497 -21 CURVE",
"1590 212 OFFCURVE",
"1713 578 OFFCURVE",
"1713 788 CURVE SMOOTH",
"1713 941 OFFCURVE",
"1646 1047 OFFCURVE",
"1484 1047 CURVE SMOOTH",
"1210 1047 OFFCURVE",
"1049 819 OFFCURVE",
"962 581 CURVE",
"979 644 OFFCURVE",
"991 713 OFFCURVE",
"991 778 CURVE SMOOTH",
"991 913 OFFCURVE",
"930 1030 OFFCURVE",
"769 1030 CURVE SMOOTH",
"513 1030 OFFCURVE",
"370 838 OFFCURVE",
"329 774 CURVE",
"336 806 OFFCURVE",
"376 988 OFFCURVE",
"387 1027 CURVE",
"368 1026 OFFCURVE",
"321 1017 OFFCURVE",
"302 1009 CURVE",
"219 699 OFFCURVE",
"127 256 OFFCURVE"
);
}
);
width = 1858;
},
{
anchors = (
{
name = bottom;
position = "{786.585, 0}";
},
{
name = top;
position = "{1071.415, 1063}";
}
);
layerId = "63DB0068-8B02-4205-807F-6F2453D24B26";
paths = (
{
closed = 1;
nodes = (
"-36 -7 CURVE",
"9 -12 OFFCURVE",
"128 -17 OFFCURVE",
"235 -17 CURVE SMOOTH",
"277 -17 OFFCURVE",
"348 -15 OFFCURVE",
"365 -14 CURVE",
"369 9 OFFCURVE",
"425 274 OFFCURVE",
"498 593 CURVE",
"546 668 OFFCURVE",
"635 717 OFFCURVE",
"711 717 CURVE SMOOTH",
"766 717 OFFCURVE",
"789 680 OFFCURVE",
"789 612 CURVE SMOOTH",
"789 504 OFFCURVE",
"717 234 OFFCURVE",
"652 -7 CURVE",
"680 -11 OFFCURVE",
"760 -13 OFFCURVE",
"839 -13 CURVE SMOOTH",
"905 -13 OFFCURVE",
"970 -11 OFFCURVE",
"1002 -9 CURVE",
"1028 81 OFFCURVE",
"1053 166 OFFCURVE",
"1078 244 CURVE SMOOTH",
"1165 517 OFFCURVE",
"1249 706 OFFCURVE",
"1390 706 CURVE SMOOTH",
"1436 706 OFFCURVE",
"1456 676 OFFCURVE",
"1456 621 CURVE SMOOTH",
"1456 489 OFFCURVE",
"1344 208 OFFCURVE",
"1254 -5 CURVE",
"1318 -11 OFFCURVE",
"1384 -13 OFFCURVE",
"1451 -13 CURVE SMOOTH",
"1513 -13 OFFCURVE",
"1580 -11 OFFCURVE",
"1641 -8 CURVE",
"1735 292 OFFCURVE",
"1822 573 OFFCURVE",
"1822 760 CURVE SMOOTH",
"1822 950 OFFCURVE",
"1725 1044 OFFCURVE",
"1505 1044 CURVE SMOOTH",
"1330 1044 OFFCURVE",
"1165 925 OFFCURVE",
"1083 812 CURVE",
"1083 835 OFFCURVE",
"1083 860 OFFCURVE",
"1078 883 CURVE SMOOTH",
"1060 965 OFFCURVE",
"1002 1039 OFFCURVE",
"876 1039 CURVE SMOOTH",
"705 1039 OFFCURVE",
"586 931 OFFCURVE",
"560 885 CURVE",
"567 913 OFFCURVE",
"584 981 OFFCURVE",
"596 1027 CURVE",
"514 1027 OFFCURVE",
"288 1003 OFFCURVE",
"204 983 CURVE",
"159 815 OFFCURVE",
"3 191 OFFCURVE"
);
}
);
width = 1858;
}
);
leftKerningGroup = n;
rightKerningGroup = n;
unicode = 006D;
},
{
glyphname = n;
lastChange = "2020-06-17 15:28:55 +0000";
layers = (
{
anchors = (
{
name = bottom;
position = "{522.585, 0}";
},
{
name = top;
position = "{807.415, 1063}";
}
);
layerId = "82219AB4-7C60-4B3A-9196-329BE868CB10";
paths = (
{
closed = 1;
nodes = (
"205 93 OFFCURVE",
"312 396 OFFCURVE",
"420 754 CURVE",
"515 827 OFFCURVE",
"729 970 OFFCURVE",
"968 970 CURVE SMOOTH",
"1097 970 OFFCURVE",
"1149 908 OFFCURVE",
"1149 800 CURVE SMOOTH",
"1149 628 OFFCURVE",
"1019 276 OFFCURVE",
"907 -3 CURVE",
"923 -7 OFFCURVE",
"936 -9 OFFCURVE",
"954 -9 CURVE SMOOTH",
"975 -9 OFFCURVE",
"994 -6 OFFCURVE",
"1005 -3 CURVE",
"1112 289 OFFCURVE",
"1243 651 OFFCURVE",
"1243 832 CURVE SMOOTH",
"1243 977 OFFCURVE",
"1171 1060 OFFCURVE",
"967 1060 CURVE SMOOTH",
"792 1060 OFFCURVE",
"559 954 OFFCURVE",
"448 868 CURVE",
"461 906 OFFCURVE",
"489 1019 OFFCURVE",
"492 1043 CURVE",
"484 1045 OFFCURVE",
"469 1045 OFFCURVE",
"458 1045 CURVE SMOOTH",
"434 1045 OFFCURVE",
"414 1042 OFFCURVE",
"399 1039 CURVE",
"238 439 OFFCURVE",
"155 214 OFFCURVE",
"68 -10 CURVE",
"87 -12 OFFCURVE",
"106 -14 OFFCURVE",
"125 -14 CURVE SMOOTH",
"137 -14 OFFCURVE",
"150 -13 OFFCURVE",
"162 -12 CURVE"
);
}
);
width = 1330;
},
{
anchors = (
{
name = bottom;
position = "{522.585, 0}";
},
{
name = top;
position = "{807.415, 1063}";
}
);
layerId = "63DB0068-8B02-4205-807F-6F2453D24B26";
paths = (
{
closed = 1;
nodes = (
"395 99 OFFCURVE",
"470 303 OFFCURVE",
"551 605 CURVE",
"624 659 OFFCURVE",
"727 708 OFFCURVE",
"805 708 CURVE SMOOTH",
"886 708 OFFCURVE",
"915 669 OFFCURVE",
"915 604 CURVE SMOOTH",
"915 470 OFFCURVE",
"773 125 OFFCURVE",
"707 -3 CURVE",
"739 -6 OFFCURVE",
"824 -8 OFFCURVE",
"909 -8 CURVE SMOOTH",
"987 -8 OFFCURVE",
"1065 -6 OFFCURVE",
"1100 -3 CURVE",
"1195 238 OFFCURVE",
"1318 621 OFFCURVE",
"1318 810 CURVE SMOOTH",
"1318 978 OFFCURVE",
"1238 1060 OFFCURVE",
"1035 1060 CURVE SMOOTH",
"873 1060 OFFCURVE",
"689 957 OFFCURVE",
"634 885 CURVE",
"649 935 OFFCURVE",
"672 1017 OFFCURVE",
"676 1034 CURVE",
"634 1041 OFFCURVE",
"575 1044 OFFCURVE",
"513 1044 CURVE SMOOTH",
"427 1044 OFFCURVE",
"333 1039 OFFCURVE",
"268 1031 CURVE",
"152 599 OFFCURVE",
"45 219 OFFCURVE",
"-38 -3 CURVE",
"-11 -6 OFFCURVE",
"85 -10 OFFCURVE",
"144 -12 CURVE SMOOTH",
"220 -14 OFFCURVE",
"299 -14 OFFCURVE",
"350 -14 CURVE"
);
}
);
width = 1330;
}
);
leftKerningGroup = n;
rightKerningGroup = n;
unicode = 006E;
},
{
glyphname = eng;
lastChange = "2020-06-18 19:26:01 +0000";
layers = (
{
components = (
{
alignment = -1;
name = n;
}
);
layerId = "82219AB4-7C60-4B3A-9196-329BE868CB10";
paths = (
{
closed = 1;
nodes = (
"487 -349 OFFCURVE",
"597 -349 CURVE SMOOTH",
"819 -349 OFFCURVE",
"962 -157 OFFCURVE",
"1009 10 CURVE",
"913 10 LINE",
"841 -136 OFFCURVE",
"767 -267 OFFCURVE",
"621 -267 CURVE SMOOTH",
"493 -267 OFFCURVE",
"455 -220 OFFCURVE",
"437 -157 CURVE",
"417 -168 OFFCURVE",
"363 -207 OFFCURVE",
"345 -220 CURVE",
"371 -309 OFFCURVE"
);
}
);
width = 1330;
},
{
components = (
{
alignment = -1;
name = n;
}
);
layerId = "63DB0068-8B02-4205-807F-6F2453D24B26";
paths = (
{
closed = 1;
nodes = (
"344 -419 OFFCURVE",
"569 -419 CURVE SMOOTH",
"822 -419 OFFCURVE",
"1009 -238 OFFCURVE",
"1106 12 CURVE",
"719 19 LINE",
"677 -61 OFFCURVE",
"642 -99 OFFCURVE",
"597 -99 CURVE SMOOTH",
"556 -99 OFFCURVE",
"535 -75 OFFCURVE",
"528 -30 CURVE",
"453 -79 OFFCURVE",
"250 -220 OFFCURVE",
"229 -240 CURVE",
"268 -321 OFFCURVE"
);
}
);
width = 1330;
}
);
leftKerningGroup = n;
rightKerningGroup = j;
unicode = 014B;
},
{
glyphname = o;
lastChange = "2020-06-18 18:50:21 +0000";
layers = (
{
anchors = (
{
name = bottom;
position = "{433, 0}";
},
{
name = center;
position = "{575, 532}";
},
{
name = ogonek;
position = "{678, 0}";
},
{
name = top;
position = "{717, 1063}";
},
{
name = topright;
position = "{997, 941}";
}
);
layerId = "82219AB4-7C60-4B3A-9196-329BE868CB10";
paths = (
{
closed = 1;
nodes = (
"858 -39 OFFCURVE",
"1081 305 OFFCURVE",
"1081 691 CURVE SMOOTH",
"1081 933 OFFCURVE",
"968 1077 OFFCURVE",
"725 1077 CURVE SMOOTH",
"328 1077 OFFCURVE",
"83 732 OFFCURVE",
"83 340 CURVE SMOOTH",
"83 119 OFFCURVE",
"208 -39 OFFCURVE",
"471 -39 CURVE SMOOTH"
);
},
{
closed = 1;
nodes = (
"273 32 OFFCURVE",
"171 163 OFFCURVE",
"171 346 CURVE SMOOTH",
"171 669 OFFCURVE",
"379 1002 OFFCURVE",
"710 1002 CURVE SMOOTH",
"909 1002 OFFCURVE",
"999 878 OFFCURVE",
"999 682 CURVE SMOOTH",
"999 356 OFFCURVE",
"795 32 OFFCURVE",
"476 32 CURVE SMOOTH"
);
}
);
width = 1172;
},
{
anchors = (
{
name = bottom;
position = "{434, 0}";
},
{
name = center;
position = "{576, 532}";
},
{
name = ogonek;
position = "{620, 0}";
},
{
name = top;
position = "{718, 1063}";
},
{
name = topright;
position = "{973, 941}";
}
);
layerId = "63DB0068-8B02-4205-807F-6F2453D24B26";
paths = (
{
closed = 1;
nodes = (
"878 -17 OFFCURVE",
"1119 243 OFFCURVE",
"1119 648 CURVE SMOOTH",
"1119 897 OFFCURVE",
"1001 1058 OFFCURVE",
"711 1058 CURVE SMOOTH",
"313 1058 OFFCURVE",
"38 788 OFFCURVE",
"38 375 CURVE SMOOTH",
"38 126 OFFCURVE",
"186 -17 OFFCURVE",
"487 -17 CURVE SMOOTH"
);
},
{
closed = 1;
nodes = (
"462 342 OFFCURVE",
"425 404 OFFCURVE",
"425 490 CURVE SMOOTH",
"425 634 OFFCURVE",
"508 773 OFFCURVE",
"646 773 CURVE SMOOTH",
"735 773 OFFCURVE",
"768 699 OFFCURVE",
"768 614 CURVE SMOOTH",
"768 467 OFFCURVE",
"692 342 OFFCURVE",
"541 342 CURVE SMOOTH"
);
}
);
width = 1170;
}
);
leftKerningGroup = o;
rightKerningGroup = o;
unicode = 006F;
},
{
glyphname = ohorn;
lastChange = "2020-06-29 16:07:58 +0000";
layers = (
{
anchors = (
{
name = bottom;
position = "{428, 0}";
},
{
name = top;
position = "{712, 1063}";
}
);
layerId = "82219AB4-7C60-4B3A-9196-329BE868CB10";
paths = (
{
closed = 1;
nodes = (
"858 -39 OFFCURVE",
"1081 305 OFFCURVE",
"1081 691 CURVE SMOOTH",
"1081 933 OFFCURVE",
"968 1077 OFFCURVE",
"725 1077 CURVE SMOOTH",
"328 1077 OFFCURVE",
"83 732 OFFCURVE",
"83 340 CURVE SMOOTH",
"83 119 OFFCURVE",
"208 -39 OFFCURVE",
"471 -39 CURVE SMOOTH"
);
},
{
closed = 1;
nodes = (
"273 32 OFFCURVE",
"171 163 OFFCURVE",
"171 346 CURVE SMOOTH",
"171 669 OFFCURVE",
"379 1002 OFFCURVE",
"710 1002 CURVE SMOOTH",
"909 1002 OFFCURVE",
"999 878 OFFCURVE",
"999 682 CURVE SMOOTH",
"999 356 OFFCURVE",
"795 32 OFFCURVE",
"476 32 CURVE SMOOTH"
);
},
{
closed = 1;
nodes = (
"1100 909 OFFCURVE",
"1305 1003 OFFCURVE",
"1360 1205 CURVE",
"1345 1214 OFFCURVE",
"1301 1221 OFFCURVE",
"1270 1221 CURVE",
"1237 1098 OFFCURVE",
"1134 981 OFFCURVE",
"945 981 CURVE",
"948 909 LINE"
);
}
);
width = 1240;
},
{
anchors = (
{
name = bottom;
position = "{429, 0}";
},
{
name = top;
position = "{713, 1063}";
}
);
layerId = "63DB0068-8B02-4205-807F-6F2453D24B26";
paths = (
{
closed = 1;
nodes = (
"878 -17 OFFCURVE",
"1119 243 OFFCURVE",
"1119 648 CURVE SMOOTH",
"1119 897 OFFCURVE",
"1001 1058 OFFCURVE",
"711 1058 CURVE SMOOTH",
"313 1058 OFFCURVE",
"38 788 OFFCURVE",
"38 375 CURVE SMOOTH",
"38 126 OFFCURVE",
"186 -17 OFFCURVE",
"487 -17 CURVE SMOOTH"
);
},
{
closed = 1;
nodes = (
"462 342 OFFCURVE",
"425 404 OFFCURVE",
"425 490 CURVE SMOOTH",
"425 634 OFFCURVE",
"508 773 OFFCURVE",
"646 773 CURVE SMOOTH",
"735 773 OFFCURVE",
"768 699 OFFCURVE",
"768 614 CURVE SMOOTH",
"768 467 OFFCURVE",
"692 342 OFFCURVE",
"541 342 CURVE SMOOTH"
);
},
{
closed = 1;
nodes = (
"1031 817 OFFCURVE",
"1275 910 OFFCURVE",
"1347 1180 CURVE",
"1329 1208 OFFCURVE",
"1210 1238 OFFCURVE",
"1091 1238 CURVE",
"1054 1100 OFFCURVE",
"990 1011 OFFCURVE",
"849 1011 CURVE",
"849 817 LINE"
);
}
);
width = 1183;
}
);
leftKerningGroup = o;
leftMetricsKey = o;
rightKerningGroup = o;
rightMetricsKey = "=o-40";
unicode = 01A1;
},
{
glyphname = oogonek;
lastChange = "2020-07-21 16:05:24 +0000";
layers = (
{
components = (
{
name = o;
}
);
layerId = "82219AB4-7C60-4B3A-9196-329BE868CB10";
paths = (
{
closed = 1;
nodes = (
"817 -358 OFFCURVE",
"768 -378 OFFCURVE",
"674 -378 CURVE SMOOTH",
"584 -378 OFFCURVE",
"527 -347 OFFCURVE",
"527 -245 CURVE SMOOTH",
"527 -132 OFFCURVE",
"667 -8 OFFCURVE",
"769 45 CURVE",
"704 90 LINE",
"575 21 OFFCURVE",
"441 -109 OFFCURVE",
"441 -252 CURVE SMOOTH",
"441 -381 OFFCURVE",
"521 -458 OFFCURVE",
"658 -458 CURVE SMOOTH",
"762 -458 OFFCURVE",
"834 -436 OFFCURVE",
"890 -412 CURVE",
"890 -325 LINE"
);
}
);
width = 1172;
},
{
components = (
{
name = o;
}
);
layerId = "63DB0068-8B02-4205-807F-6F2453D24B26";
paths = (
{
closed = 1;
nodes = (
"831 -247 OFFCURVE",
"786 -256 OFFCURVE",
"743 -256 CURVE SMOOTH",
"690 -256 OFFCURVE",
"636 -232 OFFCURVE",
"636 -160 CURVE SMOOTH",
"636 -80 OFFCURVE",
"711 4 OFFCURVE",
"756 35 CURVE",
"620 93 LINE",
"555 74 OFFCURVE",
"373 -77 OFFCURVE",
"373 -249 CURVE SMOOTH",
"373 -416 OFFCURVE",
"517 -501 OFFCURVE",
"675 -501 CURVE SMOOTH",
"779 -501 OFFCURVE",
"841 -488 OFFCURVE",
"870 -476 CURVE",
"870 -219 LINE"
);
}
);
width = 1170;
}
);
leftKerningGroup = o;
rightKerningGroup = o;
unicode = 01EB;
},
{
glyphname = oslash;
lastChange = "2020-06-29 18:02:08 +0000";
layers = (
{
anchors = (
{
name = top;
position = "{737.415, 1063}";
}
);
components = (
{
name = o;
}
);
layerId = "82219AB4-7C60-4B3A-9196-329BE868CB10";
paths = (
{
closed = 1;
nodes = (
"1112 1082 OFFCURVE",
"1076 1103 OFFCURVE",
"1046 1109 CURVE",
"777 680 OFFCURVE",
"363 236 OFFCURVE",
"62 -76 CURVE",
"76 -82 OFFCURVE",
"114 -105 OFFCURVE",
"134 -109 CURVE",
"370 131 OFFCURVE",
"790 578 OFFCURVE",
"1127 1070 CURVE"
);
}
);
width = 1180;
},
{
anchors = (
{
name = top;
position = "{737.415, 1063}";
}
);
components = (
{
name = o;
}
);
layerId = "63DB0068-8B02-4205-807F-6F2453D24B26";
paths = (
{
closed = 1;
nodes = (
"1161 1085 OFFCURVE",
"1105 1117 OFFCURVE",
"1057 1144 CURVE",
"836 862 OFFCURVE",
"205 259 OFFCURVE",
"-61 17 CURVE",
"-39 -26 OFFCURVE",
"10 -70 OFFCURVE",
"41 -90 CURVE",
"281 95 OFFCURVE",
"883 637 OFFCURVE",
"1186 1063 CURVE"
);
}
);
width = 1170;
}
);
leftKerningGroup = o;
rightKerningGroup = o;
unicode = 00F8;
},
{
glyphname = oe;
lastChange = "2020-06-18 14:37:28 +0000";
layers = (
{
anchors = (
{
name = bottom;
position = "{902, 0}";
},
{
name = top;
position = "{1196, 1063}";
}
);
layerId = "82219AB4-7C60-4B3A-9196-329BE868CB10";
paths = (
{
closed = 1;
nodes = (
"858 -39 OFFCURVE",
"1081 305 OFFCURVE",
"1081 691 CURVE SMOOTH",
"1081 933 OFFCURVE",
"968 1077 OFFCURVE",
"725 1077 CURVE SMOOTH",
"328 1077 OFFCURVE",
"83 732 OFFCURVE",
"83 340 CURVE SMOOTH",
"83 119 OFFCURVE",
"208 -39 OFFCURVE",
"471 -39 CURVE SMOOTH"
);
},
{
closed = 1;
nodes = (
"273 32 OFFCURVE",
"171 163 OFFCURVE",
"171 346 CURVE SMOOTH",
"171 669 OFFCURVE",
"379 1002 OFFCURVE",
"710 1002 CURVE SMOOTH",
"909 1002 OFFCURVE",
"999 878 OFFCURVE",
"999 682 CURVE SMOOTH",
"999 356 OFFCURVE",
"795 32 OFFCURVE",
"476 32 CURVE SMOOTH"
);
},
{
closed = 1;
nodes = (
"1815 284 OFFCURVE",
"1784 319 OFFCURVE",
"1770 333 CURVE",
"1760 319 OFFCURVE",
"1590 101 OFFCURVE",
"1321 101 CURVE SMOOTH",
"1140 101 OFFCURVE",
"1067 245 OFFCURVE",
"1067 381 CURVE SMOOTH",
"1067 423 OFFCURVE",
"1068 464 OFFCURVE",
"1074 497 CURVE",
"1156 508 OFFCURVE",
"1347 523 OFFCURVE",
"1491 528 CURVE SMOOTH",
"1643 533 OFFCURVE",
"1828 535 OFFCURVE",
"1847 535 CURVE",
"1868 615 OFFCURVE",
"1879 679 OFFCURVE",
"1879 746 CURVE SMOOTH",
"1879 942 OFFCURVE",
"1779 1070 OFFCURVE",
"1576 1070 CURVE SMOOTH",
"1225 1070 OFFCURVE",
"987 779 OFFCURVE",
"987 409 CURVE SMOOTH",
"987 175 OFFCURVE",
"1084 27 OFFCURVE",
"1315 27 CURVE SMOOTH",
"1593 27 OFFCURVE",
"1766 207 OFFCURVE",
"1818 266 CURVE"
);
},
{
closed = 1;
nodes = (
"1139 849 OFFCURVE",
"1345 984 OFFCURVE",
"1564 984 CURVE SMOOTH",
"1742 984 OFFCURVE",
"1796 869 OFFCURVE",
"1796 751 CURVE SMOOTH",
"1796 704 OFFCURVE",
"1790 651 OFFCURVE",
"1780 615 CURVE",
"1769 615 OFFCURVE",
"1641 612 OFFCURVE",
"1520 609 CURVE SMOOTH",
"1313 604 OFFCURVE",
"1157 589 OFFCURVE",
"1090 578 CURVE"
);
}
);
width = 1954;
},
{
anchors = (
{
name = bottom;
position = "{828, 0}";
},
{
name = top;
position = "{1062, 1063}";
}
);
layerId = "63DB0068-8B02-4205-807F-6F2453D24B26";
paths = (
{
closed = 1;
nodes = (
"878 -17 OFFCURVE",
"1119 243 OFFCURVE",
"1119 648 CURVE SMOOTH",
"1119 897 OFFCURVE",
"1001 1058 OFFCURVE",
"711 1058 CURVE SMOOTH",
"313 1058 OFFCURVE",
"38 788 OFFCURVE",
"38 375 CURVE SMOOTH",
"38 126 OFFCURVE",
"186 -17 OFFCURVE",
"487 -17 CURVE SMOOTH"
);
},
{
closed = 1;
nodes = (
"462 342 OFFCURVE",
"425 404 OFFCURVE",
"425 490 CURVE SMOOTH",
"425 634 OFFCURVE",
"508 773 OFFCURVE",
"646 773 CURVE SMOOTH",
"735 773 OFFCURVE",
"768 699 OFFCURVE",
"768 614 CURVE SMOOTH",
"768 467 OFFCURVE",
"692 342 OFFCURVE",
"541 342 CURVE SMOOTH"
);
},
{
closed = 1;
nodes = (
"1633 261 OFFCURVE",
"1504 429 OFFCURVE",
"1490 442 CURVE",
"1381 368 OFFCURVE",
"1293 349 OFFCURVE",
"1243 349 CURVE SMOOTH",
"1165 349 OFFCURVE",
"1104 381 OFFCURVE",
"1104 447 CURVE SMOOTH",
"1104 461 OFFCURVE",
"1104 476 OFFCURVE",
"1109 492 CURVE",
"1140 497 OFFCURVE",
"1264 502 OFFCURVE",
"1357 505 CURVE SMOOTH",
"1422 507 OFFCURVE",
"1686 515 OFFCURVE",
"1719 515 CURVE",
"1759 598 OFFCURVE",
"1789 677 OFFCURVE",
"1789 767 CURVE SMOOTH",
"1789 957 OFFCURVE",
"1644 1063 OFFCURVE",
"1410 1063 CURVE SMOOTH",
"1007 1063 OFFCURVE",
"745 791 OFFCURVE",
"745 379 CURVE SMOOTH",
"745 144 OFFCURVE",
"892 -16 OFFCURVE",
"1170 -16 CURVE SMOOTH",
"1348 -16 OFFCURVE",
"1528 48 OFFCURVE",
"1651 150 CURVE"
);
},
{
closed = 1;
nodes = (
"1199 748 OFFCURVE",
"1274 831 OFFCURVE",
"1373 831 CURVE SMOOTH",
"1442 831 OFFCURVE",
"1477 791 OFFCURVE",
"1477 744 CURVE SMOOTH",
"1477 724 OFFCURVE",
"1476 719 OFFCURVE",
"1474 714 CURVE",
"1457 716 OFFCURVE",
"1411 717 OFFCURVE",
"1365 717 CURVE SMOOTH",
"1283 717 OFFCURVE",
"1211 708 OFFCURVE",
"1182 704 CURVE"
);
}
);
width = 1795;
}
);
leftKerningGroup = o;
leftMetricsKey = o;
rightKerningGroup = e;
rightMetricsKey = e;
unicode = 0153;
},
{
glyphname = p;
lastChange = "2020-06-18 14:36:31 +0000";
layers = (
{
anchors = (
{
name = bottom;
position = "{457.585, 0}";
},
{
name = top;
position = "{742.415, 1063}";
}
);
layerId = "82219AB4-7C60-4B3A-9196-329BE868CB10";
paths = (
{
closed = 1;
nodes = (
"-127 -429 OFFCURVE",
"-76 -427 OFFCURVE",
"-43 -420 CURVE",
"13 -293 OFFCURVE",
"179 176 OFFCURVE",
"201 242 CURVE",
"237 193 OFFCURVE",
"386 104 OFFCURVE",
"556 104 CURVE SMOOTH",
"906 104 OFFCURVE",
"1125 402 OFFCURVE",
"1125 764 CURVE SMOOTH",
"1125 970 OFFCURVE",
"1024 1085 OFFCURVE",
"815 1085 CURVE SMOOTH",
"639 1085 OFFCURVE",
"474 993 OFFCURVE",
"409 935 CURVE",
"424 983 OFFCURVE",
"448 1064 OFFCURVE",
"453 1088 CURVE",
"425 1088 OFFCURVE",
"383 1084 OFFCURVE",
"359 1079 CURVE",
"259 707 OFFCURVE",
"46 32 OFFCURVE",
"-144 -429 CURVE"
);
},
{
closed = 1;
nodes = (
"376 188 OFFCURVE",
"261 286 OFFCURVE",
"225 323 CURVE",
"243 379 OFFCURVE",
"359 771 OFFCURVE",
"374 823 CURVE",
"420 868 OFFCURVE",
"608 1007 OFFCURVE",
"801 1007 CURVE SMOOTH",
"964 1007 OFFCURVE",
"1033 921 OFFCURVE",
"1033 752 CURVE SMOOTH",
"1033 450 OFFCURVE",
"879 188 OFFCURVE",
"562 188 CURVE SMOOTH"
);
}
);
width = 1199;
},
{
anchors = (
{
name = bottom;
position = "{457.585, 0}";
},
{
name = top;
position = "{742.415, 1063}";
}
);
layerId = "63DB0068-8B02-4205-807F-6F2453D24B26";
paths = (
{
closed = 1;
nodes = (
"-148 -455 OFFCURVE",
"21 -448 OFFCURVE",
"160 -422 CURVE",
"201 -306 OFFCURVE",
"320 67 OFFCURVE",
"343 154 CURVE",
"363 109 OFFCURVE",
"487 53 OFFCURVE",
"601 53 CURVE SMOOTH",
"971 53 OFFCURVE",
"1211 337 OFFCURVE",
"1211 692 CURVE SMOOTH",
"1211 911 OFFCURVE",
"1127 1068 OFFCURVE",
"899 1068 CURVE SMOOTH",
"712 1068 OFFCURVE",
"604 960 OFFCURVE",
"560 912 CURVE",
"573 960 OFFCURVE",
"584 1018 OFFCURVE",
"592 1068 CURVE",
"467 1068 OFFCURVE",
"323 1055 OFFCURVE",
"211 1022 CURVE",
"173 880 OFFCURVE",
"-41 118 OFFCURVE",
"-226 -455 CURVE"
);
},
{
closed = 1;
nodes = (
"511 439 OFFCURVE",
"477 485 OFFCURVE",
"455 519 CURVE",
"464 545 OFFCURVE",
"488 629 OFFCURVE",
"496 659 CURVE",
"544 704 OFFCURVE",
"611 750 OFFCURVE",
"716 750 CURVE SMOOTH",
"813 750 OFFCURVE",
"836 705 OFFCURVE",
"836 634 CURVE SMOOTH",
"836 504 OFFCURVE",
"750 439 OFFCURVE",
"623 439 CURVE SMOOTH"
);
}
);
width = 1229;
}
);
leftKerningGroup = p;
rightKerningGroup = o;
unicode = 0070;
},
{
glyphname = thorn;
lastChange = "2020-06-17 20:38:04 +0000";
layers = (
{
anchors = (
{
name = bottom;
position = "{458, 0}";
},
{
name = top;
position = "{419, 1376}";
}
);
layerId = "82219AB4-7C60-4B3A-9196-329BE868CB10";
paths = (
{
closed = 1;
nodes = (
"44 -340 OFFCURVE",
"135 36 OFFCURVE",
"141 96 CURVE",
"180 40 OFFCURVE",
"353 1 OFFCURVE",
"473 1 CURVE SMOOTH",
"788 1 OFFCURVE",
"1051 320 OFFCURVE",
"1051 656 CURVE SMOOTH",
"1051 860 OFFCURVE",
"947 1018 OFFCURVE",
"746 1018 CURVE SMOOTH",
"538 1018 OFFCURVE",
"345 857 OFFCURVE",
"320 832 CURVE",
"372 1040 OFFCURVE",
"447 1349 OFFCURVE",
"449 1376 CURVE",
"369 1369 LINE",
"293 1085 OFFCURVE",
"-22 -229 OFFCURVE",
"-53 -391 CURVE",
"30 -395 LINE"
);
},
{
closed = 1;
nodes = (
"288 84 OFFCURVE",
"208 145 OFFCURVE",
"168 205 CURVE",
"178 244 OFFCURVE",
"282 687 OFFCURVE",
"290 730 CURVE",
"349 786 OFFCURVE",
"547 921 OFFCURVE",
"716 921 CURVE SMOOTH",
"881 921 OFFCURVE",
"969 815 OFFCURVE",
"969 653 CURVE SMOOTH",
"969 367 OFFCURVE",
"754 84 OFFCURVE",
"473 84 CURVE SMOOTH"
);
}
);
width = 1200;
},
{
anchors = (
{
name = bottom;
position = "{458, 0}";
},
{
name = top;
position = "{465, 1350}";
}
);
layerId = "63DB0068-8B02-4205-807F-6F2453D24B26";
paths = (
{
closed = 1;
nodes = (
"294 -248 OFFCURVE",
"370 28 OFFCURVE",
"388 96 CURVE",
"427 65 OFFCURVE",
"525 43 OFFCURVE",
"624 43 CURVE SMOOTH",
"942 43 OFFCURVE",
"1187 305 OFFCURVE",
"1187 636 CURVE SMOOTH",
"1187 847 OFFCURVE",
"1077 1008 OFFCURVE",
"856 1008 CURVE SMOOTH",
"761 1008 OFFCURVE",
"683 989 OFFCURVE",
"567 917 CURVE",
"610 1090 OFFCURVE",
"665 1312 OFFCURVE",
"675 1397 CURVE",
"283 1330 LINE",
"188 976 OFFCURVE",
"-102 -214 OFFCURVE",
"-138 -379 CURVE",
"253 -395 LINE"
);
},
{
closed = 1;
nodes = (
"572 409 OFFCURVE",
"505 433 OFFCURVE",
"466 449 CURVE",
"478 490 OFFCURVE",
"491 541 OFFCURVE",
"499 586 CURVE",
"536 619 OFFCURVE",
"632 665 OFFCURVE",
"723 665 CURVE SMOOTH",
"802 665 OFFCURVE",
"842 641 OFFCURVE",
"842 588 CURVE SMOOTH",
"842 490 OFFCURVE",
"748 409 OFFCURVE",
"637 409 CURVE SMOOTH"
);
}
);
width = 1200;
}
);
leftKerningGroup = h;
rightKerningGroup = o;
unicode = 00FE;
},
{
glyphname = q;
lastChange = "2020-06-17 15:29:54 +0000";
layers = (
{
anchors = (
{
name = bottom;
position = "{461.585, 0}";
},
{
name = top;
position = "{746.415, 1063}";
}
);
layerId = "82219AB4-7C60-4B3A-9196-329BE868CB10";
paths = (
{
closed = 1;
nodes = (
"775 -344 OFFCURVE",
"811 -127 OFFCURVE",
"872 99 CURVE SMOOTH",
"952 396 OFFCURVE",
"1085 773 OFFCURVE",
"1206 1072 CURVE",
"1196 1077 OFFCURVE",
"1151 1089 OFFCURVE",
"1133 1091 CURVE",
"1123 1074 OFFCURVE",
"1094 1000 OFFCURVE",
"1085 976 CURVE",
"1045 1017 OFFCURVE",
"929 1086 OFFCURVE",
"765 1086 CURVE SMOOTH",
"377 1086 OFFCURVE",
"150 782 OFFCURVE",
"150 383 CURVE SMOOTH",
"150 184 OFFCURVE",
"238 49 OFFCURVE",
"453 49 CURVE SMOOTH",
"632 49 OFFCURVE",
"763 137 OFFCURVE",
"811 188 CURVE",
"754 -24 OFFCURVE",
"689 -299 OFFCURVE",
"667 -446 CURVE",
"698 -450 OFFCURVE",
"742 -453 OFFCURVE",
"759 -453 CURVE"
);
},
{
closed = 1;
nodes = (
"295 126 OFFCURVE",
"240 241 OFFCURVE",
"240 395 CURVE SMOOTH",
"240 730 OFFCURVE",
"430 1010 OFFCURVE",
"741 1010 CURVE SMOOTH",
"914 1010 OFFCURVE",
"1034 919 OFFCURVE",
"1052 901 CURVE",
"1010 798 OFFCURVE",
"870 393 OFFCURVE",
"839 296 CURVE",
"790 243 OFFCURVE",
"628 126 OFFCURVE",
"457 126 CURVE SMOOTH"
);
}
);
width = 1207;
},
{
anchors = (
{
name = bottom;
position = "{461.585, 0}";
},
{
name = top;
position = "{746.415, 1063}";
}
);
layerId = "63DB0068-8B02-4205-807F-6F2453D24B26";
paths = (
{
closed = 1;
nodes = (
"892 -342 OFFCURVE",
"933 -97 OFFCURVE",
"995 136 CURVE SMOOTH",
"1072 426 OFFCURVE",
"1187 782 OFFCURVE",
"1292 1043 CURVE",
"1173 1075 OFFCURVE",
"1069 1089 OFFCURVE",
"954 1089 CURVE",
"944 1067 OFFCURVE",
"909 987 OFFCURVE",
"897 942 CURVE",
"820 1032 OFFCURVE",
"726 1084 OFFCURVE",
"576 1084 CURVE SMOOTH",
"236 1084 OFFCURVE",
"54 789 OFFCURVE",
"54 407 CURVE SMOOTH",
"54 172 OFFCURVE",
"154 -3 OFFCURVE",
"396 -3 CURVE SMOOTH",
"519 -3 OFFCURVE",
"603 42 OFFCURVE",
"634 79 CURVE",
"583 -111 OFFCURVE",
"547 -270 OFFCURVE",
"520 -445 CURVE",
"600 -453 OFFCURVE",
"716 -462 OFFCURVE",
"874 -462 CURVE"
);
},
{
closed = 1;
nodes = (
"466 390 OFFCURVE",
"425 433 OFFCURVE",
"425 505 CURVE SMOOTH",
"425 615 OFFCURVE",
"498 722 OFFCURVE",
"612 722 CURVE SMOOTH",
"699 722 OFFCURVE",
"768 661 OFFCURVE",
"793 638 CURVE",
"771 571 OFFCURVE",
"748 499 OFFCURVE",
"728 431 CURVE",
"690 413 OFFCURVE",
"615 390 OFFCURVE",
"546 390 CURVE SMOOTH"
);
}
);
width = 1207;
}
);
leftKerningGroup = o;
rightKerningGroup = q;
unicode = 0071;
},
{
glyphname = r;
lastChange = "2020-07-16 19:18:26 +0000";
layers = (
{
anchors = (
{
name = bottom;
position = "{284.585, 0}";
},
{
name = top;
position = "{569.415, 1063}";
}
);
layerId = "82219AB4-7C60-4B3A-9196-329BE868CB10";
paths = (
{
closed = 1;
nodes = (
"294 918 OFFCURVE",
"294 1003 OFFCURVE",
"294 1054 CURVE",
"276 1053 OFFCURVE",
"226 1040 OFFCURVE",
"213 1034 CURVE",
"213 658 OFFCURVE",
"152 343 OFFCURVE",
"61 2 CURVE",
"85 -1 OFFCURVE",
"137 -2 OFFCURVE",
"157 -2 CURVE",
"193 134 OFFCURVE",
"273 555 OFFCURVE",
"286 773 CURVE",
"388 889 OFFCURVE",
"575 987 OFFCURVE",
"719 987 CURVE SMOOTH",
"805 987 OFFCURVE",
"850 967 OFFCURVE",
"880 952 CURVE",
"921 1036 LINE",
"885 1054 OFFCURVE",
"802 1067 OFFCURVE",
"728 1067 CURVE SMOOTH",
"581 1067 OFFCURVE",
"397 987 OFFCURVE",
"292 877 CURVE"
);
}
);
width = 853;
},
{
anchors = (
{
name = bottom;
position = "{295, 0}";
},
{
name = top;
position = "{579, 1063}";
}
);
layerId = "63DB0068-8B02-4205-807F-6F2453D24B26";
paths = (
{
closed = 1;
nodes = (
"502 941 OFFCURVE",
"504 1029 OFFCURVE",
"504 1074 CURVE",
"474 1072 OFFCURVE",
"293 1043 OFFCURVE",
"161 1009 CURVE",
"154 832 OFFCURVE",
"39 261 OFFCURVE",
"-29 -8 CURVE",
"113 -8 OFFCURVE",
"273 -4 OFFCURVE",
"396 12 CURVE",
"418 96 OFFCURVE",
"465 441 OFFCURVE",
"480 578 CURVE",
"547 641 OFFCURVE",
"617 677 OFFCURVE",
"694 677 CURVE SMOOTH",
"745 677 OFFCURVE",
"786 659 OFFCURVE",
"811 648 CURVE",
"994 1044 LINE",
"975 1062 OFFCURVE",
"902 1078 OFFCURVE",
"842 1078 CURVE SMOOTH",
"694 1078 OFFCURVE",
"558 985 OFFCURVE",
"500 902 CURVE"
);
}
);
width = 853;
}
);
leftKerningGroup = n;
rightKerningGroup = r;
unicode = 0072;
},
{
glyphname = s;
lastChange = "2020-06-17 21:34:13 +0000";
layers = (
{
anchors = (
{
name = bottom;
position = "{340, -60}";
},
{
name = top;
position = "{657, 1098}";
}
);
layerId = "82219AB4-7C60-4B3A-9196-329BE868CB10";
paths = (
{
closed = 1;
nodes = (
"626 -84 OFFCURVE",
"857 39 OFFCURVE",
"857 293 CURVE SMOOTH",
"857 439 OFFCURVE",
"769 536 OFFCURVE",
"541 614 CURVE SMOOTH",
"403 661 OFFCURVE",
"313 726 OFFCURVE",
"313 822 CURVE SMOOTH",
"313 972 OFFCURVE",
"514 1029 OFFCURVE",
"661 1029 CURVE SMOOTH",
"787 1029 OFFCURVE",
"878 986 OFFCURVE",
"941 949 CURVE",
"954 964 OFFCURVE",
"978 998 OFFCURVE",
"995 1027 CURVE",
"953 1061 OFFCURVE",
"846 1114 OFFCURVE",
"675 1114 CURVE SMOOTH",
"475 1114 OFFCURVE",
"223 1023 OFFCURVE",
"223 816 CURVE SMOOTH",
"223 657 OFFCURVE",
"335 599 OFFCURVE",
"527 529 CURVE SMOOTH",
"684 472 OFFCURVE",
"767 407 OFFCURVE",
"767 283 CURVE SMOOTH",
"767 93 OFFCURVE",
"568 -5 OFFCURVE",
"370 -5 CURVE SMOOTH",
"198 -5 OFFCURVE",
"63 99 OFFCURVE",
"16 210 CURVE",
"-1 195 OFFCURVE",
"-41 159 OFFCURVE",
"-67 135 CURVE",
"15 -2 OFFCURVE",
"208 -84 OFFCURVE",
"364 -84 CURVE SMOOTH"
);
}
);
width = 995;
},
{
anchors = (
{
name = bottom;
position = "{337, -70}";
},
{
name = top;
position = "{641, 1124}";
}
);
layerId = "63DB0068-8B02-4205-807F-6F2453D24B26";
paths = (
{
closed = 1;
nodes = (
"643 -77 OFFCURVE",
"908 79 OFFCURVE",
"908 348 CURVE SMOOTH",
"908 524 OFFCURVE",
"760 631 OFFCURVE",
"663 680 CURVE SMOOTH",
"574 725 OFFCURVE",
"535 749 OFFCURVE",
"535 783 CURVE SMOOTH",
"535 832 OFFCURVE",
"597 844 OFFCURVE",
"644 844 CURVE SMOOTH",
"712 844 OFFCURVE",
"791 788 OFFCURVE",
"826 738 CURVE",
"930 831 OFFCURVE",
"1038 967 OFFCURVE",
"1063 1010 CURVE",
"982 1081 OFFCURVE",
"826 1127 OFFCURVE",
"669 1127 CURVE SMOOTH",
"414 1127 OFFCURVE",
"177 1005 OFFCURVE",
"177 751 CURVE SMOOTH",
"177 606 OFFCURVE",
"265 506 OFFCURVE",
"380 446 CURVE SMOOTH",
"461 404 OFFCURVE",
"535 363 OFFCURVE",
"535 316 CURVE SMOOTH",
"535 268 OFFCURVE",
"491 250 OFFCURVE",
"445 250 CURVE SMOOTH",
"364 250 OFFCURVE",
"266 330 OFFCURVE",
"185 405 CURVE",
"110 345 OFFCURVE",
"-59 126 OFFCURVE",
"-88 70 CURVE",
"-60 34 OFFCURVE",
"93 -77 OFFCURVE",
"362 -77 CURVE SMOOTH"
);
}
);
width = 988;
}
);
leftKerningGroup = s;
rightKerningGroup = s;
unicode = 0073;
},
{
glyphname = scedilla;
lastChange = "2020-07-03 19:54:28 +0000";
layers = (
{
components = (
{
name = s;
}
);
layerId = "82219AB4-7C60-4B3A-9196-329BE868CB10";
paths = (
{
closed = 1;
nodes = (
"481 -522 OFFCURVE",
"634 -460 OFFCURVE",
"634 -287 CURVE SMOOTH",
"634 -194 OFFCURVE",
"569 -147 OFFCURVE",
"473 -147 CURVE SMOOTH",
"425 -147 OFFCURVE",
"360 -166 OFFCURVE",
"341 -179 CURVE",
"382 -21 LINE",
"310 -17 LINE",
"243 -272 LINE",
"286 -254 OFFCURVE",
"388 -219 OFFCURVE",
"446 -219 CURVE SMOOTH",
"518 -219 OFFCURVE",
"544 -249 OFFCURVE",
"544 -302 CURVE SMOOTH",
"544 -422 OFFCURVE",
"434 -452 OFFCURVE",
"288 -452 CURVE SMOOTH",
"237 -452 OFFCURVE",
"163 -434 OFFCURVE",
"125 -424 CURVE",
"98 -497 LINE",
"117 -504 OFFCURVE",
"180 -522 OFFCURVE",
"284 -522 CURVE SMOOTH"
);
}
);
width = 995;
},
{
components = (
{
name = s;
}
);
layerId = "63DB0068-8B02-4205-807F-6F2453D24B26";
paths = (
{
closed = 1;
nodes = (
"463 -567 OFFCURVE",
"722 -478 OFFCURVE",
"722 -252 CURVE SMOOTH",
"722 -151 OFFCURVE",
"660 -107 OFFCURVE",
"567 -107 CURVE SMOOTH",
"497 -107 OFFCURVE",
"437 -135 OFFCURVE",
"407 -169 CURVE",
"450 -51 LINE",
"229 -63 LINE",
"137 -287 LINE",
"175 -274 OFFCURVE",
"260 -259 OFFCURVE",
"337 -259 CURVE SMOOTH",
"400 -259 OFFCURVE",
"450 -269 OFFCURVE",
"450 -301 CURVE SMOOTH",
"450 -344 OFFCURVE",
"381 -367 OFFCURVE",
"258 -367 CURVE SMOOTH",
"225 -367 OFFCURVE",
"143 -355 OFFCURVE",
"116 -342 CURVE",
"20 -545 LINE",
"39 -550 OFFCURVE",
"118 -567 OFFCURVE",
"223 -567 CURVE SMOOTH"
);
}
);
width = 988;
}
);
leftKerningGroup = s;
rightKerningGroup = s;
unicode = 015F;
},
{
glyphname = germandbls;
lastChange = "2020-06-17 20:39:58 +0000";
layers = (
{
anchors = (
{
name = bottom;
position = "{430, 0}";
},
{
name = top;
position = "{707, 1368}";
}
);
layerId = "82219AB4-7C60-4B3A-9196-329BE868CB10";
paths = (
{
closed = 1;
nodes = (
"210 5 LINE",
"221 103 OFFCURVE",
"308 823 OFFCURVE",
"354 993 CURVE SMOOTH",
"409 1196 OFFCURVE",
"504 1323 OFFCURVE",
"701 1323 CURVE SMOOTH",
"830 1323 OFFCURVE",
"942 1253 OFFCURVE",
"942 1144 CURVE SMOOTH",
"942 1053 OFFCURVE",
"866 981 OFFCURVE",
"792 914 CURVE SMOOTH",
"723 851 OFFCURVE",
"660 792 OFFCURVE",
"660 721 CURVE SMOOTH",
"660 685 OFFCURVE",
"675 643 OFFCURVE",
"702 616 CURVE SMOOTH",
"771 547 OFFCURVE",
"856 456 OFFCURVE",
"856 342 CURVE SMOOTH",
"856 203 OFFCURVE",
"748 86 OFFCURVE",
"600 86 CURVE SMOOTH",
"504 86 OFFCURVE",
"433 122 OFFCURVE",
"390 171 CURVE",
"321 107 LINE",
"371 56 OFFCURVE",
"469 2 OFFCURVE",
"570 2 CURVE SMOOTH",
"771 2 OFFCURVE",
"949 164 OFFCURVE",
"949 358 CURVE SMOOTH",
"949 483 OFFCURVE",
"858 573 OFFCURVE",
"819 611 CURVE SMOOTH",
"761 667 OFFCURVE",
"756 702 OFFCURVE",
"756 736 CURVE SMOOTH",
"756 773 OFFCURVE",
"797 813 OFFCURVE",
"849 861 CURVE SMOOTH",
"925 932 OFFCURVE",
"1017 1025 OFFCURVE",
"1017 1157 CURVE SMOOTH",
"1017 1304 OFFCURVE",
"881 1395 OFFCURVE",
"712 1395 CURVE SMOOTH",
"465 1395 OFFCURVE",
"344 1250 OFFCURVE",
"274 988 CURVE SMOOTH",
"212 756 OFFCURVE",
"153 229 OFFCURVE",
"127 -5 CURVE"
);
}
);
width = 1144;
},
{
anchors = (
{
name = bottom;
position = "{430, 0}";
},
{
name = top;
position = "{733, 1372}";
}
);
layerId = "63DB0068-8B02-4205-807F-6F2453D24B26";
paths = (
{
closed = 1;
nodes = (
"365 53 LINE",
"375 141 OFFCURVE",
"458 785 OFFCURVE",
"521 1021 CURVE SMOOTH",
"546 1114 OFFCURVE",
"632 1114 OFFCURVE",
"669 1114 CURVE SMOOTH",
"731 1114 OFFCURVE",
"773 1069 OFFCURVE",
"773 1020 CURVE SMOOTH",
"773 957 OFFCURVE",
"719 912 OFFCURVE",
"663 867 CURVE SMOOTH",
"601 818 OFFCURVE",
"538 763 OFFCURVE",
"538 679 CURVE SMOOTH",
"538 628 OFFCURVE",
"566 600 OFFCURVE",
"590 584 CURVE SMOOTH",
"688 521 OFFCURVE",
"772 456 OFFCURVE",
"772 382 CURVE SMOOTH",
"772 341 OFFCURVE",
"747 295 OFFCURVE",
"704 295 CURVE SMOOTH",
"664 295 OFFCURVE",
"629 326 OFFCURVE",
"599 354 CURVE",
"409 65 LINE",
"434 34 OFFCURVE",
"500 -10 OFFCURVE",
"638 -10 CURVE SMOOTH",
"874 -10 OFFCURVE",
"1085 216 OFFCURVE",
"1085 450 CURVE SMOOTH",
"1085 552 OFFCURVE",
"1036 628 OFFCURVE",
"977 669 CURVE SMOOTH",
"942 693 OFFCURVE",
"909 724 OFFCURVE",
"909 761 CURVE SMOOTH",
"909 785 OFFCURVE",
"938 812 OFFCURVE",
"981 850 CURVE SMOOTH",
"1044 905 OFFCURVE",
"1117 990 OFFCURVE",
"1117 1124 CURVE SMOOTH",
"1117 1293 OFFCURVE",
"969 1415 OFFCURVE",
"759 1415 CURVE SMOOTH",
"509 1415 OFFCURVE",
"238 1291 OFFCURVE",
"156 988 CURVE SMOOTH",
"85 726 OFFCURVE",
"6 104 OFFCURVE",
"6 -5 CURVE"
);
}
);
width = 1144;
}
);
leftKerningGroup = h;
rightKerningGroup = s;
unicode = 00DF;
},
{
glyphname = t;
lastChange = "2020-07-21 15:54:46 +0000";
layers = (
{
anchors = (
{
name = bottom;
position = "{494, -33}";
},
{
name = center;
position = "{442, 532}";
},
{
name = top;
position = "{624, 1436}";
},
{
name = topright;
position = "{685, 1186}";
}
);
layerId = "82219AB4-7C60-4B3A-9196-329BE868CB10";
paths = (
{
closed = 1;
nodes = (
"714 244 OFFCURVE",
"660 261 OFFCURVE",
"649 265 CURVE",
"624 191 OFFCURVE",
"554 41 OFFCURVE",
"445 41 CURVE SMOOTH",
"380 41 OFFCURVE",
"356 93 OFFCURVE",
"356 175 CURVE SMOOTH",
"356 332 OFFCURVE",
"516 863 OFFCURVE",
"549 969 CURVE",
"607 973 OFFCURVE",
"685 976 OFFCURVE",
"745 976 CURVE SMOOTH",
"828 976 OFFCURVE",
"925 970 OFFCURVE",
"938 969 CURVE",
"941 979 OFFCURVE",
"950 1021 OFFCURVE",
"950 1031 CURVE",
"935 1032 OFFCURVE",
"813 1037 OFFCURVE",
"710 1037 CURVE SMOOTH",
"673 1037 OFFCURVE",
"603 1034 OFFCURVE",
"566 1032 CURVE",
"577 1066 OFFCURVE",
"588 1106 OFFCURVE",
"599 1146 CURVE SMOOTH",
"634 1276 OFFCURVE",
"663 1413 OFFCURVE",
"663 1431 CURVE",
"586 1436 LINE",
"578 1392 OFFCURVE",
"564 1332 OFFCURVE",
"547 1268 CURVE SMOOTH",
"525 1187 OFFCURVE",
"499 1099 OFFCURVE",
"473 1024 CURVE",
"375 1017 OFFCURVE",
"247 998 OFFCURVE",
"172 986 CURVE",
"167 968 OFFCURVE",
"159 928 OFFCURVE",
"159 914 CURVE",
"181 920 OFFCURVE",
"294 942 OFFCURVE",
"455 957 CURVE",
"432 882 OFFCURVE",
"273 355 OFFCURVE",
"273 167 CURVE SMOOTH",
"273 45 OFFCURVE",
"314 -33 OFFCURVE",
"433 -33 CURVE SMOOTH",
"598 -33 OFFCURVE",
"680 123 OFFCURVE",
"725 241 CURVE"
);
}
);
width = 964;
},
{
anchors = (
{
name = bottom;
position = "{459, -53}";
},
{
name = center;
position = "{462, 532}";
},
{
name = top;
position = "{631, 1421}";
},
{
name = topright;
position = "{863, 1376}";
}
);
layerId = "63DB0068-8B02-4205-807F-6F2453D24B26";
paths = (
{
closed = 1;
nodes = (
"823 92 OFFCURVE",
"739 323 OFFCURVE",
"722 353 CURVE",
"690 323 OFFCURVE",
"648 289 OFFCURVE",
"600 289 CURVE SMOOTH",
"553 289 OFFCURVE",
"546 314 OFFCURVE",
"546 358 CURVE SMOOTH",
"546 440 OFFCURVE",
"609 663 OFFCURVE",
"670 832 CURVE",
"711 835 OFFCURVE",
"768 840 OFFCURVE",
"812 844 CURVE SMOOTH",
"879 850 OFFCURVE",
"968 855 OFFCURVE",
"981 855 CURVE",
"1007 950 OFFCURVE",
"1039 1080 OFFCURVE",
"1050 1162 CURVE",
"1035 1162 OFFCURVE",
"992 1162 OFFCURVE",
"913 1157 CURVE SMOOTH",
"878 1155 OFFCURVE",
"808 1151 OFFCURVE",
"762 1149 CURVE",
"775 1208 OFFCURVE",
"788 1260 OFFCURVE",
"799 1302 CURVE SMOOTH",
"817 1369 OFFCURVE",
"832 1421 OFFCURVE",
"836 1434 CURVE",
"465 1397 LINE",
"460 1372 OFFCURVE",
"448 1318 OFFCURVE",
"438 1273 CURVE SMOOTH",
"428 1227 OFFCURVE",
"417 1179 OFFCURVE",
"406 1132 CURVE",
"308 1128 OFFCURVE",
"230 1122 OFFCURVE",
"148 1113 CURVE",
"142 1091 OFFCURVE",
"102 923 OFFCURVE",
"90 779 CURVE",
"130 787 OFFCURVE",
"231 800 OFFCURVE",
"321 809 CURVE",
"254 627 OFFCURVE",
"187 345 OFFCURVE",
"187 237 CURVE SMOOTH",
"187 78 OFFCURVE",
"272 -53 OFFCURVE",
"472 -53 CURVE SMOOTH",
"662 -53 OFFCURVE",
"773 5 OFFCURVE",
"833 64 CURVE"
);
}
);
width = 964;
}
);
leftKerningGroup = t;
rightKerningGroup = t;
unicode = 0074;
},
{
glyphname = t.ss01;
lastChange = "2020-07-21 15:54:59 +0000";
layers = (
{
anchors = (
{
name = bottom;
position = "{339.585, 0}";
},
{
name = center;
position = "{482.134, 532}";
},
{
name = top;
position = "{672, 1388}";
},
{
name = topright;
position = "{768, 1217}";
}
);
layerId = "82219AB4-7C60-4B3A-9196-329BE868CB10";
paths = (
{
closed = 1;
nodes = (
"1024 999 OFFCURVE",
"1030 1018 OFFCURVE",
"1036 1038 CURVE SMOOTH",
"1039 1047 OFFCURVE",
"1041 1056 OFFCURVE",
"1043 1065 CURVE",
"1023 1065 OFFCURVE",
"814 1058 OFFCURVE",
"650 1051 CURVE",
"677 1152 OFFCURVE",
"710 1347 OFFCURVE",
"716 1386 CURVE",
"707 1387 OFFCURVE",
"695 1388 OFFCURVE",
"683 1388 CURVE SMOOTH",
"662 1388 OFFCURVE",
"638 1386 OFFCURVE",
"624 1383 CURVE",
"608 1273 OFFCURVE",
"578 1101 OFFCURVE",
"563 1044 CURVE",
"463 1038 OFFCURVE",
"251 1010 OFFCURVE",
"188 998 CURVE",
"182 976 OFFCURVE",
"178 947 OFFCURVE",
"178 916 CURVE",
"211 923 OFFCURVE",
"358 947 OFFCURVE",
"540 962 CURVE",
"454 591 OFFCURVE",
"376 296 OFFCURVE",
"296 0 CURVE",
"307 -1 OFFCURVE",
"321 -2 OFFCURVE",
"334 -2 CURVE SMOOTH",
"348 -2 OFFCURVE",
"360 -2 OFFCURVE",
"368 -2 CURVE",
"405 118 OFFCURVE",
"451 277 OFFCURVE",
"494 437 CURVE SMOOTH",
"530 571 OFFCURVE",
"602 853 OFFCURVE",
"629 968 CURVE",
"780 978 OFFCURVE",
"996 985 OFFCURVE",
"1016 985 CURVE"
);
}
);
width = 964;
},
{
anchors = (
{
name = bottom;
position = "{339.585, 0}";
},
{
name = center;
position = "{482.134, 532}";
},
{
name = top;
position = "{688, 1436}";
},
{
name = topright;
position = "{905, 1422}";
}
);
layerId = "63DB0068-8B02-4205-807F-6F2453D24B26";
paths = (
{
closed = 1;
nodes = (
"1033 926 OFFCURVE",
"1051 966 OFFCURVE",
"1069 1040 CURVE SMOOTH",
"1083 1098 OFFCURVE",
"1092 1152 OFFCURVE",
"1094 1195 CURVE",
"1073 1195 OFFCURVE",
"1008 1193 OFFCURVE",
"824 1186 CURVE",
"859 1335 OFFCURVE",
"865 1383 OFFCURVE",
"865 1422 CURVE",
"844 1426 OFFCURVE",
"784 1436 OFFCURVE",
"688 1436 CURVE SMOOTH",
"641 1436 OFFCURVE",
"582 1432 OFFCURVE",
"515 1426 CURVE",
"497 1337 OFFCURVE",
"477 1248 OFFCURVE",
"458 1168 CURVE",
"359 1161 OFFCURVE",
"313 1157 OFFCURVE",
"196 1145 CURVE",
"190 1123 OFFCURVE",
"148 959 OFFCURVE",
"135 817 CURVE",
"179 829 OFFCURVE",
"293 843 OFFCURVE",
"386 853 CURVE",
"317 619 OFFCURVE",
"234 320 OFFCURVE",
"148 0 CURVE",
"193 -4 OFFCURVE",
"246 -5 OFFCURVE",
"295 -5 CURVE SMOOTH",
"368 -5 OFFCURVE",
"440 -4 OFFCURVE",
"521 -2 CURVE",
"548 92 OFFCURVE",
"605 296 OFFCURVE",
"654 479 CURVE SMOOTH",
"694 629 OFFCURVE",
"726 763 OFFCURVE",
"752 879 CURVE",
"872 886 OFFCURVE",
"985 893 OFFCURVE",
"1017 896 CURVE"
);
}
);
width = 964;
}
);
leftKerningGroup = t;
rightKerningGroup = t;
},
{
glyphname = tbar;
lastChange = "2020-06-17 20:42:58 +0000";
layers = (
{
components = (
{
name = t;
}
);
layerId = "82219AB4-7C60-4B3A-9196-329BE868CB10";
paths = (
{
closed = 1;
nodes = (
"807 614 OFFCURVE",
"812 658 OFFCURVE",
"812 666 CURVE",
"682 660 OFFCURVE",
"195 619 OFFCURVE",
"133 606 CURVE",
"126 595 OFFCURVE",
"118 562 OFFCURVE",
"116 545 CURVE",
"273 559 OFFCURVE",
"649 587 OFFCURVE",
"803 595 CURVE"
);
}
);
width = 964;
},
{
components = (
{
name = t;
}
);
layerId = "63DB0068-8B02-4205-807F-6F2453D24B26";
paths = (
{
closed = 1;
nodes = (
"908 568 OFFCURVE",
"932 688 OFFCURVE",
"938 727 CURVE",
"795 727 OFFCURVE",
"234 718 OFFCURVE",
"96 667 CURVE",
"76 593 OFFCURVE",
"63 523 OFFCURVE",
"49 436 CURVE",
"279 453 OFFCURVE",
"755 460 OFFCURVE",
"879 460 CURVE"
);
}
);
width = 964;
}
);
leftKerningGroup = t;
rightKerningGroup = t;
unicode = 0167;
},
{
glyphname = tbar.ss01;
lastChange = "2020-06-29 18:02:34 +0000";
layers = (
{
components = (
{
name = t.ss01;
transform = "{1, 0, 0, 1, -13, 0}";
}
);
layerId = "82219AB4-7C60-4B3A-9196-329BE868CB10";
paths = (
{
closed = 1;
nodes = (
"821 614 OFFCURVE",
"826 658 OFFCURVE",
"826 666 CURVE",
"696 660 OFFCURVE",
"209 619 OFFCURVE",
"147 606 CURVE",
"140 595 OFFCURVE",
"132 562 OFFCURVE",
"130 545 CURVE",
"287 559 OFFCURVE",
"663 587 OFFCURVE",
"817 595 CURVE"
);
}
);
width = 1031;
},
{
components = (
{
name = t.ss01;
transform = "{1, 0, 0, 1, -40, 0}";
}
);
layerId = "63DB0068-8B02-4205-807F-6F2453D24B26";
paths = (
{
closed = 1;
nodes = (
"831 568 OFFCURVE",
"849 688 OFFCURVE",
"853 727 CURVE",
"728 727 OFFCURVE",
"235 718 OFFCURVE",
"115 667 CURVE",
"99 593 OFFCURVE",
"90 523 OFFCURVE",
"79 436 CURVE",
"281 453 OFFCURVE",
"699 460 OFFCURVE",
"808 460 CURVE"
);
}
);
width = 899;
}
);
leftKerningGroup = t;
leftMetricsKey = t;
rightKerningGroup = t;
rightMetricsKey = t;
},
